<?xml version="1.0" encoding="utf-8"?>
<!-- Generator: Adobe Illustrator 26.0.1, SVG Export Plug-In . SVG Version: 6.00 Build 0)  -->
<svg version="1.1" id="レイヤー_1" xmlns="http://www.w3.org/2000/svg" xmlns:xlink="http://www.w3.org/1999/xlink" x="0px"
	 y="0px" viewBox="0 0 909.7 866.5" style="enable-background:new 0 0 909.7 866.5;" xml:space="preserve">
<style type="text/css">
	.st0{fill:#2CA98A;}
	.st1{opacity:0.3;fill:url(#SVGID_1_);enable-background:new    ;}
	.st2{fill:#E68939;}
	.st3{opacity:0.3;fill:url(#SVGID_00000140721124971513678420000007855847674172146848_);enable-background:new    ;}
	.st4{fill:#2967B2;}
	.st5{opacity:0.3;fill:url(#SVGID_00000163782399458336135300000012019883425489965970_);enable-background:new    ;}
	.st6{fill:url(#SVGID_00000181784064109708733570000017653435208582230454_);}
	.st7{fill:#FFFFFF;}
	.st8{fill:none;stroke:#FFFFFF;stroke-width:0.86;stroke-miterlimit:10;}
	.st9{fill:#113575;}
</style>
<path class="st0" d="M361.1,443c20.7-51.8,79.5-77,131.3-56.3c16.6,6.6,31.1,17.5,42.1,31.6c-20.8-32.4-47.9-60.3-79.6-82.1
	c-6.2-4.3-12.7-8.3-19.4-12.2c-82.7-47.8-183.7-51.8-270-10.7l0,0v-0.1C67.6,359.9,0,459.7,0,575.4c0,160.3,130,290.3,290.3,290.3
	c58.8,0.1,116.2-17.7,164.6-51.1C376.1,760.5,329.1,671,329.2,575.4c0-7.7,0.3-15.3,0.9-22.9l0-0.1h0c3-38.4,13.6-75.8,31.2-110
	L361.1,443z"/>
<linearGradient id="SVGID_1_" gradientUnits="userSpaceOnUse" x1="442.135" y1="-1.089" x2="337.135" y2="502.911" gradientTransform="matrix(1 0 0 -1 0 868)">
	<stop  offset="0" style="stop-color:#FFFFFF"/>
	<stop  offset="1" style="stop-color:#231815"/>
</linearGradient>
<path class="st1" d="M534.5,418.3c-34.4-43.9-97.8-51.7-141.8-17.3c-10.2,8-18.7,17.8-25.2,29c-2.4,4.2-4.6,8.6-6.4,13.1l0.1-0.5
	c-17.6,34.2-28.3,71.6-31.2,110H330l0.1,0.1c-0.6,7.5-0.9,15.2-0.9,22.9c-0.1,95.6,47,185,125.8,239.2
	c-41.4,28.6-89.6,45.9-139.8,50.1c-63.2-55.1-99.5-134.9-99.4-218.7c0-115.7,67.6-215.5,165.5-262.2v0.1
	c31.5-15,65.4-24.2,100.2-27.2C501.9,374.6,519.8,395.3,534.5,418.3z"/>
<path class="st2" d="M469.2,581c-4.8,0.7-9.6,1-14.5,1c-55.8,0-101-45.2-101-101c0-13,2.5-25.8,7.4-37.8
	c-17.6,34.2-28.3,71.6-31.2,110c-0.6,7.5-0.9,15.2-0.9,22.9c-0.1,95.6,47,185.1,125.8,239.3l0,0c0,0,0,0-0.1,0
	c89.3,61.4,209.6,70,309.8,12.2C903.3,747.4,950.9,569.8,870.8,431c-29.3-51-73.5-91.8-126.6-117c-7.5,95.3-61.5,180.8-144.3,228.5
	c-6.7,3.9-13.4,7.4-20.2,10.7v0.1v-0.1c-34.7,16.6-72.4,26.1-110.9,27.9L469.2,581z"/>
<linearGradient id="SVGID_00000070090530704950208480000005445679982243618716_" gradientUnits="userSpaceOnUse" x1="850.1287" y1="474.943" x2="406.1288" y2="285.943" gradientTransform="matrix(1 0 0 -1 0 868)">
	<stop  offset="0" style="stop-color:#FFFFFF"/>
	<stop  offset="1" style="stop-color:#231815"/>
</linearGradient>
<path style="opacity:0.3;fill:url(#SVGID_00000070090530704950208480000005445679982243618716_);enable-background:new    ;" d="
	M362,442.6c-20.9,51.7,4.1,110.6,55.8,131.5c7.5,3,15.3,5.1,23.3,6.3c9.6,1.4,19.4,1.4,29,0l-0.5,0.1c38.4-1.8,76.1-11.3,110.8-27.9
	c0,0,0,0,0,0.1v-0.1c6.8-3.3,13.6-6.8,20.2-10.7c82.8-47.8,136.7-133.2,144.2-228.5c45.5,21.6,84.5,54.7,113.3,96
	c-16.1,82.3-67,153.6-139.7,195.5c-100.2,57.8-220.5,49.2-309.8-12.2l0.1,0c-28.7-19.8-53.6-44.6-73.6-73.2
	C340.5,492.7,349.5,466.9,362,442.6z"/>
<path class="st4" d="M534.7,417.9c34.5,43.8,27,107.3-16.8,141.8c-14,11.1-30.7,18.2-48.4,20.7c38.5-1.8,76.2-11.3,110.9-28
	c6.8-3.3,13.6-6.8,20.2-10.7c82.8-47.7,136.8-133.2,144.3-228.5l0,0h0.1c8.5-108-44.2-216.5-144.3-274.3
	C461.7-41.2,284.1,6.3,204,145.2c-29.5,50.9-42.7,109.5-38,168.1c86.3-41.1,187.3-37.2,270,10.7c6.7,3.9,13.1,7.9,19.4,12.2h0.1l0,0
	c31.7,21.8,58.8,49.6,79.6,82L534.7,417.9z"/>
<linearGradient id="SVGID_00000038379253862878333050000007612076057016559533_" gradientUnits="userSpaceOnUse" x1="145.794" y1="601.8805" x2="648.3041" y2="408.3805" gradientTransform="matrix(1 0 0 -1 0 868)">
	<stop  offset="0" style="stop-color:#FFFFFF"/>
	<stop  offset="1" style="stop-color:#231815"/>
</linearGradient>
<path style="opacity:0.3;fill:url(#SVGID_00000038379253862878333050000007612076057016559533_);enable-background:new    ;" d="
	M468.5,580c55.2-7.8,93.7-58.8,86-114.1c-1.1-8-3.2-15.9-6.2-23.4c-3.6-9-8.5-17.5-14.5-25.1l0.3,0.4c-20.8-32.4-47.9-60.3-79.6-82
	h0h-0.1c-6.3-4.3-12.7-8.4-19.4-12.2c-82.7-47.8-183.7-51.8-270-10.7c-4-50.2,5.1-100.6,26.5-146.1c79.3-27.2,166.6-18.8,239.1,23.2
	C530.8,247.9,583.5,356.4,575,464.4h-0.1c-2.8,34.8-11.8,68.7-26.5,100.3C522.6,573.6,495.7,578.7,468.5,580z"/>
<linearGradient id="SVGID_00000006675442726856727830000001767120063167854751_" gradientUnits="userSpaceOnUse" x1="375.7" y1="465.2744" x2="534.0919" y2="306.8825" gradientTransform="matrix(1 0 0 -1 -1.229236e-03 868.0015)">
	<stop  offset="0" style="stop-color:#D3171A"/>
	<stop  offset="0.23" style="stop-color:#D1181C"/>
	<stop  offset="0.32" style="stop-color:#CC1A23"/>
	<stop  offset="0.38" style="stop-color:#C21E2E"/>
	<stop  offset="0.43" style="stop-color:#B3243F"/>
	<stop  offset="0.47" style="stop-color:#A12B55"/>
	<stop  offset="0.5" style="stop-color:#8D336C"/>
	<stop  offset="0.53" style="stop-color:#71336B"/>
	<stop  offset="0.56" style="stop-color:#56326A"/>
	<stop  offset="0.6" style="stop-color:#403269"/>
	<stop  offset="0.65" style="stop-color:#2F3169"/>
	<stop  offset="0.7" style="stop-color:#243168"/>
	<stop  offset="0.78" style="stop-color:#1D3168"/>
	<stop  offset="1" style="stop-color:#1B3168"/>
</linearGradient>
<circle style="fill:url(#SVGID_00000006675442726856727830000001767120063167854751_);" cx="454.9" cy="481.9" r="112"/>
<ellipse transform="matrix(0.7071 -0.7071 0.7071 0.7071 -207.5355 462.8112)" class="st7" cx="454.9" cy="481.9" rx="95.1" ry="95.1"/>
<path class="st7" d="M410.9,172.3c0,2.3,1,3,3.4,3.4c2.1,0.3,4.1,0.4,6.2,0.4c5.2,0,13-0.6,17.1-1.6v5.7c-5.8,0.7-11.6,1-17.4,1
	c-2.7,0-5.4-0.1-8.1-0.5c-4-0.7-6.3-2.7-6.3-6.9v-27.1c0-1.5-0.1-3-0.4-4.5h5.8c-0.2,1.5-0.3,3-0.3,4.5V157
	c6.3-1.6,12.5-3.5,18.5-5.9c1.7-0.7,3.3-1.5,4.8-2.5l2.1,5c-1.6,0.6-3.6,1.5-5.1,2.1c-6.7,2.5-13.4,4.6-20.3,6.4V172.3z"/>
<path class="st7" d="M506.9,168.5c-6-3.1-12.3-5.6-18.7-7.7V176c0,2.1,0.1,4.2,0.4,6.3h-6.1c0.3-2.1,0.4-4.2,0.4-6.3v-28.6
	c0-1.9-0.1-3.7-0.4-5.6h6.1c-0.1,1.6-0.3,3.8-0.3,5.6v7.7c7.2,2.2,14.2,4.8,21,7.9L506.9,168.5z"/>
<path class="st7" d="M423.5,246.5c0,0.2,0,0.4,0,0.7c0.1,1.9,0.9,8.2,6.1,10.6c-0.4,0.3-0.7,0.7-1,1.1c-3.4-1.6-5-4.9-5.7-7.6
	c-0.7,3.2-2.6,5.9-5.4,7.6c-0.3-0.4-0.7-0.7-1.1-1c5.6-3,5.5-9.5,5.6-11.3L423.5,246.5z"/>
<path class="st7" d="M443.5,254.1c-0.3-0.5-0.9-1.3-1.4-2v6.8h-1.3v-6.1c-0.5,1.3-1.1,2.6-2,3.7c-0.2-0.4-0.4-0.9-0.7-1.3
	c1.2-1.5,2-3.2,2.5-5h-2.1V249h2.2v-2.9h1.3v2.9h1.8v1.2H442v0.4c0.5,0.5,1.9,2,2.2,2.4L443.5,254.1z M451.1,250.2h-1.4v7
	c0,0.8-0.2,1.2-0.7,1.4c-0.8,0.2-1.7,0.3-2.5,0.2c-0.1-0.5-0.3-0.9-0.5-1.3c0.8,0,1.7,0,2,0s0.4-0.1,0.4-0.3v-5.2
	c-1,1.8-2.4,3.4-4,4.7c-0.3-0.4-0.6-0.7-0.9-1.1c1.9-1.4,3.5-3.3,4.5-5.5h-3.6V249h4v-2.9h1.4v2.9h1.4L451.1,250.2z"/>
<path class="st7" d="M462.3,252.3c-0.7-0.6-1.6-1.1-2.4-1.4l0.7-1c0.9,0.3,1.7,0.8,2.5,1.3L462.3,252.3z M463.5,254.3
	c-0.6,1.5-1.5,3.2-2.2,4.5l-1.2-0.8c0.9-1.5,1.7-3,2.4-4.5L463.5,254.3z M463,248.7c-0.7-0.6-1.6-1.1-2.4-1.5l0.7-1
	c0.9,0.3,1.7,0.8,2.5,1.4L463,248.7z M472.9,252.6c-0.8,0.6-1.6,1.2-2.2,1.7c0.3,1.4,1.1,2.7,2.3,3.6c-0.4,0.3-0.7,0.7-0.9,1.1
	c-1.9-1.5-2.7-4.2-3.1-7.6l-0.8,0.2v7.4h-1.2v-7.1l-0.7,0.1c-0.1-0.3-0.2-0.6-0.4-0.9v0.2c0,2.2-0.2,5.5-1.9,7.8
	c-0.3-0.3-0.6-0.6-1-0.8c1.5-2.1,1.6-4.9,1.6-7v-3.8l1.1,0.3c1.8-0.4,3.6-0.9,5.4-1.7l1.1,1c-2.1,0.8-4.2,1.4-6.4,1.8v2
	c1.9-0.3,3.8-0.9,5.6-1.7l1,1c-0.8,0.3-1.6,0.6-2.5,0.8c0.1,0.7,0.2,1.4,0.4,2.2c0.6-0.5,1.2-1,1.7-1.6L472.9,252.6z"/>
<path class="st7" d="M484.7,256c0.6,1,1.7,1.4,3.3,1.5s4.8,0,6.6-0.1c-0.2,0.4-0.3,0.8-0.4,1.2c-1.6,0.1-4.6,0.1-6.2,0
	c-1.4,0.1-2.8-0.5-3.8-1.6c-0.6,0.6-1.2,1.1-1.9,1.8l-0.6-1.2c0.6-0.4,1.2-0.9,1.8-1.4v-3.4h-1.7v-1.2h2.9V256z M484,249.5
	c-0.6-0.9-1.3-1.7-2.1-2.3l1-0.7c0.8,0.6,1.6,1.4,2.2,2.2L484,249.5z M488.9,249.1H486v-2.3h2.9v-0.8h1.2v0.8h3.1v2.3h-3.1v0.6h4.2
	v0.9H485v-0.9h4L488.9,249.1z M487.5,253.5v0.6h5.8v2.5h-7v-5.6h6.5v2.4H487.5z M488.9,248.4v-0.8h-1.7v0.8H488.9z M487.5,252v0.8h4
	V252L487.5,252z M487.5,255v0.9h4.6V255L487.5,255z M490.2,247.6v0.8h1.8v-0.8H490.2z"/>
<path class="st7" d="M411.5,235.8c-1.1,1.2-2.8,1.9-4.5,1.8h-6v-26.1h6c1.7-0.1,3.3,0.6,4.5,1.8c1.7,1.8,1.9,4.1,1.9,11.2
	S413.2,234,411.5,235.8z M409.1,215.3c-0.5-0.7-1.4-1-2.2-1h-2.8v20.4h2.8c0.9,0,1.7-0.3,2.2-1c1-1.2,1.1-3.2,1.1-9.2
	S410.1,216.5,409.1,215.3z"/>
<path class="st7" d="M417.4,237.6v-26.1h3.1v26.1H417.4z"/>
<path class="st7" d="M435.1,236.3c-1.3,1.1-2.9,1.7-4.6,1.6c-1.7,0.1-3.3-0.5-4.6-1.6c-1.2-1.2-1.6-2.7-1.6-5.5h3.1
	c0,1.7,0.2,2.7,0.9,3.4c1.3,1.1,3.1,1.1,4.4,0c0.7-0.8,0.9-1.8,0.9-3.5c0-3-0.4-3.9-2.6-4.8l-3-1.2c-2.7-1.1-3.5-2.6-3.5-6.5
	c-0.1-2,0.6-3.9,2-5.3c1.1-1,2.6-1.6,4.1-1.5c1.6-0.1,3.1,0.4,4.3,1.5c1.3,1.3,1.7,3,1.7,5.3h-3.1c0.1-1.1-0.2-2.2-0.8-3.1
	c-0.5-0.6-1.3-0.9-2.1-0.9c-0.8,0-1.5,0.3-2,0.8c-0.7,0.9-1,2-0.9,3.1c0,2.6,0.4,3.3,2.5,4.2l2.9,1.2c3,1.2,3.7,3,3.7,7.1
	C436.8,233.3,436.4,235,435.1,236.3z"/>
<path class="st7" d="M446.5,226.7h-2.7v10.9h-3.1v-26.1h5.9c4,0,6.2,1.8,6.2,7.6S450.4,226.7,446.5,226.7z M446.4,214.3h-2.6v9.6
	h2.6c2.1,0,3.1-1.3,3.1-4.8S448.5,214.3,446.4,214.3z"/>
<path class="st7" d="M466.3,237.6l-1.3-6.2h-6l-1.2,6.1h-3.3l6.1-26.1h3l6,26.1L466.3,237.6z M462,216.6l-2.5,12h4.9L462,216.6z"/>
<path class="st7" d="M478.1,214.3v23.2h-3.1v-23.2h-4.4v-2.8h11.9v2.8H478.1z"/>
<path class="st7" d="M495.3,236.4c-1.1,1-2.5,1.5-4,1.4c-1.7,0.1-3.3-0.6-4.5-1.9c-1.7-2-1.9-4.2-1.9-11.4s0.2-9.4,1.9-11.4
	c2.3-2.4,6.1-2.6,8.6-0.4c1.3,1.4,1.9,3.3,1.9,5.2h-3.1c0.1-1.1-0.2-2.1-0.9-3c-0.5-0.6-1.3-1-2-0.9c-0.8,0-1.6,0.3-2.2,1
	c-0.9,1.2-1.1,3.3-1.1,9.5s0.1,8.3,1.1,9.5c0.5,0.7,1.3,1,2.2,1c0.8,0,1.6-0.3,2-0.9c0.6-0.9,0.9-1.9,0.9-3h3.1
	C497.4,233.1,496.7,235,495.3,236.4z"/>
<path class="st7" d="M510,237.6v-11.9h-5.8v11.9H501v-26.1h3.1v11.4h5.9v-11.4h3.1v26.1H510z"/>
<line class="st8" x1="386.2" y1="199.3" x2="528.8" y2="199.3"/>
<path class="st7" d="M605.1,629.1c-5,2.5-10.3,5.2-14.5,7.2l-1.8-4.6c1.8-0.7,4-1.6,6.4-2.7v-14.8h-5.5v-4.4h5.5v-10h4.3v10h5v4.4
	h-5v12.9c1.5-0.7,3-1.4,4.6-2.1L605.1,629.1z M614.7,623.3c-0.5,1-1.1,2-1.8,3h20.7c0,0,0,1.1-0.1,1.7c-0.8,9.9-1.5,13.8-2.9,15.3
	c-0.8,0.8-1.9,1.3-3,1.4c-1.7,0.1-3.3,0.1-5,0c-0.1-1.3-0.4-2.6-1-3.7c1.3,0.1,2.6,0.2,3.9,0.2c0.7,0,1.1,0,1.5-0.5
	c0.8-0.8,1.4-3.7,2-10.7h-3c-2,5.8-5.8,12-10,15.1c-1-1-2.1-1.9-3.3-2.6c3.9-2.6,7.3-7.5,9.4-12.5h-3.9c-2.9,5.2-6.9,9.6-11.8,12.9
	c-0.9-1.1-1.9-2-3.1-2.8c4.3-2.5,8-6,10.8-10.2h-4.2c-1.8,2-3.9,3.8-6.1,5.3c-1-1-2-2-3.1-2.9c3.8-2.2,7-5.3,9.4-9.1h-6.3v-3.9h31
	v3.9L614.7,623.3z M631.2,617h-22.9v-16.3h22.9V617z M627,604.1h-14.5v3.2H627V604.1z M627,610.4h-14.5v3.3H627V610.4z"/>
<path class="st7" d="M668.1,626.6c-0.2,6-1.1,13.3-4.4,18.3c-1.1-1.1-2.3-2-3.6-2.8c3.3-5.3,3.6-12.8,3.6-18.5v-12.9h18.6v15.9
	H668.1z M683.5,606.2h-21.4V602h21.4V606.2z M668.1,614.9v7.6h9.7v-7.6H668.1z M706.7,620.5h-5v24.4h-4.6v-24.4h-7.3
	c-0.3,7.6-1.9,17.4-8.6,24.3c-0.9-1.3-2.1-2.3-3.4-3.1c6.8-7.1,7.5-16.8,7.5-24.3V604l3.5,0.8c4.5-1.1,9-2.7,13.1-4.8l4.1,3.4
	c-4.5,2.2-10.5,4-16.1,5.4v7.3h16.8L706.7,620.5z"/>
<path class="st7" d="M635.9,713.8l-1.6,0.5v5H633v-4.6l-2.2,0.7l-0.3-1.2c0.7-0.2,1.6-0.4,2.5-0.7v-2.9h-1.1c-0.1,0.7-0.3,1.3-0.6,2
	c-0.3-0.2-0.7-0.4-1-0.6c0.5-1.5,0.8-3,0.9-4.6l1.1,0.2c-0.1,0.6-0.1,1.2-0.2,1.8h0.9v-2.8h1.2v2.8h1.3v1.2h-1.3v2.6l1.5-0.4
	L635.9,713.8z M643.3,708.7c0,0,0,0.5,0,0.6c-0.3,6.3-0.6,8.5-1.1,9.2c-0.2,0.4-0.6,0.6-1,0.6c-0.5,0.1-1.1,0.1-1.6,0
	c0-0.4-0.1-0.9-0.4-1.3c0.6,0,1.1,0,1.4,0c0.2,0,0.4-0.1,0.5-0.2c0.4-0.5,0.7-2.5,1-7.8h-0.4c-0.7,3.6-2.2,7.3-4.5,9.1
	c-0.3-0.3-0.7-0.6-1.1-0.8c2.3-1.6,3.7-5,4.4-8.3h-0.9c-0.5,2.3-1.7,4.5-3.3,6.2c-0.3-0.3-0.6-0.5-1-0.7c1.6-1.5,2.7-3.4,3.2-5.5h-1
	c-0.4,0.9-0.9,1.8-1.5,2.6c-0.3-0.3-0.7-0.5-1-0.7c1.2-1.5,2-3.4,2.4-5.3l1.2,0.2c-0.2,0.7-0.3,1.3-0.6,2L643.3,708.7z"/>
<path class="st7" d="M654.8,712.8c-0.8-0.6-1.6-1.1-2.5-1.5l0.7-1c0.9,0.3,1.8,0.8,2.6,1.4L654.8,712.8z M656.1,714.7
	c-0.7,1.5-1.6,3.2-2.3,4.5l-1.1-0.8c0.9-1.4,1.7-2.9,2.5-4.5L656.1,714.7z M655.5,709.1c-0.8-0.6-1.6-1.2-2.5-1.6l0.7-0.9
	c0.9,0.4,1.8,0.9,2.5,1.5L655.5,709.1z M657.4,713.1h1.2v1.4c0.2,1.9-0.6,3.7-2.1,4.8c-0.3-0.3-0.6-0.6-0.9-0.8c1.3-0.9,2-2.4,1.8-4
	V713.1z M659.8,708.2v-1.7h1.3v1.7h3.9v1.2h-4.7c-0.3,0.6-0.7,1.3-1.1,1.9c1,0,2.2-0.1,3.3-0.1c-0.3-0.3-0.7-0.7-1-1l1-0.5
	c1,0.8,1.8,1.8,2.5,2.9l-1.1,0.6c-0.2-0.3-0.4-0.6-0.6-0.9c-2.5,0.1-5.1,0.3-7,0.3l-0.1-1.2h1.6c0.4-0.6,0.7-1.3,0.9-2h-2.7v-1.2
	L659.8,708.2z M659.8,713.2h1.2v5.5h-1.2V713.2z M663.9,718c0.1,0,0.2,0,0.2,0c0.1,0,0.1-0.2,0.2-0.4s0-0.7,0-1.4
	c0.3,0.2,0.6,0.3,0.9,0.5c0,0.5,0,1.1-0.1,1.6c-0.1,0.2-0.2,0.5-0.4,0.6c-0.2,0.1-0.5,0.2-0.7,0.2h-0.7c-0.3,0-0.6-0.1-0.8-0.3
	c-0.2-0.2-0.3-0.5-0.3-1.3v-4.4h1.2v4.5c0,0.2,0,0.4,0.1,0.5c0.1,0,0.1,0,0.2,0L663.9,718z"/>
<path class="st7" d="M585.8,698v-28.6h3.5v25.5h7.6v3.1H585.8z"/>
<path class="st7" d="M611.5,696.2c-2.6,2.7-6.9,2.8-9.6,0.2c-0.1-0.1-0.1-0.1-0.2-0.2c-1.8-2-2.1-4.6-2.1-12.5s0.2-10.5,2.1-12.5
	c2.6-2.7,6.9-2.8,9.6-0.2c0.1,0.1,0.1,0.1,0.2,0.2c1.8,2,2.1,4.6,2.1,12.5S613.3,694.2,611.5,696.2z M608.9,673.2
	c-0.5-0.7-1.4-1.1-2.3-1.1c-0.9-0.1-1.8,0.4-2.4,1.1c-1,1.4-1.2,3.7-1.2,10.4s0.2,9.1,1.2,10.4c0.6,0.7,1.4,1.1,2.4,1.1
	c0.9,0,1.8-0.4,2.3-1.1c1-1.4,1.2-3.7,1.2-10.4S609.9,674.6,608.9,673.2L608.9,673.2z"/>
<path class="st7" d="M624.3,698.3c-1.9,0.1-3.6-0.7-4.9-2.1c-1.8-2-2.1-4.6-2.1-12.5s0.2-10.5,2.1-12.5c2.6-2.7,6.8-2.8,9.5-0.3
	c1.4,1.5,2.1,3.6,2,5.6h-3.4c0-1.9-0.5-4.3-3.2-4.3c-0.9,0-1.8,0.4-2.4,1.1c-1,1.4-1.2,3.7-1.2,10.4s0.2,9.1,1.2,10.4
	c0.6,0.7,1.4,1.1,2.4,1.1c2,0,3.2-1.7,3.2-4v-5.7h-3.2v-2.8h6.6v8.5C630.9,695.9,628.1,698.3,624.3,698.3z"/>
<path class="st7" d="M635.4,698v-28.6h3.5V698H635.4z"/>
<path class="st7" d="M654.9,696.5c-1.4,1.2-3.2,1.8-5.1,1.7c-1.8,0.1-3.6-0.5-5-1.7c-1.3-1.3-1.8-3-1.8-6h3.5c0,1.9,0.2,2.9,1,3.7
	c0.6,0.6,1.5,0.9,2.4,0.9c0.9,0.1,1.8-0.3,2.5-0.9c0.8-0.8,0.9-1.9,0.9-3.8c0-3.3-0.5-4.3-2.8-5.3l-3.3-1.3
	c-2.9-1.2-3.9-2.8-3.9-7.1c-0.1-2.2,0.6-4.3,2.2-5.9c1.2-1.1,2.9-1.7,4.5-1.7c1.7-0.1,3.4,0.5,4.7,1.7c1.5,1.4,1.9,3.2,1.9,5.9h-3.5
	c0.1-1.2-0.2-2.4-0.9-3.5c-0.6-0.7-1.4-1.1-2.3-1c-0.8,0-1.6,0.3-2.2,0.9c-0.7,1-1.1,2.2-1,3.4c0,2.8,0.4,3.7,2.7,4.6l3.2,1.3
	c3.3,1.3,4,3.3,4,7.8C656.6,693.3,656.2,695.2,654.9,696.5z"/>
<path class="st7" d="M667.5,672.5V698H664v-25.5h-4.8v-3.1h13v3.1L667.5,672.5z"/>
<path class="st7" d="M675.7,698v-28.6h3.5V698H675.7z"/>
<path class="st7" d="M695,696.7c-1.2,1.1-2.8,1.6-4.4,1.6c-1.9,0.1-3.7-0.7-4.9-2.1c-1.9-2.2-2.1-4.6-2.1-12.5s0.2-10.3,2.1-12.5
	c2.5-2.6,6.7-2.8,9.4-0.4c1.4,1.6,2.1,3.6,2,5.7h-3.4c0-1.2-0.3-2.3-0.9-3.2c-0.5-0.7-1.4-1-2.2-1c-0.9-0.1-1.8,0.4-2.4,1.1
	c-1,1.4-1.2,3.7-1.2,10.4s0.2,9.1,1.2,10.4c0.6,0.7,1.4,1.1,2.4,1.1c0.9,0,1.7-0.3,2.2-1c0.6-1,0.9-2.1,0.9-3.3h3.4
	C697.2,693.1,696.5,695.1,695,696.7z"/>
<path class="st7" d="M712.1,696.5c-1.4,1.2-3.2,1.8-5,1.7c-1.8,0.1-3.6-0.5-5-1.7c-1.3-1.3-1.8-3-1.8-6h3.5c0,1.9,0.2,2.9,1,3.7
	c1.4,1.2,3.4,1.2,4.8,0c0.8-0.8,0.9-1.9,0.9-3.8c0-3.3-0.5-4.3-2.8-5.3l-3.2-1.3c-2.9-1.2-3.9-2.8-3.9-7.1c-0.1-2.2,0.7-4.3,2.2-5.9
	c2.7-2.2,6.6-2.2,9.3,0c1.5,1.4,1.9,3.2,1.9,5.9h-3.5c0.1-1.2-0.2-2.4-0.9-3.5c-0.6-0.7-1.4-1.1-2.3-1c-0.8,0-1.6,0.3-2.2,0.9
	c-0.7,1-1.1,2.2-1,3.4c0,2.8,0.4,3.7,2.7,4.6l3.2,1.3c3.2,1.3,4,3.3,4,7.8C713.8,693.3,713.4,695.2,712.1,696.5z"/>
<path class="st7" d="M585.8,698v-28.6h3.5v25.5h7.6v3.1H585.8z"/>
<path class="st7" d="M611.5,696.2c-2.6,2.7-6.9,2.8-9.6,0.2c-0.1-0.1-0.1-0.1-0.2-0.2c-1.8-2-2.1-4.6-2.1-12.5s0.2-10.5,2.1-12.5
	c2.6-2.7,6.9-2.8,9.6-0.2c0.1,0.1,0.1,0.1,0.2,0.2c1.8,2,2.1,4.6,2.1,12.5S613.3,694.2,611.5,696.2z M608.9,673.2
	c-0.5-0.7-1.4-1.1-2.3-1.1c-0.9-0.1-1.8,0.4-2.4,1.1c-1,1.4-1.2,3.7-1.2,10.4s0.2,9.1,1.2,10.4c0.6,0.7,1.4,1.1,2.4,1.1
	c0.9,0,1.8-0.4,2.3-1.1c1-1.4,1.2-3.7,1.2-10.4S609.9,674.6,608.9,673.2L608.9,673.2z"/>
<path class="st7" d="M624.3,698.3c-1.9,0.1-3.6-0.7-4.9-2.1c-1.8-2-2.1-4.6-2.1-12.5s0.2-10.5,2.1-12.5c2.6-2.7,6.8-2.8,9.5-0.3
	c1.4,1.5,2.1,3.6,2,5.6h-3.4c0-1.9-0.5-4.3-3.2-4.3c-0.9,0-1.8,0.4-2.4,1.1c-1,1.4-1.2,3.7-1.2,10.4s0.2,9.1,1.2,10.4
	c0.6,0.7,1.4,1.1,2.4,1.1c2,0,3.2-1.7,3.2-4v-5.7h-3.2v-2.8h6.6v8.5C630.9,695.9,628.1,698.3,624.3,698.3z"/>
<path class="st7" d="M635.4,698v-28.6h3.5V698H635.4z"/>
<path class="st7" d="M654.9,696.5c-1.4,1.2-3.2,1.8-5.1,1.7c-1.8,0.1-3.6-0.5-5-1.7c-1.3-1.3-1.8-3-1.8-6h3.5c0,1.9,0.2,2.9,1,3.7
	c0.6,0.6,1.5,0.9,2.4,0.9c0.9,0.1,1.8-0.3,2.5-0.9c0.8-0.8,0.9-1.9,0.9-3.8c0-3.3-0.5-4.3-2.8-5.3l-3.3-1.3
	c-2.9-1.2-3.9-2.8-3.9-7.1c-0.1-2.2,0.6-4.3,2.2-5.9c1.2-1.1,2.9-1.7,4.5-1.7c1.7-0.1,3.4,0.5,4.7,1.7c1.5,1.4,1.9,3.2,1.9,5.9h-3.5
	c0.1-1.2-0.2-2.4-0.9-3.5c-0.6-0.7-1.4-1.1-2.3-1c-0.8,0-1.6,0.3-2.2,0.9c-0.7,1-1.1,2.2-1,3.4c0,2.8,0.4,3.7,2.7,4.6l3.2,1.3
	c3.3,1.3,4,3.3,4,7.8C656.6,693.3,656.2,695.2,654.9,696.5z"/>
<path class="st7" d="M667.5,672.5V698H664v-25.5h-4.8v-3.1h13v3.1L667.5,672.5z"/>
<path class="st7" d="M675.7,698v-28.6h3.5V698H675.7z"/>
<path class="st7" d="M695,696.7c-1.2,1.1-2.8,1.6-4.4,1.6c-1.9,0.1-3.7-0.7-4.9-2.1c-1.9-2.2-2.1-4.6-2.1-12.5s0.2-10.3,2.1-12.5
	c2.5-2.6,6.7-2.8,9.4-0.4c1.4,1.6,2.1,3.6,2,5.7h-3.4c0-1.2-0.3-2.3-0.9-3.2c-0.5-0.7-1.4-1-2.2-1c-0.9-0.1-1.8,0.4-2.4,1.1
	c-1,1.4-1.2,3.7-1.2,10.4s0.2,9.1,1.2,10.4c0.6,0.7,1.4,1.1,2.4,1.1c0.9,0,1.7-0.3,2.2-1c0.6-1,0.9-2.1,0.9-3.3h3.4
	C697.2,693.1,696.5,695.1,695,696.7z"/>
<path class="st7" d="M712.1,696.5c-1.4,1.2-3.2,1.8-5,1.7c-1.8,0.1-3.6-0.5-5-1.7c-1.3-1.3-1.8-3-1.8-6h3.5c0,1.9,0.2,2.9,1,3.7
	c1.4,1.2,3.4,1.2,4.8,0c0.8-0.8,0.9-1.9,0.9-3.8c0-3.3-0.5-4.3-2.8-5.3l-3.2-1.3c-2.9-1.2-3.9-2.8-3.9-7.1c-0.1-2.2,0.7-4.3,2.2-5.9
	c2.7-2.2,6.6-2.2,9.3,0c1.5,1.4,1.9,3.2,1.9,5.9h-3.5c0.1-1.2-0.2-2.4-0.9-3.5c-0.6-0.7-1.4-1.1-2.3-1c-0.8,0-1.6,0.3-2.2,0.9
	c-0.7,1-1.1,2.2-1,3.4c0,2.8,0.4,3.7,2.7,4.6l3.2,1.3c3.2,1.3,4,3.3,4,7.8C713.8,693.3,713.4,695.2,712.1,696.5z"/>
<line class="st8" x1="578.5" y1="659.6" x2="721.2" y2="659.6"/>
<path class="st7" d="M140.1,561.9l-5.6,1.6v13c0,2.4-0.5,3.6-1.9,4.3s-3.7,0.8-7,0.8c-0.3-1.4-0.8-2.8-1.4-4.2c2.2,0,4.3,0,4.9,0
	s1-0.2,1-0.9v-11.7c-1.9,0.5-3.7,1-5.4,1.5l-1.2-4.4l6.6-1.6v-10h-6.1V546h6.1v-9.7h4.5v9.7h5.2v4.3h-5.2v8.7l5.1-1.3L140.1,561.9z
	 M166.8,555.9c-1.7,6.2-5,11.9-9.7,16.4c3.7,2.7,7.8,4.6,12.2,5.7c-1.2,1.1-2.2,2.5-3,3.9c-4.7-1.3-9.1-3.6-12.8-6.7
	c-4.1,3-8.6,5.2-13.5,6.6c-0.7-1.5-1.5-2.9-2.5-4.2c4.5-1.1,8.9-3,12.7-5.6c-3.3-3.8-6-8.1-7.7-12.8l0.6-0.2h-2v-4.2h10.2V548h-11.1
	v-4.2h11.1v-7.4h4.6v7.4h11.4v4.2H156v6.8h7l0.8-0.2L166.8,555.9z M147.1,559c1.5,3.8,3.8,7.3,6.6,10.2c3.1-2.8,5.6-6.3,7.3-10.2
	H147.1z"/>
<path class="st7" d="M219.8,551.3v29.8h-4.3v-29.8h-7v-2.6c-1.1,2.2-2.3,4.3-3.6,6.3v26.9h-4.3v-21.3c-1.2,1.4-2.4,2.6-3.8,3.8
	c-0.8-1.4-1.6-2.8-2.6-4.1c4.5-3.8,8-8.5,10.4-13.8l3.8,1.2V547h7v-9.9h4.3v9.9h7v4.3H219.8z M207.6,537.8
	c-2.8,4.4-6.2,8.4-10.3,11.7c-0.6-0.9-1.8-2.6-2.5-3.5c3.5-2.6,6.4-5.9,8.5-9.7L207.6,537.8z M213.2,557.2
	c-0.6,6.9-1.5,13.7-3.7,18.2c-1-0.8-2-1.5-3.1-2.2c1.9-4.1,2.6-10.3,3-16.5L213.2,557.2z M224.4,545.8c-1-2.4-2.2-4.7-3.7-6.8l3-1.4
	c1.6,2.1,2.9,4.3,3.9,6.7L224.4,545.8z M225,556.8c1.2,4.8,2,9.7,2.5,14.6l-3.6,0.6c-0.4-4.9-1.2-9.8-2.3-14.6L225,556.8z
	 M240.8,556.9h-4.2v19.7c0,2.3-0.4,3.6-1.9,4.4s-3.8,0.7-7.2,0.7c-0.3-1.5-0.7-3-1.3-4.5c2.3,0.1,4.5,0.1,5.2,0s0.8-0.2,0.8-0.8
	v-19.6h-5.1v-4.2h13.6V556.9z M240,543.2h-11.7v-4.1H240V543.2z"/>
<path class="st7" d="M177.5,653.9v1.3H165v-1.3h5.5v-7.7h-4.7v-1.3h11.1v1.3h-4.9v7.7H177.5z"/>
<path class="st7" d="M191,651.8c-1.4,0.7-2.9,1.5-4.1,2l-0.5-1.3c0.5-0.2,1.1-0.5,1.8-0.8v-4.2h-1.5v-1.2h1.5v-2.8h1.2v2.8h1.4v1.2
	h-1.4v3.6l1.3-0.6L191,651.8z M193.7,650.2c-0.2,0.3-0.3,0.6-0.5,0.8h5.9c0,0,0,0.3,0,0.5c-0.2,2.8-0.4,3.9-0.8,4.3
	c-0.2,0.2-0.5,0.4-0.8,0.4c-0.5,0-0.9,0-1.4,0c0-0.4-0.1-0.7-0.3-1c0.4,0,0.7,0.1,1.1,0.1c0.2,0,0.3,0,0.4-0.2s0.4-1,0.6-3H197
	c-0.5,1.6-1.5,3.1-2.8,4.3c-0.3-0.3-0.6-0.5-0.9-0.7c1.2-0.9,2.1-2.1,2.7-3.5h-1.1c-0.8,1.5-2,2.7-3.3,3.7c-0.2-0.3-0.5-0.6-0.9-0.8
	c1.2-0.7,2.2-1.7,3-2.9h-1.2c-0.5,0.6-1.1,1.1-1.7,1.5c-0.3-0.3-0.6-0.6-0.9-0.8c1.1-0.6,2-1.5,2.6-2.6h-1.8v-1.1h8.8v1.1
	L193.7,650.2z M198.4,648.4h-6.5v-4.6h6.5V648.4z M197.2,644.7h-4.1v0.9h4.1V644.7z M197.2,646.5h-4.1v0.9h4.1V646.5z"/>
<path class="st7" d="M132.7,609.4v9.6h6.5v3.1h-6.5v12.8h-3.4v-28.6h11v3.1H132.7z"/>
<path class="st7" d="M154.9,634.9l-1.4-6.8h-6.6l-1.4,6.8h-3.6l6.7-28.6h3.3l6.6,28.6H154.9z M150.2,611.9l-2.7,13.2h5.3
	L150.2,611.9z"/>
<path class="st7" d="M172,633.7c-1.2,1.1-2.8,1.6-4.4,1.6c-1.9,0.1-3.7-0.7-4.9-2.1c-1.9-2.2-2.1-4.6-2.1-12.5s0.2-10.4,2.1-12.5
	c2.5-2.6,6.7-2.8,9.4-0.4c1.4,1.5,2.1,3.6,2.1,5.7h-3.4c0-1.2-0.3-2.3-0.9-3.2c-0.5-0.7-1.4-1-2.2-1c-0.9,0-1.8,0.4-2.4,1.1
	c-1,1.4-1.2,3.7-1.2,10.4s0.2,9.1,1.2,10.4c0.6,0.7,1.4,1.1,2.4,1.1c0.9,0,1.7-0.3,2.2-1c0.6-1,1-2.1,0.9-3.3h3.4
	C174.3,630,173.5,632.1,172,633.7z"/>
<path class="st7" d="M184.8,609.4v25.5h-3.5v-25.5h-4.8v-3.1h13v3.1H184.8z"/>
<path class="st7" d="M204.2,633.1c-2.6,2.7-6.9,2.8-9.6,0.2c-0.1-0.1-0.1-0.1-0.2-0.2c-1.9-2-2.1-4.6-2.1-12.5s0.2-10.5,2.1-12.5
	c2.6-2.7,6.9-2.8,9.6-0.2c0.1,0.1,0.1,0.1,0.2,0.2c1.8,2,2.1,4.6,2.1,12.5S206.1,631.1,204.2,633.1z M201.6,610.1
	c-0.5-0.7-1.4-1.1-2.3-1.1c-0.9,0-1.8,0.4-2.4,1.1c-1,1.4-1.2,3.7-1.2,10.4s0.2,9.1,1.2,10.4c0.6,0.7,1.4,1.1,2.4,1.1
	c0.9,0.1,1.8-0.4,2.3-1.1c1-1.4,1.2-3.7,1.2-10.4S202.6,611.5,201.6,610.1L201.6,610.1z"/>
<path class="st7" d="M221.2,634.9l-3.9-12.3h-3.1v12.3h-3.4v-28.6h6.5c4.3,0,6.7,1.9,6.7,8.2c0,4-1,6.3-3.4,7.5l4.4,13L221.2,634.9z
	 M217.2,609.4h-3v10.2h3c2.6,0,3.2-2,3.2-5.1S219.9,609.4,217.2,609.4L217.2,609.4z"/>
<path class="st7" d="M235.2,623.3v11.6h-3.4v-11.6l-5.3-17h3.8l3.2,12.2l3.2-12.2h3.8L235.2,623.3z"/>
<path class="st7" d="M132.7,609.4v9.6h6.5v3.1h-6.5v12.8h-3.4v-28.6h11v3.1H132.7z"/>
<path class="st7" d="M154.9,634.9l-1.4-6.8h-6.6l-1.4,6.8h-3.6l6.7-28.6h3.3l6.6,28.6H154.9z M150.2,611.9l-2.7,13.2h5.3
	L150.2,611.9z"/>
<path class="st7" d="M172,633.7c-1.2,1.1-2.8,1.6-4.4,1.6c-1.9,0.1-3.7-0.7-4.9-2.1c-1.9-2.2-2.1-4.6-2.1-12.5s0.2-10.4,2.1-12.5
	c2.5-2.6,6.7-2.8,9.4-0.4c1.4,1.5,2.1,3.6,2.1,5.7h-3.4c0-1.2-0.3-2.3-0.9-3.2c-0.5-0.7-1.4-1-2.2-1c-0.9,0-1.8,0.4-2.4,1.1
	c-1,1.4-1.2,3.7-1.2,10.4s0.2,9.1,1.2,10.4c0.6,0.7,1.4,1.1,2.4,1.1c0.9,0,1.7-0.3,2.2-1c0.6-1,1-2.1,0.9-3.3h3.4
	C174.3,630,173.5,632.1,172,633.7z"/>
<path class="st7" d="M184.8,609.4v25.5h-3.5v-25.5h-4.8v-3.1h13v3.1H184.8z"/>
<path class="st7" d="M204.2,633.1c-2.6,2.7-6.9,2.8-9.6,0.2c-0.1-0.1-0.1-0.1-0.2-0.2c-1.9-2-2.1-4.6-2.1-12.5s0.2-10.5,2.1-12.5
	c2.6-2.7,6.9-2.8,9.6-0.2c0.1,0.1,0.1,0.1,0.2,0.2c1.8,2,2.1,4.6,2.1,12.5S206.1,631.1,204.2,633.1z M201.6,610.1
	c-0.5-0.7-1.4-1.1-2.3-1.1c-0.9,0-1.8,0.4-2.4,1.1c-1,1.4-1.2,3.7-1.2,10.4s0.2,9.1,1.2,10.4c0.6,0.7,1.4,1.1,2.4,1.1
	c0.9,0.1,1.8-0.4,2.3-1.1c1-1.4,1.2-3.7,1.2-10.4S202.6,611.5,201.6,610.1L201.6,610.1z"/>
<path class="st7" d="M221.2,634.9l-3.9-12.3h-3.1v12.3h-3.4v-28.6h6.5c4.3,0,6.7,1.9,6.7,8.2c0,4-1,6.3-3.4,7.5l4.4,13L221.2,634.9z
	 M217.2,609.4h-3v10.2h3c2.6,0,3.2-2,3.2-5.1S219.9,609.4,217.2,609.4L217.2,609.4z"/>
<path class="st7" d="M235.2,623.3v11.6h-3.4v-11.6l-5.3-17h3.8l3.2,12.2l3.2-12.2h3.8L235.2,623.3z"/>
<path class="st7" d="M176.9,710.9c-0.8,0.6-1.6,1-2.5,1.4c1,0.6,2.2,1,3.4,1.2c-0.3,0.3-0.5,0.6-0.7,1c-2.5-0.3-4.7-1.9-5.8-4.2
	c-0.6,0.4-1.2,0.8-1.8,1.1v1.5l3-0.5l0.1,1l-5.5,0.8l-0.2-1.1c0.4,0,0.9-0.1,1.4-0.2v-1c-0.8,0.3-1.7,0.6-2.6,0.7
	c-0.2-0.4-0.4-0.7-0.7-1c1.7-0.3,3.3-0.8,4.8-1.5h-4.6v-1h5.5v-0.8h1.3v0.8h5.6v1h-5.1c0.3,0.5,0.7,1,1.1,1.5
	c0.8-0.4,1.7-0.9,2.4-1.5L176.9,710.9z M168,705.1h-3v-0.9h0.9c-0.3-0.2-0.5-0.3-0.8-0.4c0.5-0.6,0.9-1.3,1.1-2.1l1,0.2
	c-0.1,0.2-0.2,0.5-0.3,0.7h1v-1h1.1v1h2.4v0.9h-2.4v0.7h2.9v0.9h-2.8v0.6h2.5v1.7c0,0.5-0.1,0.7-0.4,0.8c-0.4,0.1-0.9,0.2-1.3,0.1
	c-0.1-0.3-0.2-0.5-0.3-0.8c0.4,0,0.7,0,0.9,0s0.1,0,0.1-0.1v-0.8h-1.4v2.2H168v-2.2h-1.4v1.8h-1v-2.6h2.4L168,705.1z M168,704.2
	v-0.7h-1.5c-0.1,0.3-0.3,0.5-0.5,0.7H168z M173.8,706.8h-1.2v-4.7h1.2V706.8z M176.9,707.4c0,0.6-0.1,0.9-0.6,1.1
	c-0.7,0.2-1.4,0.2-2.1,0.2c-0.1-0.4-0.2-0.7-0.4-1.1c0.7,0,1.4,0,1.6,0s0.2-0.1,0.2-0.2v-5.7h1.2V707.4z"/>
<path class="st7" d="M189.7,711.5c0.8,1,2,1.6,3.3,1.5c1.6,0,4.7,0,6.4-0.1c-0.2,0.4-0.3,0.9-0.4,1.3c-1.6,0.1-4.4,0.1-6,0
	c-1.5,0.1-2.9-0.5-3.9-1.6c-0.7,0.6-1.3,1.1-2.1,1.7l-0.7-1.3c0.7-0.4,1.4-0.9,2-1.4v-3.3h-1.8v-1.2h3.1L189.7,711.5z M189.1,704.9
	c-0.7-0.8-1.5-1.6-2.3-2.2l1-0.8c0.9,0.6,1.7,1.3,2.4,2.1L189.1,704.9z M192.1,704.4c-0.3,0.5-0.6,0.9-1,1.3
	c-0.3-0.2-0.7-0.5-1.1-0.6c0.9-0.9,1.6-2.1,2-3.3l1.2,0.3c-0.1,0.4-0.3,0.8-0.5,1.2h1.3v-1.7h1.3v1.7h3.2v1.1h-3.2v1.5h3.8v1.1h-8.9
	v-1.1h3.9v-1.5L192.1,704.4z M191.4,712v-4h6.8v4H191.4z M192.7,710.9h4.2V709h-4.2V710.9z"/>
<path class="st7" d="M129.1,691.9c-1.2,1.1-2.8,1.6-4.4,1.6c-1.9,0.1-3.7-0.7-4.9-2.1c-1.9-2.2-2.1-4.6-2.1-12.5s0.2-10.4,2.1-12.5
	c2.5-2.6,6.7-2.8,9.4-0.4c1.4,1.5,2.1,3.6,2.1,5.7h-3.4c0-1.2-0.3-2.3-0.9-3.3c-0.5-0.7-1.4-1-2.2-1c-0.9,0-1.8,0.4-2.4,1.1
	c-1,1.4-1.2,3.7-1.2,10.4s0.2,9.1,1.2,10.4c0.6,0.7,1.5,1.1,2.4,1.1c0.9,0,1.7-0.3,2.2-1c0.6-1,0.9-2.1,0.9-3.3h3.4
	C131.4,688.2,130.6,690.3,129.1,691.9z"/>
<path class="st7" d="M146.6,691.4c-2.6,2.7-6.9,2.8-9.6,0.2c-0.1-0.1-0.1-0.1-0.2-0.2c-1.8-2-2.1-4.6-2.1-12.5s0.2-10.5,2.1-12.5
	c2.6-2.7,6.9-2.8,9.6-0.2c0.1,0.1,0.1,0.1,0.2,0.2c1.9,2,2.1,4.6,2.1,12.5S148.4,689.3,146.6,691.4z M144,668.4
	c-0.5-0.7-1.4-1.1-2.3-1.1c-0.9,0-1.8,0.4-2.4,1.1c-1,1.4-1.2,3.7-1.2,10.4s0.2,9.1,1.2,10.4c0.6,0.7,1.5,1.1,2.4,1.1
	c0.9,0.1,1.8-0.4,2.3-1.1c1-1.4,1.2-3.7,1.2-10.4S145,669.8,144,668.4L144,668.4z"/>
<path class="st7" d="M164,693.1l-7.4-19.5v19.5h-3.4v-28.6h3.2l7.3,19.5v-19.5h3.4v28.6H164z"/>
<path class="st7" d="M178.8,667.6v25.5h-3.4v-25.5h-4.8v-3.1h13v3.1H178.8z"/>
<path class="st7" d="M197.5,693.1l-3.9-12.3h-3.1v12.3H187v-28.6h6.5c4.3,0,6.7,1.9,6.7,8.2c0,4-1,6.3-3.4,7.5l4.4,13L197.5,693.1z
	 M193.5,667.6h-3.1v10.2h3.1c2.6,0,3.2-2,3.2-5.1S196.2,667.6,193.5,667.6L193.5,667.6z"/>
<path class="st7" d="M215.9,693.1l-1.4-6.7h-6.6l-1.4,6.7h-3.6l6.7-28.6h3.3l6.6,28.6H215.9z M211.2,670.1l-2.7,13.2h5.3
	L211.2,670.1z"/>
<path class="st7" d="M233,691.9c-1.2,1.1-2.8,1.6-4.4,1.6c-1.9,0.1-3.7-0.7-4.9-2.1c-1.9-2.2-2.1-4.6-2.1-12.5s0.2-10.4,2.1-12.5
	c2.5-2.6,6.7-2.8,9.4-0.4c1.4,1.6,2.1,3.6,2,5.7h-3.4c0-1.2-0.3-2.3-0.9-3.3c-0.5-0.7-1.4-1-2.2-1c-0.9,0-1.8,0.4-2.4,1.1
	c-1,1.4-1.2,3.7-1.2,10.4s0.2,9.1,1.2,10.4c0.6,0.7,1.5,1.1,2.4,1.1c0.9,0,1.7-0.3,2.2-1c0.6-1,0.9-2.1,0.9-3.3h3.4
	C235.2,688.2,234.5,690.3,233,691.9z"/>
<path class="st7" d="M245.8,667.6v25.5h-3.4v-25.5h-4.8v-3.1h13v3.1H245.8z"/>
<path class="st7" d="M129.1,691.9c-1.2,1.1-2.8,1.6-4.4,1.6c-1.9,0.1-3.7-0.7-4.9-2.1c-1.9-2.2-2.1-4.6-2.1-12.5s0.2-10.4,2.1-12.5
	c2.5-2.6,6.7-2.8,9.4-0.4c1.4,1.5,2.1,3.6,2.1,5.7h-3.4c0-1.2-0.3-2.3-0.9-3.3c-0.5-0.7-1.4-1-2.2-1c-0.9,0-1.8,0.4-2.4,1.1
	c-1,1.4-1.2,3.7-1.2,10.4s0.2,9.1,1.2,10.4c0.6,0.7,1.5,1.1,2.4,1.1c0.9,0,1.7-0.3,2.2-1c0.6-1,0.9-2.1,0.9-3.3h3.4
	C131.4,688.2,130.6,690.3,129.1,691.9z"/>
<path class="st7" d="M146.6,691.4c-2.6,2.7-6.9,2.8-9.6,0.2c-0.1-0.1-0.1-0.1-0.2-0.2c-1.8-2-2.1-4.6-2.1-12.5s0.2-10.5,2.1-12.5
	c2.6-2.7,6.9-2.8,9.6-0.2c0.1,0.1,0.1,0.1,0.2,0.2c1.9,2,2.1,4.6,2.1,12.5S148.4,689.3,146.6,691.4z M144,668.4
	c-0.5-0.7-1.4-1.1-2.3-1.1c-0.9,0-1.8,0.4-2.4,1.1c-1,1.4-1.2,3.7-1.2,10.4s0.2,9.1,1.2,10.4c0.6,0.7,1.5,1.1,2.4,1.1
	c0.9,0.1,1.8-0.4,2.3-1.1c1-1.4,1.2-3.7,1.2-10.4S145,669.8,144,668.4L144,668.4z"/>
<path class="st7" d="M164,693.1l-7.4-19.5v19.5h-3.4v-28.6h3.2l7.3,19.5v-19.5h3.4v28.6H164z"/>
<path class="st7" d="M178.8,667.6v25.5h-3.4v-25.5h-4.8v-3.1h13v3.1H178.8z"/>
<path class="st7" d="M197.5,693.1l-3.9-12.3h-3.1v12.3H187v-28.6h6.5c4.3,0,6.7,1.9,6.7,8.2c0,4-1,6.3-3.4,7.5l4.4,13L197.5,693.1z
	 M193.5,667.6h-3.1v10.2h3.1c2.6,0,3.2-2,3.2-5.1S196.2,667.6,193.5,667.6L193.5,667.6z"/>
<path class="st7" d="M215.9,693.1l-1.4-6.7h-6.6l-1.4,6.7h-3.6l6.7-28.6h3.3l6.6,28.6H215.9z M211.2,670.1l-2.7,13.2h5.3
	L211.2,670.1z"/>
<path class="st7" d="M233,691.9c-1.2,1.1-2.8,1.6-4.4,1.6c-1.9,0.1-3.7-0.7-4.9-2.1c-1.9-2.2-2.1-4.6-2.1-12.5s0.2-10.4,2.1-12.5
	c2.5-2.6,6.7-2.8,9.4-0.4c1.4,1.6,2.1,3.6,2,5.7h-3.4c0-1.2-0.3-2.3-0.9-3.3c-0.5-0.7-1.4-1-2.2-1c-0.9,0-1.8,0.4-2.4,1.1
	c-1,1.4-1.2,3.7-1.2,10.4s0.2,9.1,1.2,10.4c0.6,0.7,1.5,1.1,2.4,1.1c0.9,0,1.7-0.3,2.2-1c0.6-1,0.9-2.1,0.9-3.3h3.4
	C235.2,688.2,234.5,690.3,233,691.9z"/>
<path class="st7" d="M245.8,667.6v25.5h-3.4v-25.5h-4.8v-3.1h13v3.1H245.8z"/>
<line class="st8" x1="112.8" y1="596.6" x2="255.4" y2="596.6"/>
<path class="st7" d="M594.7,257.7h0.1c12.4-0.4,20.7-15.3,20.9-25.4c0-6.6-2.1-12.1-6.2-15.8c-3.7-3.3-8.8-5.1-14.7-5.1h-0.1
	c-6,0-11,1.8-14.7,5.1c-4.1,3.7-6.2,9.1-6.2,15.8C574.1,242.1,582.5,257.3,594.7,257.7z M594.8,253.6c-8-0.3-13.7-8.9-15.9-16
	c2.8,0.2,5.5,0.1,8.3-0.4c6.2-1,12.2-3.4,17.2-7.2c1.2,2.5,3.4,6,6.1,8C608.2,245.4,602.3,253.3,594.8,253.6L594.8,253.6z"/>
<path class="st7" d="M625.1,304.1h-60.6c-1.2-5.3-2-15-2-25.1c0-3.1,1.6-6.4,4.4-9.2c4.3-4.2,10.1-6.6,16.1-6.6h0.1
	c4.8,0,7.9,0,10.5-0.1c3.9-0.1,6.8-0.1,12.9,0.1c9.5,0.4,20.7,9,20.7,15.8C627.2,289.1,626.3,298.9,625.1,304.1z"/>
<path class="st7" d="M615.3,799.2c-0.2-0.9-0.5-1.7-1-2.5l-0.2-0.2l0,0l-0.1-0.1c-0.1-0.1-0.2-0.2-0.2-0.3l-0.3-0.3l0,0l-0.1-0.1
	l0-0.1l-0.3-0.3c-0.1-0.1-0.1-0.1-0.2-0.2l-0.3-0.2h-0.1l-0.2-0.2c-0.2-0.1-0.4-0.3-0.6-0.4c-0.1-0.1-0.3-0.1-0.4-0.2
	c0,0-0.1-0.1-0.1-0.1h-0.1h-0.1l-0.3-0.1l-0.2-0.1h-0.1l-0.2-0.1l-0.3-0.1h-0.2h-0.2l-0.2-0.1l-0.3-0.1l-0.3-0.1l-0.4-0.1h-0.2h-0.2
	c-0.2,0-0.5,0-0.7,0c-0.2,0-0.5,0-0.7,0h-0.1h-0.2c-0.2,0-0.3,0-0.5,0.1l-0.4,0.1l-0.3,0.1h-0.1h-0.1h-0.2l-0.3,0.1l0,0l-0.2,0.1
	h-0.2l0,0c0,0-0.1,0-0.2,0.1c-0.1,0-0.2,0.1-0.2,0.1l-0.1,0.1h-0.1l0,0l-0.1,0l-0.3,0.2c-0.2,0.1-0.5,0.3-0.7,0.5l-0.1,0.1h-0.1
	c-0.1,0.1-0.2,0.2-0.3,0.3c-0.1,0.1-0.1,0.1-0.2,0.2l0,0c-0.1,0-0.1,0.1-0.3,0.3l-0.1,0.2l0,0l-0.3,0.3l0,0l-0.1,0.1
	c-0.1,0.1-0.2,0.3-0.4,0.5c-0.5,0.8-0.8,1.6-1,2.4c-0.1,0.6-0.2,1.2-0.2,1.8c0,4.5,3.6,8.1,8.1,8.1c4.5,0,8.1-3.6,8.1-8.1
	c0-0.5,0-1-0.1-1.4L615.3,799.2z"/>
<path class="st7" d="M560,794.5l0.4-0.5c0-0.1,0.1-0.1,0-0.1l0,0l0.1-0.1c0.1-0.2,0.3-0.4,0.5-0.7v-0.1l0.1-0.1
	c0.1-0.1,0.2-0.3,0.4-0.5l0.1-0.1l0,0l0.2-0.2c0.2-0.2,0.3-0.3,0.4-0.3c0.1-0.1,0.3-0.2,0.5-0.3c0.3-0.2,0.7-0.5,1-0.7l0.5-0.3
	c0,0,0.2-0.1,0.4-0.2s0.3-0.2,0.6-0.3l0.4-0.2c0.2-0.1,0.4-0.2,0.5-0.2c0.1-0.1,0.3-0.1,0.5-0.1c0.2-0.1,0.4-0.1,0.7-0.2
	c0,0,0.1,0,0.4-0.1s0.6-0.1,0.8-0.1c0.1,0,0.2,0,0.4,0c0.4,0,0.8-0.1,1.1-0.1c0.4,0,0.7,0,1.1,0c0.1,0,0.2,0,0.3,0h0.1
	c0.2,0,0.4,0,0.8,0.1c0.1,0,0.2,0,0.3,0.1c0.2,0,0.4,0.1,0.7,0.2c0.2,0,0.4,0.1,0.5,0.2c0.2,0,0.4,0.1,0.5,0.2
	c0.2,0.1,0.4,0.2,0.5,0.2l0.5,0.3l0.5,0.2l0.3,0.2h0.1l0.1,0.1c0.2,0.2,0.5,0.4,0.9,0.6c0.2,0.1,0.3,0.2,0.5,0.3l0.4,0.4l0,0
	c0.1,0.1,0.2,0.1,0.3,0.2l0.5,0.5c0.1,0.1,0.2,0.2,0.2,0.3l0.4,0.5l0,0l0,0l0.1,0.1l0.1,0.1l0,0c0.2,0.3,0.3,0.5,0.4,0.6l0.2,0.2
	v0.1c0.4,0.6,0.7,1.2,0.9,1.9h0.1l0.3,1.2h14.5c0.3-1.2,0.8-2.4,1.5-3.4l0,0l0.4-0.7l0.1-0.1l0,0l0.1-0.1l0.5-0.7V793l0.2-0.1
	c0.1-0.2,0.3-0.3,0.4-0.4l0.1-0.1l0,0l0.2-0.2l0.4-0.3c0.1-0.1,0.3-0.3,0.4-0.3c0.3-0.2,0.7-0.5,1-0.7l0.5-0.3
	c0.1-0.1,0.3-0.2,0.5-0.2c0.1-0.1,0.3-0.2,0.5-0.3l0.4-0.2c0.2-0.1,0.4-0.2,0.5-0.2l0.4-0.1c0.2-0.1,0.5-0.1,0.7-0.2
	c0.1,0,0.2-0.1,0.4-0.1c0.3-0.1,0.5-0.1,0.8-0.1c0,0,0.1,0,0.3,0c0.4,0,0.8-0.1,1.2-0.1c0.4,0,0.7,0,1.1,0c0.1,0,0.2,0,0.3,0h0.4
	c0.2,0,0.4,0,0.8,0.1l0.3,0.1c0.2,0,0.5,0.1,0.7,0.2c0.2,0,0.3,0.1,0.5,0.2c0.2,0.1,0.3,0.1,0.5,0.2c0.2,0.1,0.4,0.2,0.5,0.2
	l0.5,0.3c0.2,0.1,0.3,0.2,0.5,0.2l0.3,0.2h0.1l0.1,0.1c0.3,0.2,0.6,0.4,0.8,0.6c0.2,0.1,0.3,0.2,0.5,0.3l0.4,0.4l0,0
	c0.1,0.1,0.2,0.1,0.2,0.2l0.4,0.5c0.1,0.1,0.2,0.2,0.3,0.3l0.4,0.5l0,0l0,0l0.1,0.1l0.1,0.1l0,0c0.2,0.3,0.3,0.5,0.4,0.7l0.2,0.2
	v0.1c0.4,0.6,0.7,1.2,0.9,1.9h0.1l0.3,1.2h10.7v-50.1H560V794.5z"/>
<path class="st7" d="M659,799.2c-0.2-0.9-0.5-1.7-1-2.5l-0.2-0.2l0,0l-0.1-0.1c-0.1-0.1-0.2-0.2-0.2-0.3l-0.3-0.3l0,0l-0.1-0.1
	l0-0.1l-0.3-0.3c-0.1,0-0.1-0.1-0.2-0.2l-0.3-0.2l-0.1,0l-0.2-0.2c-0.1-0.1-0.3-0.3-0.6-0.4c-0.2-0.1-0.3-0.2-0.5-0.2l-0.2-0.1h-0.1
	h-0.1l-0.2-0.1l-0.2-0.1h-0.1l-0.2-0.1c0,0-0.1,0-0.3-0.1h-0.2h-0.1l-0.2,0c0,0,0,0-0.3-0.1l-0.3-0.1c-0.1,0-0.3,0-0.4,0H652l0,0
	h-0.1c-0.2,0-0.5,0-0.7,0c-0.2,0-0.5,0-0.7,0h-0.1h-0.2l-0.5,0.1l-0.4,0.1l-0.3,0.1h-0.1h-0.1c0,0-0.1,0-0.2,0l-0.3,0.1l0,0
	l-0.2,0.1H648l0,0l-0.1,0.1l-0.2,0.1l-0.1,0.1h-0.1l0,0l-0.1,0l-0.3,0.2c-0.2,0.1-0.5,0.3-0.7,0.5l-0.1,0.1h-0.1l-0.3,0.3l-0.2,0.2
	l0,0l-0.3,0.3l-0.1,0.2h0l-0.3,0.3l0,0l-0.1,0.1c-0.1,0.1-0.2,0.3-0.3,0.5c-0.5,0.8-0.8,1.6-1,2.5c-0.2,0.6-0.2,1.2-0.2,1.8
	c0,4.5,3.6,8.1,8.1,8.1c4.5,0,8.1-3.6,8.1-8.1c0-0.5,0-0.9-0.1-1.4L659,799.2z"/>
<path class="st7" d="M577.8,799.2c-0.2-0.9-0.5-1.7-1-2.5l-0.2-0.2l0,0c0,0-0.1-0.1-0.1-0.1c-0.1-0.1-0.2-0.2-0.2-0.3l-0.3-0.4l0,0
	l-0.1-0.1v-0.1l-0.3-0.3c-0.1-0.1-0.1-0.1-0.2-0.2l-0.3-0.2l-0.1,0l-0.2-0.2c-0.2-0.1-0.4-0.3-0.6-0.4c-0.2-0.1-0.3-0.2-0.4-0.2
	l-0.1-0.1h-0.1h-0.1l-0.3-0.1l-0.2-0.1H573l-0.2-0.1l-0.3-0.1h-0.2h-0.2l-0.1,0l-0.3-0.1l-0.3-0.1l-0.4-0.1h-0.2h-0.2
	c-0.2,0-0.5,0-0.7,0c-0.2,0-0.5,0-0.7,0h-0.2H569c-0.2,0-0.3,0-0.5,0.1l-0.4,0.1l-0.3,0.1h-0.1h-0.1c-0.1,0-0.1,0-0.2,0l-0.3,0.1
	l0,0l-0.2,0.1h-0.2l-0.1,0.1l-0.2,0.1l-0.1,0.1h-0.1l0,0l-0.1,0l-0.3,0.2c-0.2,0.1-0.5,0.3-0.7,0.5l-0.1,0.1H565l-0.3,0.3l-0.2,0.2
	l0,0c-0.1,0.1-0.2,0.2-0.3,0.3l-0.2,0.2l0,0l-0.3,0.3l0,0l-0.1,0.1c-0.1,0.2-0.2,0.3-0.3,0.5c-0.5,0.8-0.8,1.6-1,2.5
	c-0.2,0.6-0.2,1.2-0.2,1.8c-0.2,4.5,3.3,8.2,7.8,8.4c4.5,0.2,8.2-3.3,8.4-7.8c0-0.2,0-0.4,0-0.6c0-0.5,0-1-0.1-1.4L577.8,799.2z"/>
<path class="st7" d="M655,757.9h-19.6v40.2h4.2c0.3-1.2,0.8-2.4,1.5-3.4l0,0c0.1-0.2,0.3-0.4,0.5-0.7v-0.1v-0.1l0,0
	c0.1-0.2,0.3-0.4,0.5-0.7v-0.1l0.1-0.1c0.1-0.2,0.3-0.3,0.4-0.4l0.1-0.1l0,0l0.2-0.2c0.2-0.2,0.3-0.3,0.4-0.3
	c0.1-0.1,0.3-0.2,0.4-0.3c0.3-0.2,0.7-0.5,1-0.7c0.1,0,0.2-0.1,0.5-0.3c0,0,0.2-0.1,0.4-0.2l0.5-0.3l0.4-0.2
	c0.2-0.1,0.4-0.2,0.5-0.2l0.5-0.1c0.2-0.1,0.4-0.1,0.7-0.2c0,0,0.1,0,0.4-0.1c0.3-0.1,0.5-0.1,0.8-0.1c0,0,0.1,0,0.3,0
	c0.4,0,0.8-0.1,1.2-0.1c0.4,0,0.7,0,1.1,0h0.3h0.1c0.2,0,0.4,0,0.8,0.1l0.3,0.1c0.2,0,0.5,0.1,0.7,0.2l0.5,0.1
	c0.1,0,0.3,0.1,0.5,0.2l0.5,0.2l0.5,0.3c0.2,0.1,0.4,0.2,0.5,0.2l0.3,0.2h0.1l0.1,0.1c0.3,0.2,0.6,0.4,0.9,0.6
	c0.2,0.1,0.3,0.2,0.5,0.3c0.1,0.1,0.2,0.2,0.4,0.4c0.1,0.1,0.2,0.1,0.3,0.2l0.4,0.5c0.1,0.1,0.2,0.2,0.3,0.3l0.4,0.5l0,0l0,0
	l0.1,0.1l0.1,0.1l0,0c0.2,0.3,0.3,0.5,0.4,0.6l0.2,0.3v0.1c0.4,0.6,0.7,1.2,0.9,1.9h0.1l0.3,1.2h5.5v-21L655,757.9z M653.5,760.7
	l9.3,13.7h-21v-13.7L653.5,760.7z"/>
<path class="st7" d="M166.7,500.5v-74.3h-11.6v35.5h-9.4l-0.1-15.6l-20.1,18l-0.1-18l-20,17.9l-0.1-17.8l-16,14.4l-0.1,39.9h56.5
	v-15.4h9.4v15.4H166.7z M126.3,483.9v1.3h-20.1v-9.5h20.1V483.9z"/>
<path class="st7" d="M268.7,756.9l-3.4,3.8l-4.8-2.1L215,768l1,5l7.9-1.6l12.9,21.7l25.2-5.7v-22.5l4.5,2l3-3.3l8.8,20.4l25.4-4.7
	l3.3-25.1l7.9-1.6l-1-5L268.7,756.9z M281.5,778.2l-7.4-17.2l27.6-5.7l-2.5,19.6L281.5,778.2z M239.4,787.3l-10.1-17l27.6-5.7v18.7
	L239.4,787.3z"/>
<path class="st9" d="M433.5,428.6c-0.7,0.4-1.4,0.8-2.2,1.2c-2.3,1.1-4.6,2.3-6.8,3.7c-2.3,1.5-3.7,3.1-3.7,4.9c0,2,1.9,3.2,5.8,3.2
	c2.8,0,5.6-0.3,8.3-0.9v2.9c-2.7,0.5-5.4,0.7-8.2,0.6c-5,0-8.6-1.5-8.6-5.6c0-2.7,1.7-4.9,4.4-6.7c-1.2-2.2-2.5-5-3.7-7.8l2.6-1.1
	c0.9,2.5,2,5,3.3,7.4c2.1-1.2,4.2-2.3,5.5-3c0.7-0.4,1.4-0.8,2-1.4L433.5,428.6z M434,422.8c0.8,1.2,1.5,2.4,2.1,3.6l-1.7,0.8
	c-0.6-1.3-1.3-2.5-2.1-3.6L434,422.8z M436.9,421.7c0.8,1.1,1.5,2.3,2.2,3.5l-1.7,0.8c-0.6-1.3-1.3-2.5-2.1-3.6L436.9,421.7z"/>
<path class="st9" d="M455.1,424.9c-1.2,1.8-3.5,5.9-4.8,8.3c1-0.8,2.2-1.2,3.4-1.2c1.8,0,3,1.2,3.1,3.3c0,1.4,0,3.4,0.1,4.5
	c0,0.9,0.8,1.6,1.7,1.6c0.1,0,0.1,0,0.2,0c2.6,0,4.2-3.2,4.9-6.2l2.2,1.8c-1.4,4.3-3.6,7.2-7.5,7.2c-2.8,0-3.9-1.7-4-3.4
	c-0.1-1.5-0.1-3.5-0.1-4.8c0-0.9-0.7-1.6-1.5-1.6c-0.1,0-0.1,0-0.2,0c-1.9,0-3.6,2-4.6,4c-0.8,1.9-1.5,3.8-2.1,5.8l-2.9-1
	c1.9-5.2,7.5-16,8.9-18.5c0.3-0.6,0.7-1.4,1.1-2.3l2.9,1.2C455.7,424,455.4,424.4,455.1,424.9z"/>
<path class="st9" d="M483.4,427.8c-1.5,0.4-3,0.7-4.6,0.9c-1.4,3.9-3.2,7.6-5.6,11l-2.5-1.3c2.2-2.8,4.1-6,5.4-9.4
	c-0.6,0-1.2,0-1.9,0c-1,0-2,0-3.1-0.1l-0.2-2.4c1,0.1,2.2,0.1,3.3,0.1c0.9,0,1.8,0,2.7-0.1c0.4-1.4,0.7-2.9,0.8-4.4l2.8,0.3
	c-0.2,0.9-0.5,2.3-0.9,3.8c1.3-0.2,2.5-0.5,3.8-0.9L483.4,427.8z M486.6,430.5c-0.1,1.1,0,2,0,3c0,0.8,0.1,2.3,0.2,3.8
	c2,0.7,3.8,1.8,5.3,3.2l-1.4,2.2c-1.2-1.1-2.5-2.1-3.9-2.9v0.7c0,2.2-1.3,4-4.7,4c-3,0-5.4-1.3-5.4-4c0-2.4,2.2-4.1,5.4-4.1
	c0.7,0,1.4,0.1,2.2,0.2c-0.1-2-0.2-4.5-0.3-6.1L486.6,430.5z M484.4,438.8c-0.8-0.2-1.6-0.3-2.4-0.3c-1.7,0-2.8,0.8-2.8,1.8
	s0.9,1.8,2.6,1.8c1.9,0,2.6-1.1,2.6-2.4C484.4,439.5,484.4,439.2,484.4,438.8L484.4,438.8z M491.4,431.5c-1.9-1.4-3.9-2.6-6-3.6
	l1.3-2c2.1,1,4.2,2.1,6.2,3.5L491.4,431.5z"/>
<path class="st9" d="M413.9,447.8v-1.3h82v1.3H413.9z"/>
<path class="st9" d="M407.8,476.2c-0.3,0.9-0.4,1.9-0.5,2.8c0,1.8,1.8,3.1,5.7,3.1c3,0,6-0.3,8.9-1v2.8c-2.9,0.6-5.9,0.9-8.9,0.9
	c-5.5,0-8.5-1.8-8.5-5.2c0-1.2,0.2-2.5,0.5-3.6L407.8,476.2z M406.2,465.6c2.3,0.2,4.6,0.3,6.9,0.3c2.4,0,4.8-0.1,7.2-0.4v2.7
	c-1.8,0.1-4.8,0.3-7.1,0.3c-2.7,0-4.9-0.1-6.9-0.3V465.6z"/>
<path class="st9" d="M448.4,468.8c-0.6,0.4-1.4,0.8-2.2,1.2c-2.6,1.2-5.1,2.6-7.5,4.1c-2.3,1.5-3.7,3.1-3.7,5s1.9,3.2,5.8,3.2
	c2.8,0,5.6-0.3,8.3-0.9v2.9c-2.7,0.5-5.4,0.7-8.2,0.6c-5,0-8.6-1.5-8.6-5.6c0-2.7,1.7-4.8,4.4-6.7c-1.2-2.2-2.5-5.1-3.7-7.8l2.6-1
	c0.9,2.5,2.1,5,3.4,7.4c2.3-1.4,4.8-2.6,6.1-3.4c0.7-0.4,1.4-0.8,2.1-1.4L448.4,468.8z"/>
<path class="st9" d="M462.2,464.4c-0.2,0.7-0.4,1.3-0.5,2c-0.7,3.2-1.1,6.4-1.3,9.7c0,0.9,0.1,1.8,0.2,2.7c0.4-1,0.9-2.3,1.3-3.2
	l1.4,1c-0.7,2-1.4,4-1.9,6c-0.1,0.4-0.1,0.8-0.1,1.2c0,0.3,0,0.6,0,1l-2.3,0.2c-0.7-2.7-1-5.5-1-8.3c0.1-3.4,0.5-6.9,1.1-10.3
	c0.1-0.7,0.2-1.4,0.2-2.1L462.2,464.4z M468.1,477c-0.2,0.7-0.3,1.5-0.3,2.3c0,1.2,0.9,2.1,4,2.1c2.2,0,4.3-0.2,6.4-0.7v2.8
	c-2.2,0.4-4.3,0.6-6.5,0.5c-4.4,0-6.4-1.5-6.4-4c0-1.1,0.2-2.1,0.4-3.2L468.1,477z M477.5,466.2v2.7c-3.6,0.3-7.2,0.3-10.8,0v-2.6
	C470.3,466.7,473.9,466.7,477.5,466.2L477.5,466.2z"/>
<path class="st9" d="M502.4,472.9c1.7,2.1,2.6,3.9,2.6,6.1c0,3.9-3.5,6.4-8.8,6.4c-3.8,0-6.6-1.7-6.6-5.9c0-0.7,0.1-1.6,0.2-2.8
	c-1.7-0.1-3.5-0.4-5.1-0.9l0.1-2.5c1.7,0.5,3.5,0.9,5.3,1c0.2-1.4,0.3-2.8,0.5-4.1c-1.8-0.2-3.6-0.5-5.3-0.9l0.1-2.4
	c1.8,0.5,3.6,0.9,5.5,1c0.1-0.9,0.2-1.8,0.2-2.4c0.1-0.7,0.1-1.3,0-2l2.9,0.1c-0.2,0.8-0.3,1.4-0.4,2l-0.3,2.3c1.7,0,3.3-0.1,5-0.3
	l-0.1,2.5c-1.7,0.2-3.4,0.3-5.2,0.3l0,0c-0.2,1.3-0.4,2.8-0.5,4.1h0.4c1.8,0,3.5-0.1,5.3-0.3l-0.1,2.4c-1.6,0.2-3.2,0.3-4.8,0.3h-1
	c-0.1,0.9-0.1,1.7-0.1,2.2c0,2.3,1.4,3.7,4.1,3.7c3.8,0,6-1.6,6-4.1c-0.1-2-1.1-3.9-2.7-5.1L502.4,472.9z"/>
<path class="st9" d="M400.2,488.6v-1.3h109.3v1.3H400.2z"/>
<path class="st9" d="M398,510.4c-0.4,2.7-1.1,5.3-2.2,7.8c1,1.4,2,2.8,2.8,4.3l-2,1.6c-0.6-1.2-1.2-2.4-2-3.5
	c-1.4,2.5-3.3,4.6-5.6,6.1c-0.5-0.7-1-1.3-1.6-1.9c2.5-1.5,4.5-3.7,5.8-6.3c-1.4-1.9-2.9-3.7-4.5-5.4l1.7-1.4
	c1.2,1.3,2.5,2.8,3.8,4.3c0.7-2,1.1-4,1.4-6L398,510.4z M411.5,511.5h-2.9v12.4c0,1.5-0.3,2.2-1.2,2.6c-1.4,0.4-3,0.6-4.5,0.5
	c-0.2-0.9-0.4-1.8-0.8-2.6c1.6,0.1,3,0.1,3.4,0s0.6-0.1,0.6-0.6v-12.4h-6.8v-2H388v-2.2h4.7v-4.1h2.3v4.1h5v1.9h6v-6h2.4v6h2.9
	L411.5,511.5z M402.1,520.5c-0.6-2-1.6-3.9-2.7-5.7l2-0.9c1.2,1.7,2.2,3.6,2.8,5.6L402.1,520.5z"/>
<path class="st9" d="M419.5,512.9c0,4-0.4,10.1-2.6,14.1c-0.6-0.5-1.3-1-2.1-1.4c2.1-3.7,2.3-9,2.3-12.7v-6.6h9.4v-3.2h2.6v3.2h9.6
	v2.3h-19.2V512.9z M419.3,523.7c1.2-2.4,2-5.1,2.1-7.9l2.2,0.5c-0.3,2.8-0.9,6.3-2.2,8.3L419.3,523.7z M431.3,524.4
	c0.9,0,1.1-0.7,1.2-4.3c0.7,0.4,1.4,0.8,2.1,1c-0.2,4.3-0.9,5.5-3.1,5.5h-3.4c-2.5,0-3.1-0.8-3.1-3.2v-9.5h2.4v9.5
	c0,0.9,0.2,1.1,1.1,1.1L431.3,524.4z M431.3,514.8c-1.8-1.6-3.9-2.9-6-4l1.6-1.6c2.2,1,4.2,2.3,6.1,3.8L431.3,514.8z M435.5,515.2
	c1.7,2.6,2.9,5.5,3.7,8.5l-2.4,1c-0.7-3-1.8-5.9-3.4-8.6L435.5,515.2z"/>
<path class="st9" d="M450.5,504.6c-0.2,0.9-0.2,2-0.3,2.9c-0.1,2.9-0.3,8.8-0.3,12.4c0,2.7,1.7,3.6,3.9,3.6c4.5,0,7.2-2.5,9-5.3
	l1.9,2.3c-2.5,3.6-6.6,5.8-11,5.8c-3.9,0-6.6-1.7-6.6-6c0-3.7,0.3-10.3,0.3-12.8c0-1-0.1-2-0.3-3L450.5,504.6z"/>
<path class="st9" d="M489.6,524.8c-1.7-1.6-3.6-2.8-5.8-3.8c0,0.5,0,1,0,1.3c0,2-1.4,3.8-4.8,3.8c-3.9,0-6-1.4-6-4
	c0-2.4,2.3-4.2,6.2-4.2c0.6,0,1.3,0,1.9,0.1c0-1-0.1-2-0.1-2.9h-1.4c-1.6,0-4.5-0.1-6.4-0.3v-2.5c2.1,0.3,4.2,0.5,6.3,0.5h1.3v-3.3
	h-1.3c-2,0-3.9-0.2-5.9-0.4v-2.4c1.9,0.3,3.9,0.5,5.8,0.5h1.3v-1.5c0-0.5,0-1.1-0.1-1.6h2.8c0,0.5-0.1,1-0.1,1.7c0,0.3,0,0.8,0,1.3
	c2.2-0.1,4.3-0.3,6.4-0.6v2.4c-1.9,0.2-4,0.4-6.5,0.5v3.3c2.5-0.1,4.8-0.4,7-0.7v2.5c-2.4,0.3-4.5,0.4-7,0.5c0,1.2,0.1,2.4,0.2,3.5
	c2.7,0.8,5.2,2.2,7.4,4L489.6,524.8z M481.3,520.3c-0.8-0.1-1.5-0.2-2.3-0.2c-2.2,0-3.4,0.8-3.4,1.9s1,1.8,3.2,1.8
	c1.5,0,2.5-0.4,2.5-2.1C481.3,521.4,481.3,520.9,481.3,520.3z"/>
<path class="st9" d="M520,509.9c-1.5-0.1-4-0.1-7.7-0.1c0,1.4,0,2.9,0,4c0.6,1,0.9,2.2,0.9,3.4c0,3.4-1.8,7.5-7.9,9.2l-2.2-2.2
	c3-0.7,5.4-1.8,6.6-3.7c-0.6,0.2-1.2,0.4-1.8,0.4c-2.4,0-4.3-1.9-4.3-4.3c0-0.1,0-0.1,0-0.2c0-2.6,2.1-4.7,4.7-4.6c0,0,0.1,0,0.1,0
	c0.5,0,1,0.1,1.4,0.2v-2.2c-3.9,0-8.1,0.2-11.3,0.4l-0.1-2.5c2.9,0,7.7-0.2,11.4-0.2c0-0.5,0-1,0-1.3c0-0.6-0.1-1.3-0.2-1.9h3
	c0,0.3-0.1,1.5-0.1,1.9s0,0.8,0,1.3h7.6V509.9z M508.4,518.7c1.3,0,2.3-1.1,2-3.5c-0.4-0.8-1.2-1.2-2-1.2c-1.3,0-2.3,1-2.3,2.3
	c0,0,0,0.1,0,0.1c0,1.2,1,2.3,2.2,2.3C508.3,518.7,508.3,518.7,508.4,518.7L508.4,518.7z"/>
<path class="st9" d="M386.6,529.5v-1.3h136.6v1.3H386.6z"/>
</svg>
