<svg xmlns="http://www.w3.org/2000/svg" viewBox="0 0 149.63 19.54"><defs><style>.cls-1{isolation:isolate;}.cls-2{fill:#fff;}</style></defs><g id="レイヤー_2" data-name="レイヤー 2"><g id="txt"><g class="cls-1"><path class="cls-2" d="M30.06,13.77V5.49C30.06,2.21,31.54,0,34.93,0S39.8,2.24,39.8,5.49v8.28c0,3.19-1.61,5.43-4.87,5.43S30.06,17,30.06,13.77Zm6.51,0V5.54c0-1.27-.18-2.77-1.64-2.77s-1.64,1.5-1.64,2.77v8.19c0,1.2.26,2.72,1.64,2.72S36.57,14.93,36.57,13.73Z"/><path class="cls-2" d="M46.49,2.68H41.44V.23h8.19V2.17L45.85,18.92H42.78Z"/><path class="cls-2" d="M56,2.68H51V.23h8.19V2.17L55.38,18.92H52.31Z"/><path class="cls-2" d="M61,13.5c0-2.17.81-3.63,2.24-4.43a4.71,4.71,0,0,1-2-4.11C61.27,1.89,62.81,0,65.9,0S70.52,1.92,70.47,5a4.65,4.65,0,0,1-1.94,4.11,4.74,4.74,0,0,1,2.24,4.43c0,3.41-1.27,5.67-4.87,5.67S61,16.89,61,13.5Zm6.63.18c0-1.59-.28-3.14-1.76-3.16s-1.77,1.55-1.77,3.16.25,3.07,1.77,3.07S67.66,15.16,67.66,13.68Zm-.23-8.84c0-1.38-.44-2.39-1.53-2.39s-1.57,1-1.57,2.37c0,1.73.4,3,1.57,3S67.43,6.55,67.43,4.84Z"/><path class="cls-2" d="M73.11,10.29h5.55v2.15H73.11Z"/><path class="cls-2" d="M81,13.57h3.11c0,1.91.26,3.23,1.76,3.2s1.66-1.68,1.66-4.17c0-2.17-.23-3.6-1.78-3.6-.9,0-1.47.64-1.75,1.64H81.27L81.46.23h8.4V3.09H84.13L84,7.59a3.55,3.55,0,0,1,2.47-1c3-.16,4.18,2.15,4.18,5.77,0,3.9-.84,6.81-4.87,6.81C82,19.2,81,17,81,13.57Z"/><path class="cls-2" d="M92.26,13.84V13.2h3.16v.55c0,1.78.37,2.77,1.73,2.77s1.69-1.09,1.69-2.93-.49-3.07-2.2-3.16h-.53V7.87h.49c1.68,0,2.24-.86,2.24-2.79,0-1.57-.37-2.52-1.73-2.52s-1.64,1.09-1.69,2.65v.67H92.26V5c0-3.19,1.73-5,4.85-5S102,1.78,102,4.94c0,2.24-1,3.69-2.47,4.1,1.47.49,2.47,1.87,2.47,4.48,0,3.39-1.34,5.68-4.87,5.68S92.26,17.1,92.26,13.84Z"/><path class="cls-2" d="M104.12,10.29h5.56v2.15h-5.56Z"/><path class="cls-2" d="M114.48,3.76c-.37.23-2.49.72-2.88.9V2.28a10.14,10.14,0,0,0,3.62-2h2.47V18.92h-3.21Z"/><path class="cls-2" d="M121,16.66l4.62-7.13c1-1.59,2-2.82,2-4.66,0-1.39-.46-2.17-1.52-2.17-1.5,0-1.87,1.38-1.87,3v.78h-3.14V5.63C121.06,2.31,122.45,0,126,0c3.18,0,4.8,1.83,4.8,4.87,0,2.33-1.11,3.83-2.31,5.68l-3.86,5.79h5.68v2.56H121Z"/><path class="cls-2" d="M132.39,13.84V13.2h3.16v.55c0,1.78.37,2.77,1.73,2.77S139,15.43,139,13.59s-.49-3.07-2.19-3.16h-.53V7.87h.48c1.68,0,2.24-.86,2.24-2.79,0-1.57-.37-2.52-1.73-2.52s-1.64,1.09-1.69,2.65v.67h-3.16V5c0-3.19,1.73-5,4.85-5s4.89,1.78,4.89,4.94c0,2.24-1,3.69-2.47,4.1,1.48.49,2.47,1.87,2.47,4.48,0,3.39-1.34,5.68-4.87,5.68S132.39,17.1,132.39,13.84Z"/><path class="cls-2" d="M146.42,3.76c-.37.23-2.49.72-2.88.9V2.28a10.14,10.14,0,0,0,3.62-2h2.47V18.92h-3.21Z"/></g><g id="グループ_28" data-name="グループ 28"><path id="パス_10" data-name="パス 10" class="cls-2" d="M15.25,7.75V4.15l-1.93.34V6H9.82V4.49L7.89,4.15v3.6H5.59L3,13.5v5.15a.85.85,0,0,0,.81.89h15.6a.86.86,0,0,0,.81-.89V13.5L17.52,7.75ZM11.57,17a3.27,3.27,0,1,1,3.27-3.27h0A3.26,3.26,0,0,1,11.57,17Z"/><path id="パス_11" data-name="パス 11" class="cls-2" d="M19.61,1.6a26.61,26.61,0,0,0-8-1.17,27.07,27.07,0,0,0-8,1.17C1.76,2.35,0,4,0,6A2.84,2.84,0,0,0,.67,7.86H4.41c.23,0,.72-1,.72-1.36a6.25,6.25,0,0,0-.37-1.66c0-.48.21-.84,1-1.17C7.16,3.07,10.27,3,11.57,3s4.41,0,5.82.63c.78.34,1,.69,1,1.17A5.87,5.87,0,0,0,18,6.5c0,.39.48,1.36.71,1.36h3.74A2.84,2.84,0,0,0,23.14,6C23.14,4,21.38,2.35,19.61,1.6Z"/></g></g></g></svg>