<?xml version="1.0" encoding="utf-8"?>
<!-- Generator: Adobe Illustrator 25.4.1, SVG Export Plug-In . SVG Version: 6.00 Build 0)  -->
<svg version="1.1" id="レイヤー_1" xmlns="http://www.w3.org/2000/svg" xmlns:xlink="http://www.w3.org/1999/xlink" x="0px"
	 y="0px" viewBox="0 0 60 24" style="enable-background:new 0 0 60 24;" xml:space="preserve">
<style type="text/css">
	.st0{fill:none;stroke:#FFFFFF;stroke-linecap:round;stroke-miterlimit:10;}
	.st1{fill:none;stroke:#FFFFFF;stroke-miterlimit:10;}
	.st2{fill:#FFFFFF;}
</style>
<g id="レイヤー_2_00000100361782766926594170000015242904641103883684_">
	<g id="txt">
		<path class="st0" d="M5.4,6.2h16.7c0.4,0,0.7,0.3,0.7,0.7v10.9c0,0.4-0.3,0.7-0.7,0.7H5.4c-0.4,0-0.7-0.3-0.7-0.7V6.9
			C4.7,6.5,5,6.2,5.4,6.2z"/>
		<path class="st1" d="M4.9,6.3l8.3,8.4c0.3,0.4,0.9,0.4,1.2,0c0,0,0,0,0,0l8.3-8.4"/>
		<line class="st1" x1="4.9" y1="18.4" x2="11.4" y2="13"/>
		<line class="st1" x1="22.7" y1="18.4" x2="16.2" y2="13"/>
		<path class="st2" d="M31.4,17.9V8.6h1.6v0.9c0.3-0.3,0.6-0.6,1-0.8c0.4-0.2,0.8-0.3,1.2-0.3c0.3,0,0.6,0.1,0.9,0.3
			c0.3,0.2,0.5,0.5,0.6,0.9c0.3-0.4,0.7-0.7,1.1-0.9c0.4-0.2,0.8-0.3,1.2-0.3c0.3,0,0.6,0.1,0.8,0.2c0.3,0.2,0.5,0.4,0.6,0.7
			c0.2,0.4,0.2,0.8,0.2,1.2v7.3H39v-7.2c0-0.3,0-0.6-0.2-0.9c-0.1-0.2-0.4-0.3-0.6-0.2c-0.3,0-0.5,0.1-0.7,0.2
			c-0.3,0.1-0.5,0.3-0.7,0.5v7.6h-1.6v-7.2c0-0.3,0-0.6-0.2-0.9c-0.1-0.2-0.4-0.3-0.6-0.2c-0.3,0-0.5,0.1-0.7,0.2
			c-0.3,0.1-0.5,0.3-0.7,0.5v7.6H31.4z"/>
		<path class="st2" d="M44.3,18c-0.4,0-0.7-0.1-1-0.3c-0.3-0.2-0.5-0.5-0.7-0.8c-0.2-0.3-0.2-0.7-0.2-1c0-0.5,0.1-1,0.3-1.5
			c0.2-0.4,0.5-0.7,0.8-1c0.4-0.3,0.8-0.5,1.2-0.7c0.4-0.2,0.9-0.4,1.4-0.6v-0.7c0-0.3,0-0.6-0.1-0.9c0-0.2-0.1-0.4-0.3-0.5
			c-0.2-0.1-0.4-0.2-0.6-0.2c-0.4,0-0.8,0.2-0.9,0.6c-0.1,0.2-0.1,0.5-0.1,0.7v0.5l-1.7-0.1c0-0.8,0.2-1.6,0.7-2.3
			c0.6-0.5,1.3-0.8,2.1-0.7c0.7-0.1,1.5,0.2,2,0.8c0.4,0.6,0.6,1.4,0.6,2.2v4.2c0,0.3,0,0.6,0,0.8s0,0.5,0.1,0.7
			c0.1,0.2,0,0.5,0.1,0.7h-1.5l-0.1-0.7c0-0.3-0.1-0.5-0.1-0.7c-0.1,0.4-0.3,0.7-0.6,1C45.2,17.9,44.8,18,44.3,18z M45,16.5
			c0.2,0,0.3,0,0.5-0.1c0.1-0.1,0.3-0.2,0.4-0.3c0.1-0.1,0.2-0.2,0.2-0.3v-2.6l-0.8,0.4c-0.2,0.1-0.4,0.3-0.6,0.5
			c-0.2,0.2-0.3,0.3-0.4,0.6c-0.1,0.2-0.2,0.5-0.2,0.7c0,0.3,0.1,0.6,0.2,0.9C44.5,16.4,44.7,16.5,45,16.5z"/>
		<path class="st2" d="M50,7.3V5.5h1.7v1.8H50z M50,17.9V8.6h1.7v9.3H50z"/>
		<path class="st2" d="M54.1,17.9v-13h1.7v13H54.1z"/>
	</g>
</g>
</svg>
