<svg xmlns="http://www.w3.org/2000/svg" xmlns:xlink="http://www.w3.org/1999/xlink" viewBox="0 0 211.2 45.55"><defs><style>.cls-1{fill:url(#新規グラデーションスウォッチ_1);}.cls-2,.cls-3{fill:none;stroke:#fff;stroke-miterlimit:10;}.cls-2{stroke-linecap:round;}.cls-4{fill:#fff;}</style><linearGradient id="新規グラデーションスウォッチ_1" x1="73.5" y1="-32.82" x2="137.7" y2="78.37" gradientUnits="userSpaceOnUse"><stop offset="0.19" stop-color="#276dc2"/><stop offset="1" stop-color="#27b9e2"/></linearGradient></defs><g id="レイヤー_2" data-name="レイヤー 2"><g id="txt"><rect class="cls-1" width="211.2" height="45.55" rx="22.76"/><path class="cls-2" d="M52.82,18.29H70.44a.77.77,0,0,1,.77.77V30.58a.78.78,0,0,1-.78.78H52.82a.78.78,0,0,1-.78-.78V19.06A.77.77,0,0,1,52.82,18.29Z"/><path class="cls-3" d="M52.24,18.45,61,27.33a1,1,0,0,0,1.34,0L71,18.45"/><line class="cls-3" x1="52.24" y1="31.09" x2="59.08" y2="25.41"/><line class="cls-3" x1="71.02" y1="31.09" x2="64.18" y2="25.41"/><path class="cls-4" d="M85.18,24.79a11.18,11.18,0,0,1,3-.45c2.17,0,3.8,1.16,3.8,3s-1,2.94-3.15,3.46A9.12,9.12,0,0,1,87,31l-.53-1.47a10,10,0,0,0,1.75-.1c1.22-.22,2.3-.87,2.3-2.11s-1-1.73-2.34-1.73a9.75,9.75,0,0,0-3,.48c0,1.21.06,2.43.06,3,0,1.54-.58,2-1.43,2-1.27,0-3.21-1.14-3.21-2.56,0-1.23,1.49-2.52,3.21-3.27v-.91c0-.52,0-1.06,0-1.61a8.3,8.3,0,0,1-.95.05c-.65,0-1.34,0-1.92-.07l0-1.42a15.05,15.05,0,0,0,1.93.12l1,0c0-.66,0-1.19,0-1.46a10.38,10.38,0,0,0-.08-1.15h1.59c0,.28-.08.77-.09,1.12s0,.83-.06,1.34a16.59,16.59,0,0,0,2.87-.56l0,1.45c-.84.19-1.92.36-2.93.48,0,.59,0,1.17,0,1.68Zm-1.27,4.08c0-.46,0-1.3,0-2.24-1.06.52-1.8,1.25-1.8,1.84s.86,1.08,1.36,1.08C83.74,29.55,83.91,29.36,83.91,28.87Zm5.86-8.48a26.84,26.84,0,0,1,3.45,2.09l-.72,1.18a21.27,21.27,0,0,0-3.37-2.15Z"/><path class="cls-4" d="M98.08,24.1v7.66H96.73V18.83h5.42V24.1Zm0-4.18v1h2.77v-1ZM100.85,23V21.92H98.08V23Zm.34,6.66v.86H99.92V25.28h5.56v4.41Zm0-3.26v2.13h3V26.43ZM108.86,30c0,.82-.19,1.25-.72,1.49a8.5,8.5,0,0,1-2.74.23,4.63,4.63,0,0,0-.47-1.4c.93.05,1.89,0,2.18,0s.35-.1.35-.37V24.11h-4.15V18.83h5.55ZM104.62,19.9V21h2.84V19.9ZM107.46,23V21.92h-2.84V23Z"/><path class="cls-4" d="M119.54,18.27a16.41,16.41,0,0,0,6.38,5.14,6.3,6.3,0,0,0-.9,1.22,19,19,0,0,1-2.39-1.49v1.05H115.3v-1a19.67,19.67,0,0,1-2.37,1.5,5,5,0,0,0-.84-1.09,16.22,16.22,0,0,0,6-5.33Zm-5.08,7.58h9.07v5.92h-1.4V31.2H115.8v.57h-1.34ZM122.38,23a16.9,16.9,0,0,1-3.47-3.36A15.8,15.8,0,0,1,115.6,23Zm-6.58,4.12V30h6.33V27.09Z"/><path class="cls-4" d="M133.88,21.61c-.2.27-.46.68-.7,1.05,0,.23,0,.48-.06.72a7.26,7.26,0,0,1,4.48-1.68,3.76,3.76,0,0,1,3.92,3.78c0,2.95-2,4.58-5.39,5.25l-.66-1.4C138,29,140,27.87,140,25.45a2.47,2.47,0,0,0-2.62-2.4A6.42,6.42,0,0,0,133,25c0,.53,0,1,0,1.5,0,1.27,0,2.31.06,3.64,0,.26.05.69.08,1h-1.59c0-.25.05-.72.05-.95,0-1.36,0-2.2.06-3.82-.68,1-1.53,2.27-2.15,3.11l-.92-1.28c.81-1,2.4-3.11,3.19-4.29l.07-1.26c-.68.08-1.87.25-2.75.37l-.15-1.51c.37,0,.68,0,1.09,0s1.2-.12,1.91-.22c0-.64.08-1.11.08-1.27a6,6,0,0,0-.08-1.18l1.72.06c-.07.37-.19,1.15-.29,2.09Z"/><path class="cls-4" d="M155,19.2a7.48,7.48,0,0,0-.08,1.15c0,.61,0,1.25,0,1.82l1.38-.1c.4,0,.89-.05,1.25-.09v1.44c-.23,0-.88,0-1.25,0s-.87,0-1.41.07a22.49,22.49,0,0,1-.22,3c-.13.7-.47.89-1.18.89a17.77,17.77,0,0,1-2-.22l0-1.28a11,11,0,0,0,1.4.17c.32,0,.47,0,.51-.35a17.74,17.74,0,0,0,.13-2.11c-1.4.11-3,.27-4.34.4,0,1.43,0,2.87,0,3.46,0,1.5.1,2,2.47,2a29.88,29.88,0,0,0,4.35-.35L156,30.65c-1,.11-2.77.24-4.21.24-3.55,0-3.93-.8-4-3.2,0-.62,0-2.1,0-3.53-.55.06-1,.1-1.31.15s-1.21.16-1.59.22L144.67,23c.45,0,1.05,0,1.65-.09l1.42-.13V21a10.62,10.62,0,0,0-.09-1.4h1.62a10.28,10.28,0,0,0-.08,1.32c0,.42,0,1,0,1.73,1.34-.14,2.92-.28,4.37-.42V20.39a10.2,10.2,0,0,0-.1-1.19Z"/></g></g></svg>