<?xml version="1.0" encoding="utf-8"?>
<!-- Generator: Adobe Illustrator 25.4.1, SVG Export Plug-In . SVG Version: 6.00 Build 0)  -->
<svg version="1.1" id="レイヤー_1" xmlns="http://www.w3.org/2000/svg" xmlns:xlink="http://www.w3.org/1999/xlink" x="0px"
	 y="0px" viewBox="0 0 168 24" style="enable-background:new 0 0 168 24;" xml:space="preserve">
<style type="text/css">
	.st0{fill:#FFFFFF;}
</style>
<g id="レイヤー_2_00000073681934730819623440000017298310821342357155_">
	<g id="txt">
		<g id="_0120-900-258">
			<g>
				<path class="st0" d="M41,21.3c-0.9,0-1.8-0.2-2.6-0.7c-0.7-0.5-1.2-1.2-1.5-2c-0.3-0.9-0.5-1.9-0.5-2.8v-8c0-1,0.1-2,0.5-2.9
					c0.3-0.8,0.8-1.5,1.5-1.9c0.8-0.5,1.7-0.7,2.6-0.7c0.9,0,1.8,0.2,2.6,0.7c0.7,0.5,1.2,1.1,1.5,1.9c0.3,0.9,0.5,1.9,0.5,2.9v8.1
					c0,1-0.1,1.9-0.5,2.9c-0.3,0.8-0.8,1.5-1.5,2C42.9,21.1,41.9,21.4,41,21.3z M41,19.3c0.5,0,1-0.2,1.3-0.5
					c0.3-0.4,0.5-0.8,0.6-1.3c0.1-0.5,0.2-1.1,0.2-1.6V7.7c0-0.6,0-1.1-0.2-1.7c-0.1-0.5-0.3-0.9-0.6-1.3C42,4.4,41.5,4.2,41,4.3
					c-0.5,0-1,0.1-1.4,0.5C39.3,5.1,39.1,5.5,39,6c-0.1,0.6-0.2,1.1-0.2,1.7v8.1c0,0.6,0.1,1.1,0.2,1.7c0.1,0.5,0.3,0.9,0.6,1.3
					C40,19.1,40.5,19.3,41,19.3L41,19.3z"/>
				<path class="st0" d="M50.9,21.1V5.7c-0.2,0.1-0.3,0.1-0.5,0.1C50.1,5.9,49.7,6,49.3,6l-1.1,0.2l-0.5,0.1V4.5
					c0.3-0.1,0.6-0.1,0.9-0.2s0.7-0.2,1.1-0.4c0.4-0.2,0.7-0.4,1-0.6C51,3,51.3,2.7,51.5,2.4h1.9v18.7H50.9z"/>
				<path class="st0" d="M57.1,21.1v-1.8l4.8-7.4c0.4-0.6,0.7-1.1,1-1.5c0.3-0.5,0.6-1,0.7-1.5c0.2-0.6,0.3-1.2,0.3-1.8
					c0-0.7-0.1-1.4-0.4-2c-0.3-0.5-0.9-0.8-1.5-0.8c-0.5,0-1,0.1-1.4,0.5C60.3,5.1,60,5.5,59.9,6c-0.1,0.6-0.2,1.1-0.2,1.7v0.6h-2.5
					V7.7c0-1,0.1-2,0.5-2.9C58,4,58.5,3.4,59.2,2.9c0.8-0.5,1.7-0.7,2.7-0.7c1.3-0.1,2.5,0.4,3.4,1.3c0.8,1,1.1,2.3,1.1,3.5
					c0,0.7-0.1,1.4-0.3,2.1c-0.2,0.6-0.4,1.2-0.7,1.7c-0.3,0.5-0.6,1.1-1,1.6L60,19h5.9v2.1H57.1z"/>
				<path class="st0" d="M73.1,21.3c-0.9,0-1.8-0.2-2.6-0.7c-0.7-0.5-1.2-1.2-1.5-2c-0.3-0.9-0.5-1.9-0.5-2.8v-8c0-1,0.1-2,0.5-2.9
					c0.3-0.8,0.8-1.5,1.5-1.9C72.1,2,74.1,2,75.8,3c0.7,0.5,1.2,1.1,1.5,1.9c0.3,0.9,0.5,1.9,0.5,2.9v8.1c0,1-0.2,1.9-0.5,2.9
					c-0.3,0.8-0.8,1.5-1.5,2C75,21.1,74.1,21.4,73.1,21.3z M73.1,19.3c0.5,0,1-0.2,1.3-0.5c0.3-0.4,0.5-0.8,0.6-1.3
					c0.1-0.6,0.2-1.1,0.2-1.7V7.7c0-0.6,0-1.1-0.2-1.7c-0.1-0.5-0.3-0.9-0.6-1.3c-0.4-0.4-0.9-0.5-1.4-0.5c-0.5,0-1,0.1-1.4,0.5
					c-0.3,0.4-0.5,0.8-0.6,1.3C71,6.6,71,7.1,71,7.7v8.1c0,0.6,0.1,1.1,0.2,1.7c0.1,0.5,0.3,0.9,0.6,1.3
					C72.1,19.1,72.6,19.3,73.1,19.3L73.1,19.3z"/>
				<path class="st0" d="M80.2,15.1v-1.8h5.1v1.9L80.2,15.1z"/>
				<path class="st0" d="M92.1,21.3c-0.9,0-1.7-0.2-2.5-0.5c-0.7-0.3-1.2-0.9-1.6-1.6c-0.4-0.8-0.6-1.6-0.6-2.5v-0.2H90
					c0,0.7,0.1,1.4,0.4,2.1c0.4,0.5,1,0.8,1.7,0.7c0.4,0,0.8-0.1,1.1-0.4c0.4-0.4,0.6-0.8,0.7-1.3c0.2-0.7,0.3-1.5,0.3-2.3v-2.8
					c-0.2,0.4-0.6,0.7-1,0.9c-0.5,0.3-1.1,0.4-1.7,0.4c-0.9,0-1.7-0.2-2.4-0.7c-0.6-0.5-1.1-1.1-1.3-1.9c-0.3-0.9-0.4-1.9-0.4-2.8
					c0-1,0.1-2.1,0.5-3.1c0.3-0.9,0.8-1.6,1.5-2.2c0.8-0.6,1.7-0.9,2.7-0.8c0.9,0,1.9,0.2,2.6,0.8c0.7,0.6,1.2,1.3,1.5,2.2
					c0.3,1,0.5,2,0.5,3.1v6.3c0,1.1-0.2,2.3-0.5,3.3c-0.2,0.9-0.7,1.8-1.4,2.4C94.1,21,93.1,21.4,92.1,21.3z M92.1,11.9
					c0.5,0,0.9-0.1,1.3-0.4c0.3-0.2,0.6-0.5,0.8-0.9V7.8c0-0.6-0.1-1.2-0.2-1.8c-0.1-0.5-0.3-0.9-0.6-1.3c-0.3-0.3-0.8-0.5-1.3-0.5
					c-0.5,0-0.9,0.2-1.3,0.5c-0.3,0.3-0.6,0.8-0.7,1.2C90.1,6.6,90,7.1,90,7.7c0,0.7,0,1.4,0.1,2c0,0.5,0.2,1.1,0.6,1.5
					C91,11.7,91.6,11.9,92.1,11.9z"/>
				<path class="st0" d="M104.1,21.3c-0.9,0-1.8-0.2-2.6-0.7c-0.7-0.5-1.2-1.2-1.5-2c-0.3-0.9-0.5-1.9-0.5-2.8v-8c0-1,0.1-2,0.5-2.9
					c0.3-0.8,0.8-1.5,1.5-1.9c0.8-0.5,1.7-0.7,2.7-0.7c0.9,0,1.8,0.2,2.6,0.7c0.7,0.5,1.2,1.2,1.5,1.9c0.3,0.9,0.5,1.9,0.5,2.9v8.1
					c0,1-0.1,1.9-0.5,2.9c-0.3,0.8-0.8,1.5-1.5,2C105.9,21.1,105,21.4,104.1,21.3z M104.1,19.3c0.5,0,1-0.2,1.3-0.5
					c0.3-0.4,0.5-0.8,0.6-1.3c0.1-0.5,0.2-1.1,0.2-1.6V7.7c0-0.6,0-1.1-0.2-1.7c-0.1-0.5-0.3-0.9-0.6-1.3c-0.4-0.3-0.9-0.5-1.3-0.5
					c-0.5,0-1,0.1-1.4,0.5c-0.3,0.4-0.5,0.8-0.6,1.3c-0.1,0.6-0.2,1.1-0.2,1.7v8.1c0,0.6,0.1,1.1,0.2,1.7c0.1,0.5,0.3,0.9,0.7,1.3
					C103.1,19.1,103.6,19.3,104.1,19.3L104.1,19.3z"/>
				<path class="st0" d="M116,21.3c-0.9,0-1.8-0.2-2.6-0.7c-0.7-0.5-1.2-1.2-1.5-2c-0.3-0.9-0.5-1.9-0.5-2.8v-8c0-1,0.1-2,0.5-2.9
					c0.3-0.8,0.8-1.5,1.5-1.9C115,2,117,2,118.6,3c0.7,0.5,1.2,1.1,1.5,1.9c0.3,0.9,0.5,1.9,0.5,2.9v8.1c0,1-0.1,1.9-0.5,2.9
					c-0.3,0.8-0.8,1.5-1.5,2C117.8,21.1,116.9,21.4,116,21.3z M116,19.3c0.5,0,1-0.2,1.3-0.5c0.3-0.4,0.5-0.8,0.6-1.3
					c0.1-0.5,0.2-1.1,0.2-1.6V7.7c0-0.6,0-1.1-0.2-1.7c-0.1-0.5-0.3-0.9-0.6-1.3c-0.4-0.3-0.9-0.5-1.3-0.5c-0.5,0-1,0.1-1.4,0.5
					c-0.3,0.4-0.5,0.8-0.6,1.3c-0.1,0.6-0.2,1.1-0.2,1.7v8.1c0,0.6,0.1,1.1,0.2,1.7c0.1,0.5,0.3,0.9,0.7,1.3
					C115,19.1,115.5,19.3,116,19.3L116,19.3z"/>
				<path class="st0" d="M123.1,15.1v-1.8h5.1v1.9L123.1,15.1z"/>
				<path class="st0" d="M130.3,21.1v-1.8L135,12l1-1.5c0.3-0.5,0.6-1,0.7-1.5c0.2-0.6,0.3-1.2,0.3-1.8c0-0.7-0.1-1.4-0.4-2
					c-0.3-0.5-0.9-0.8-1.5-0.8c-0.5,0-1,0.1-1.4,0.5c-0.3,0.3-0.6,0.8-0.7,1.3C133,6.6,133,7.1,133,7.7v0.6h-2.5V7.7
					c0-1,0.1-2,0.5-2.9c0.3-0.8,0.8-1.4,1.5-1.9c0.8-0.5,1.7-0.7,2.7-0.7c1.3-0.1,2.5,0.4,3.4,1.3c0.8,1,1.2,2.3,1.1,3.5
					c0,0.7-0.1,1.4-0.3,2.1c-0.2,0.6-0.4,1.2-0.8,1.7c-0.3,0.5-0.6,1.1-1,1.6l-4.3,6.6h5.9v2.1L130.3,21.1z"/>
				<path class="st0" d="M146,21.3c-0.9,0-1.9-0.2-2.7-0.6c-0.7-0.4-1.2-1.1-1.4-1.9c-0.3-0.9-0.4-1.9-0.4-2.9h2.5
					c0,0.5,0,1.1,0.1,1.6c0.1,0.5,0.3,0.9,0.6,1.3c0.4,0.4,0.9,0.6,1.4,0.5c0.6,0.1,1.1-0.2,1.4-0.6c0.3-0.5,0.5-1,0.6-1.6
					c0.1-0.8,0.1-1.5,0.1-2.3c0-0.7,0-1.4-0.1-2.2c0-0.5-0.3-1-0.6-1.4c-0.4-0.3-0.9-0.5-1.4-0.5c-0.5,0-0.9,0.2-1.3,0.5
					c-0.3,0.3-0.6,0.7-0.8,1.1h-2.1v-10h8.1v2.5h-5.8l-0.2,5.2c0.3-0.3,0.7-0.6,1.1-0.8c0.5-0.2,1-0.3,1.6-0.3
					c0.9,0,1.7,0.2,2.4,0.7c0.6,0.5,1,1.2,1.2,2c0.3,0.9,0.4,1.9,0.4,2.9c0,0.9-0.1,1.8-0.2,2.7c-0.1,0.8-0.4,1.5-0.7,2.1
					c-0.3,0.6-0.8,1.1-1.4,1.4C147.6,21.1,146.8,21.3,146,21.3z"/>
				<path class="st0" d="M157.1,21.3c-0.9,0-1.9-0.2-2.7-0.7c-0.7-0.5-1.2-1.1-1.5-1.9c-0.3-0.9-0.5-1.9-0.4-2.9
					c0-0.6,0-1.1,0.2-1.7c0.1-0.4,0.3-0.9,0.5-1.3c0.2-0.3,0.4-0.7,0.7-0.9c0.3-0.3,0.6-0.5,0.9-0.7c-0.6-0.4-1.1-1-1.5-1.6
					c-0.4-0.8-0.6-1.7-0.6-2.6c0-0.9,0.1-1.7,0.5-2.6c0.3-0.7,0.8-1.3,1.4-1.7c0.8-0.4,1.6-0.6,2.5-0.6c0.9,0,1.7,0.2,2.4,0.6
					c0.6,0.4,1.1,1,1.4,1.7c0.3,0.8,0.5,1.7,0.5,2.6c0,0.9-0.2,1.8-0.6,2.6c-0.4,0.6-0.9,1.2-1.5,1.6c0.3,0.2,0.6,0.5,0.9,0.7
					c0.3,0.3,0.5,0.6,0.7,0.9c0.2,0.4,0.4,0.8,0.5,1.3c0.1,0.5,0.2,1.1,0.2,1.7c0,1-0.1,2-0.5,2.9c-0.3,0.8-0.8,1.4-1.5,1.9
					C159,21.1,158.1,21.4,157.1,21.3z M157.1,19.3c0.5,0,1-0.1,1.4-0.5c0.3-0.3,0.6-0.8,0.7-1.2c0.1-0.6,0.2-1.2,0.2-1.8
					c0-0.6-0.1-1.1-0.2-1.6c-0.1-0.5-0.4-0.9-0.7-1.3c-0.4-0.3-0.8-0.5-1.3-0.5c-0.5,0-1,0.2-1.4,0.5c-0.4,0.4-0.6,0.8-0.7,1.3
					c-0.1,0.5-0.2,1.1-0.2,1.7c0,0.6,0.1,1.2,0.2,1.8c0.1,0.5,0.3,0.9,0.7,1.2C156.1,19.2,156.6,19.4,157.1,19.3L157.1,19.3z
					 M157.1,10.1c0.4,0,0.8-0.1,1.1-0.4c0.3-0.3,0.5-0.8,0.6-1.2c0.1-0.5,0.2-1,0.2-1.5c0-0.7-0.1-1.4-0.4-2
					c-0.3-0.5-0.9-0.9-1.5-0.8c-0.6-0.1-1.2,0.3-1.5,0.8c-0.3,0.6-0.5,1.3-0.4,2c0,0.5,0.1,1,0.2,1.5c0.1,0.4,0.3,0.9,0.6,1.2
					C156.2,10,156.7,10.2,157.1,10.1L157.1,10.1z"/>
			</g>
		</g>
		<g id="グループ_28">
			<path id="パス_10" class="st0" d="M21.5,10V6.3l-1.9,0.3v1.5h-3.5V6.7l-1.9-0.3V10h-2.3l-2.6,5.7v5.2c0,0.5,0.3,0.9,0.8,0.9
				c0,0,0,0,0,0h15.6c0.5,0,0.8-0.4,0.8-0.9v-5.2L23.8,10H21.5z M17.8,19.2c-1.8,0-3.3-1.5-3.3-3.3s1.5-3.3,3.3-3.3
				c1.8,0,3.3,1.5,3.3,3.3l0,0C21.1,17.7,19.7,19.2,17.8,19.2L17.8,19.2z"/>
			<path id="パス_11" class="st0" d="M25.9,3.8c-2.6-0.8-5.3-1.2-8-1.2c-2.7,0-5.4,0.4-8,1.2C8,4.6,6.3,6.3,6.3,8.2
				c0,0.7,0.2,1.3,0.7,1.9h3.7c0.2,0,0.7-1,0.7-1.4c0-0.6-0.2-1.1-0.4-1.7c0-0.5,0.2-0.8,1-1.2c1.4-0.6,4.5-0.6,5.8-0.6
				s4.4,0,5.8,0.6c0.8,0.3,1,0.7,1,1.2c-0.2,0.5-0.3,1.1-0.4,1.6c0,0.4,0.5,1.4,0.7,1.4h3.7c0.4-0.5,0.7-1.2,0.7-1.9
				C29.4,6.3,27.7,4.6,25.9,3.8z"/>
		</g>
	</g>
</g>
</svg>
