<?xml version="1.0" encoding="utf-8"?>
<!-- Generator: Adobe Illustrator 26.0.1, SVG Export Plug-In . SVG Version: 6.00 Build 0)  -->
<svg version="1.1" id="レイヤー_1" xmlns="http://www.w3.org/2000/svg" xmlns:xlink="http://www.w3.org/1999/xlink" x="0px"
	 y="0px" viewBox="0 0 1500 6400" style="enable-background:new 0 0 1500 6400;" xml:space="preserve">
<style type="text/css">
	.st0{opacity:0.2;clip-path:url(#SVGID_00000006681476232529131670000005134820076281671595_);}
</style>
<g>
	<defs>
		<rect id="SVGID_1_" width="1500" height="6400"/>
	</defs>
	<clipPath id="SVGID_00000129192324062612639810000016718564101752825276_">
		<use xlink:href="#SVGID_1_"  style="overflow:visible;"/>
	</clipPath>
	<polygon style="opacity:0.2;clip-path:url(#SVGID_00000129192324062612639810000016718564101752825276_);" points="-206.6,3742 
		486.6,3601.7 28.6,3289.8 	"/>
	<polygon style="opacity:0.2;clip-path:url(#SVGID_00000129192324062612639810000016718564101752825276_);" points="1027.8,3426.3 
		1596.2,3715.7 1410.8,3195.7 	"/>
	<polygon style="opacity:0.2;clip-path:url(#SVGID_00000129192324062612639810000016718564101752825276_);" points="1534.4,1904.4 
		1042.4,1399.2 1597.6,1399.2 	"/>
	<polygon style="opacity:0.2;clip-path:url(#SVGID_00000129192324062612639810000016718564101752825276_);" points="54.6,1467.1 
		-311.9,947.3 231.9,1058.5 	"/>
	<polygon style="opacity:0.2;clip-path:url(#SVGID_00000129192324062612639810000016718564101752825276_);" points="2.2,2830.8 
		-311.9,2364.3 231.9,2475.5 	"/>
	<polygon style="opacity:0.2;clip-path:url(#SVGID_00000129192324062612639810000016718564101752825276_);" points="1473,2972.2 
		1100.7,2397.9 1625,2579.2 	"/>
	<polygon style="opacity:0.2;clip-path:url(#SVGID_00000129192324062612639810000016718564101752825276_);" points="832.2,2425.2 
		45.6,1677.7 1389.6,2153.8 	"/>
	<polygon style="opacity:0.2;clip-path:url(#SVGID_00000129192324062612639810000016718564101752825276_);" points="-127.8,5073.6 
		364.2,4568.4 -191,4568.4 	"/>
	<polygon style="opacity:0.2;clip-path:url(#SVGID_00000129192324062612639810000016718564101752825276_);" points="1352,4636.3 
		1718.5,4116.4 1174.7,4227.6 	"/>
	<polygon style="opacity:0.2;clip-path:url(#SVGID_00000129192324062612639810000016718564101752825276_);" points="1404.3,6000 
		1718.5,5533.4 1174.7,5644.6 	"/>
	<polygon style="opacity:0.2;clip-path:url(#SVGID_00000129192324062612639810000016718564101752825276_);" points="-66.4,6141.3 
		305.9,5567.1 -218.5,5748.4 	"/>
	<polygon style="opacity:0.2;clip-path:url(#SVGID_00000129192324062612639810000016718564101752825276_);" points="574.4,5594.4 
		1361,4846.8 17,5323 	"/>
	<polygon style="opacity:0.2;clip-path:url(#SVGID_00000129192324062612639810000016718564101752825276_);" points="-30,374.6 
		461.9,-130.6 -93.3,-130.6 	"/>
	<polygon style="opacity:0.2;clip-path:url(#SVGID_00000129192324062612639810000016718564101752825276_);" points="138.4,322.4 
		504.9,-197.5 -38.9,-86.3 	"/>
	<polygon style="opacity:0.2;clip-path:url(#SVGID_00000129192324062612639810000016718564101752825276_);" points="1471.3,989.6 
		1785.5,523.1 1241.7,634.3 	"/>
	<polygon style="opacity:0.2;clip-path:url(#SVGID_00000129192324062612639810000016718564101752825276_);" points="1324.2,1028.9 
		1696.5,454.7 1172.2,636 	"/>
	<polygon style="opacity:0.2;clip-path:url(#SVGID_00000129192324062612639810000016718564101752825276_);" points="780,911.3 
		1566.6,163.7 222.6,639.9 	"/>
</g>
</svg>
