<svg xmlns="http://www.w3.org/2000/svg" viewBox="0 0 175.2 23.76"><defs><style>.cls-1{isolation:isolate;}.cls-2{fill:#fff;}</style></defs><g id="レイヤー_2" data-name="レイヤー 2"><g id="txt"><g id="_0120-900-258" data-name=" 0120-900-258" class="cls-1"><g class="cls-1"><path class="cls-2" d="M39,23.72a5.6,5.6,0,0,1-3.26-.89,5.29,5.29,0,0,1-1.89-2.45,9.3,9.3,0,0,1-.62-3.53v-10a9.74,9.74,0,0,1,.6-3.57A5,5,0,0,1,35.73.86,5.8,5.8,0,0,1,39,0a5.71,5.71,0,0,1,3.27.86,5.06,5.06,0,0,1,1.87,2.4,9.74,9.74,0,0,1,.6,3.57v10a9.59,9.59,0,0,1-.61,3.56,5.19,5.19,0,0,1-1.89,2.43A5.58,5.58,0,0,1,39,23.72Zm0-2.53a2.08,2.08,0,0,0,1.65-.63,3.6,3.6,0,0,0,.78-1.63,9.83,9.83,0,0,0,.21-2.05V6.8a11,11,0,0,0-.2-2.11A3.2,3.2,0,0,0,40.7,3.1,2.18,2.18,0,0,0,39,2.5a2.22,2.22,0,0,0-1.69.6,3.06,3.06,0,0,0-.78,1.59,11,11,0,0,0-.2,2.11V16.88a9.83,9.83,0,0,0,.21,2.05,3.44,3.44,0,0,0,.81,1.63A2.14,2.14,0,0,0,39,21.19Z"/><path class="cls-2" d="M48.81,23.46,53,2.61H46.77V.2h9.3V1.69l-4.3,21.77Z"/><path class="cls-2" d="M59.89,23.46,64.08,2.61H57.85V.2h9.31V1.69L62.85,23.46Z"/><path class="cls-2" d="M75.48,23.72a6,6,0,0,1-3.36-.84,4.6,4.6,0,0,1-1.82-2.37,10.55,10.55,0,0,1-.56-3.6,9.82,9.82,0,0,1,.2-2.07,5.44,5.44,0,0,1,.59-1.56,5.12,5.12,0,0,1,.92-1.18,8,8,0,0,1,1.16-.9,6,6,0,0,1-1.86-2A6.28,6.28,0,0,1,70,6a8.19,8.19,0,0,1,.57-3.19A4.31,4.31,0,0,1,72.4.73,5.88,5.88,0,0,1,75.48,0a5.73,5.73,0,0,1,3.06.73,4.47,4.47,0,0,1,1.77,2.08A8.19,8.19,0,0,1,80.88,6a6.41,6.41,0,0,1-.7,3.19,5.93,5.93,0,0,1-1.88,2,8.55,8.55,0,0,1,1.16.9,5.41,5.41,0,0,1,.92,1.18,5.76,5.76,0,0,1,.6,1.56,9.13,9.13,0,0,1,.22,2.07,10.55,10.55,0,0,1-.56,3.6,4.69,4.69,0,0,1-1.81,2.37A5.94,5.94,0,0,1,75.48,23.72Zm0-2.44a2.44,2.44,0,0,0,1.73-.58A2.93,2.93,0,0,0,78,19.15,9.75,9.75,0,0,0,78.24,17a7.94,7.94,0,0,0-.25-2,3.34,3.34,0,0,0-.84-1.58,2.2,2.2,0,0,0-1.67-.62,2.3,2.3,0,0,0-1.68.6,3.35,3.35,0,0,0-.87,1.57A7.65,7.65,0,0,0,72.67,17a9.72,9.72,0,0,0,.23,2.18,2.9,2.9,0,0,0,.85,1.55A2.46,2.46,0,0,0,75.48,21.28Zm0-11.49A2,2,0,0,0,77,9.19a3.24,3.24,0,0,0,.7-1.48,8.27,8.27,0,0,0,.21-1.88,5.33,5.33,0,0,0-.52-2.44,1.92,1.92,0,0,0-1.87-1,2,2,0,0,0-1.89,1A5,5,0,0,0,73,5.83a8.88,8.88,0,0,0,.2,1.88A3.19,3.19,0,0,0,74,9.19,2,2,0,0,0,75.48,9.79Z"/><path class="cls-2" d="M84,16V13.64h6.4V16Z"/><path class="cls-2" d="M98.83,23.69a6,6,0,0,1-3.34-.81,4.38,4.38,0,0,1-1.76-2.32,10.88,10.88,0,0,1-.53-3.62h3.07a12.24,12.24,0,0,0,.17,2,3.39,3.39,0,0,0,.73,1.64,2.17,2.17,0,0,0,1.71.65,2.11,2.11,0,0,0,1.81-.74,4.06,4.06,0,0,0,.69-2,23.93,23.93,0,0,0,.14-2.82,17.2,17.2,0,0,0-.17-2.69,3,3,0,0,0-.72-1.69,2.2,2.2,0,0,0-1.72-.59,2.3,2.3,0,0,0-1.61.59,3.65,3.65,0,0,0-1,1.33H93.71V.2h10V3.27H96.5L96.3,9.7a4,4,0,0,1,1.42-.94,5.09,5.09,0,0,1,1.94-.35,4.55,4.55,0,0,1,3,.89,4.82,4.82,0,0,1,1.52,2.44,12.83,12.83,0,0,1,.45,3.56,20.24,20.24,0,0,1-.26,3.32,8.09,8.09,0,0,1-.91,2.67,4.58,4.58,0,0,1-1.76,1.76A5.66,5.66,0,0,1,98.83,23.69Z"/><path class="cls-2" d="M112.35,23.72a6.29,6.29,0,0,1-3.16-.72,4.6,4.6,0,0,1-1.9-2.07,7.47,7.47,0,0,1-.63-3.19V17h3v.52a8.65,8.65,0,0,0,.24,1.86,2.44,2.44,0,0,0,.78,1.32,2.36,2.36,0,0,0,1.62.49,2.43,2.43,0,0,0,1.69-.53,2.8,2.8,0,0,0,.78-1.51,11.5,11.5,0,0,0,.2-2.24,6,6,0,0,0-.68-3A2.76,2.76,0,0,0,112,12.6a.62.62,0,0,0-.21,0h-.22V9.5H112a3.16,3.16,0,0,0,2.35-.86A4,4,0,0,0,115,6a5.18,5.18,0,0,0-.53-2.52,2.2,2.2,0,0,0-2.11-1,2.11,2.11,0,0,0-2.1,1,6.5,6.5,0,0,0-.57,2.68v.49h-3V5.94a7.33,7.33,0,0,1,.63-3.18,4.6,4.6,0,0,1,1.91-2A6.42,6.42,0,0,1,112.38,0a6.34,6.34,0,0,1,3.18.72,4.49,4.49,0,0,1,1.9,2.05,7.46,7.46,0,0,1,.63,3.2,5.67,5.67,0,0,1-.9,3.36,4.52,4.52,0,0,1-2.43,1.72,4,4,0,0,1,1.79,1.09,5.36,5.36,0,0,1,1.14,2,8.65,8.65,0,0,1,.4,2.77,10.4,10.4,0,0,1-.57,3.61,4.9,4.9,0,0,1-1.84,2.38A5.91,5.91,0,0,1,112.35,23.72Z"/><path class="cls-2" d="M120.62,16V13.64H127V16Z"/><path class="cls-2" d="M133.34,23.46V4.22a3.92,3.92,0,0,1-.65.17c-.41.1-.88.19-1.39.29l-1.38.26-.63.11V2.73c.32-.08.7-.18,1.13-.32a11.27,11.27,0,0,0,1.32-.49A7.38,7.38,0,0,0,133,1.21a4.4,4.4,0,0,0,1.05-1h2.33V23.46Z"/><path class="cls-2" d="M141,23.46V21.28l5.92-9.22,1.22-1.93A9.64,9.64,0,0,0,149,8.25,6.65,6.65,0,0,0,149.39,6a5.2,5.2,0,0,0-.52-2.52,1.89,1.89,0,0,0-1.81-.92,2.28,2.28,0,0,0-1.69.6,3.21,3.21,0,0,0-.84,1.58,9.3,9.3,0,0,0-.23,2.09v.78h-3.07v-.8a10.49,10.49,0,0,1,.56-3.61A4.73,4.73,0,0,1,143.6.83,5.93,5.93,0,0,1,146.92,0a5.26,5.26,0,0,1,4.19,1.59A6.53,6.53,0,0,1,152.49,6a8.48,8.48,0,0,1-.36,2.61,10,10,0,0,1-.94,2.1q-.57,1-1.26,2l-5.34,8.15h7.35v2.59Z"/><path class="cls-2" d="M160.35,23.72A6.27,6.27,0,0,1,157.2,23a4.49,4.49,0,0,1-1.9-2.07,7.47,7.47,0,0,1-.63-3.19V17h3v.52a8,8,0,0,0,.25,1.86,2.49,2.49,0,0,0,.77,1.32,2.38,2.38,0,0,0,1.62.49,2.46,2.46,0,0,0,1.7-.53,2.72,2.72,0,0,0,.77-1.51,10.78,10.78,0,0,0,.2-2.24,6,6,0,0,0-.67-3A2.76,2.76,0,0,0,160,12.6a.72.72,0,0,0-.22,0h-.21V9.5h.4a3.19,3.19,0,0,0,2.36-.86A4,4,0,0,0,163,6a5.07,5.07,0,0,0-.53-2.52,2.19,2.19,0,0,0-2.11-1,2.09,2.09,0,0,0-2.09,1,6.49,6.49,0,0,0-.58,2.68v.49h-3V5.94a7.33,7.33,0,0,1,.63-3.18,4.54,4.54,0,0,1,1.91-2,7.38,7.38,0,0,1,6.36,0,4.53,4.53,0,0,1,1.89,2.05A7.45,7.45,0,0,1,166.1,6a5.67,5.67,0,0,1-.91,3.36,4.46,4.46,0,0,1-2.42,1.72,4.07,4.07,0,0,1,1.79,1.09,5.2,5.2,0,0,1,1.13,2,8.64,8.64,0,0,1,.41,2.77,10.39,10.39,0,0,1-.58,3.61,4.78,4.78,0,0,1-1.84,2.38A5.91,5.91,0,0,1,160.35,23.72Z"/><path class="cls-2" d="M172.12,23.46V4.22a3.31,3.31,0,0,1-.64.17c-.41.1-.88.19-1.39.29l-1.38.26-.63.11V2.73c.32-.08.7-.18,1.13-.32a11.27,11.27,0,0,0,1.32-.49,7.38,7.38,0,0,0,1.29-.71,4.81,4.81,0,0,0,1.05-1h2.33V23.46Z"/></g></g><g id="_0120-900-258-2" data-name=" 0120-900-258" class="cls-1"><g class="cls-1"><path class="cls-2" d="M0,23.76V7.87H6.14V9.46H2.22v5.3h3v1.57h-3v7.43Z"/><path class="cls-2" d="M6.45,23.76,9.83,7.87H12l3.39,15.89h-2.1l-.72-4H9.3l-.77,4Zm3.14-5.59h2.65L10.91,11Z"/><path class="cls-2" d="M16,23.76l3.32-8.32L16.05,7.87h2.06l2.41,5.61,2.2-5.61h2.06l-3.34,7.75,3.5,8.14H22.88l-2.59-6-2.24,6Z"/><path class="cls-2" d="M26.15,23.76V21.43h2.1v2.33Z"/></g></g></g></g></svg>