<?xml version="1.0" encoding="utf-8"?>
<!-- Generator: Adobe Illustrator 25.3.1, SVG Export Plug-In . SVG Version: 6.00 Build 0)  -->
<svg version="1.1"
	 id="svg46" inkscape:version="1.1 (c68e22c387, 2021-05-23)" sodipodi:docname="feature_heading.svg" xmlns:inkscape="http://www.inkscape.org/namespaces/inkscape" xmlns:sodipodi="http://sodipodi.sourceforge.net/DTD/sodipodi-0.dtd" xmlns:svg="http://www.w3.org/2000/svg"
	 xmlns="http://www.w3.org/2000/svg" xmlns:xlink="http://www.w3.org/1999/xlink" x="0px" y="0px" viewBox="0 0 840 105"
	 style="enable-background:new 0 0 840 105;" xml:space="preserve">
<style type="text/css">
	.st0{fill:none;}
	.st1{fill:#B5C6DA;}
	.st2{fill:#80B63F;stroke:#80B63F;stroke-width:0.96;stroke-miterlimit:10;}
	.st3{fill:#BCD161;}
	.st4{fill:#EDDF21;stroke:#EDDF21;stroke-width:3.2817;stroke-linecap:round;stroke-linejoin:round;stroke-miterlimit:10;}
</style>
<sodipodi:namedview  bordercolor="#666666" borderopacity="1.0" height="105px" id="namedview48" inkscape:current-layer="svg46" inkscape:cx="472.9324" inkscape:cy="95.744682" inkscape:pagecheckerboard="0" inkscape:pageopacity="0.0" inkscape:pageshadow="2" inkscape:window-height="1046" inkscape:window-maximized="1" inkscape:window-width="1920" inkscape:window-x="-11" inkscape:window-y="-11" inkscape:zoom="1.2951111" pagecolor="#ffffff" showgrid="false" width="960px">
	</sodipodi:namedview>
<g id="レイヤー_2_1_" transform="matrix(0.96,0,0,0.96,0,-6)">
	<rect id="rect4" y="0" class="st0" width="1125" height="225"/>
</g>
<g id="g42" transform="translate(-69.762122,-47.379492)">
	<path id="path7" class="st1" d="M177.2,95.3c-0.8,1.1-1.3,2.4-2.3,3.1c-4.8,3.2-7.3,8-9.7,13c-5.8,11.7-13.8,21.1-25.8,26.9
		c-12.3,6-24.9,5.6-37.6,2.2c-0.3-0.1-0.6-0.2-0.9-0.3c-6.3-2.7-6.3-4.2-1.2-8.8c5.8-5.2,11.1-10.8,16.4-16.5
		c1.4-1.4,2.1-3.6,3.6-6.2c-5.3-0.2-9.8-0.5-14.4-0.6c-3.1,0-6,0.3-9.1,0.4c-3.9,0-5.7-1.1-6-4.9c-0.5-6.7-0.6-13.5-0.4-20.3
		c0.1-4,1.4-4.9,5.4-4.1c7.2,1.5,14.4,3.4,21.5,5.1c1.6,0.4,3.3,1,5.5,1.5c-0.2-3.4-0.3-6.3-0.5-9.3c-0.2-4.6-0.4-9.3-0.6-13.9
		c-0.1-3,1.8-4.2,4.5-4.8c20.9-4.3,31.3,11.7,34,25.9c0.2,1.1,0.4,2.2,0.6,3.3c0.5,2.6,1.9,3.7,4.6,3.7
		C169.4,90.5,173.9,92.1,177.2,95.3L177.2,95.3z"/>
	<path id="path11" class="st2" d="M517.3,111.1c-0.3,0.3-0.5,0.6-0.7,0.9c-0.4,0.5-0.7,1.1-1,1.6c-0.3,0.6-0.7,1.1-1.3,1
		c-0.3,0-0.7-0.1-1-0.3c-1-0.4-1.5-1.4-1.3-2.5c0.2-0.4,0.4-0.8,0.7-1.1c1.1-1.8,2.2-3.6,3.3-5.4c0.6-1,1.2-2,1.6-3.1
		c0.1-0.4,0.2-0.7,0.2-1.1s0-0.8,0-1.2c0.1-1,0.2-1.9,0.3-2.9c-1.2-0.1-2.4,0.3-3.4,1c-0.7,0.3-1.4,0.1-2-0.4c0-0.1-0.1-0.1-0.1-0.2
		c-1.1-0.4-0.9-1.3-0.8-2.1c0.1-0.7,1-0.9,1.5-1.2c1.3-0.5,2.7-0.7,4.1-0.7c0.9,0,0.8-0.6,0.8-1.1c0-1.6-0.1-3.3-0.1-5
		c0-0.4-0.2-1.1,0.4-1.2c0.5-0.1,1.1,0,1.4,0.2c1,0.6,1.5,1.7,1.2,2.9c0,0.5,0,1,0.1,1.3c0.1,0.9,0.2,1.7,0.3,2.7
		c0.1,0.5,0.4,0.9,0.8,1.2c0.8,0.8,1.1,1.9,0.8,3c-0.3,1.6-0.9,3.3-1.6,4.7c-0.1,0.4-0.1,0.7-0.1,1.1c1.4-0.7,2.8-1.3,4.2-1.8
		c1.1-0.3,2.2-0.5,3.4-0.6c1.1-0.1,2.1-0.2,3.2-0.2c0.4,0,0.7,0,1.1,0.1c1.3,0.3,2.8,0.6,4.1,1c1.8,0.6,3.6,1.6,4.9,3
		c1.3,1.2,2,3.1,2.1,4.9c0,1.5-0.6,3-1.4,4.2c-0.1,0.2-0.2,0.4-0.3,0.7c-0.2,0.5-0.5,0.9-0.8,1.2c-0.6,0.6-1.1,1.2-1.5,1.9
		c-0.9,1.1-1.6,2.2-2.9,2.9c-0.6,0.3-1.1,0.9-1.8,0.7l-1.3-0.3c-0.2-0.4-0.4-0.7-0.5-1c0-0.1,0-0.3,0.1-0.4c0.9-1,1.7-1.9,2.5-3
		c0.4-0.5,0.7-1.1,1.1-1.5c0.9-1.2,1.7-2.5,2.5-3.8c0.2-0.5,0.4-1.1,0.5-1.6c0.1-0.3,0.3-0.5,0.4-0.8c0.3-1.3-0.6-2.2-1.5-2.8
		c-1.3-0.9-2.9-1.4-4.4-1.4c-1,0-1.9-0.2-2.9-0.3c-0.3,0-0.5,0-0.8,0.1c-1.2,0.3-2.5,0.5-3.6,0.9c-0.8,0.2-1.5,0.5-2.2,0.8
		c-1,0.4-1.8,1-2.7,1.4c-0.1,0-0.2,0.2-0.2,0.2c-1.2,0.1-1.2,1.1-1.2,1.7c0,1.2,0.2,2.3,0.2,3.5v0.1c-0.2,2.1,0.6,4.1,0.7,6.2
		c0,0.6,0.2,1.1,0.3,1.6c0,0.7-0.1,1.2-0.1,1.8c0,0.1-0.1,0.2-0.2,0.3c-0.6,0.3-2.5-0.2-2.7-0.9c-0.3-0.8-0.6-1.5-0.8-2.3
		c-0.2-1.2-0.4-2.4-0.6-3.6c-0.1-1.1-0.2-2.1-0.3-3.3c-0.1-0.6-0.2-1.1-0.3-1.6L517.3,111.1z"/>
	<path id="path13" class="st2" d="M386.8,96.9c-0.1,0.9-0.1,1.5-0.2,2.2c0,1.1-0.1,2.1-0.3,3.1c-0.3,1.2-0.7,2.3-1.1,3.5
		c-0.2,0.8-0.4,1.5-0.7,2.3c-0.8,1.9-1.8,3.7-3.1,5.5c-0.8,1-1.7,1.6-2.9,2.1c-1.1,0.4-2.2,0.3-3.3-0.2c-1-0.5-1.8-1.1-2.7-1.7
		c-0.3-0.2-0.4-0.7-0.5-1.1c-0.5-0.8-0.8-1.6-1.1-2.5c-0.3-1.4-0.2-2.9,0.5-4.2c0.6-1.1,1.2-1.9,1.8-3c1.3-2.2,3.4-3.9,5.2-5.8
		c1.2-1.2,2.4-2.1,3.8-2.9c1.3-0.8,2.8-1.2,4.3-1.4c0.9,0,1.7,0.2,2.6,0.5c0.8,0.2,1.5,0.5,2.2,0.9c1.2,0.8,2.3,1.5,3.4,2.4
		c0.5,0.4,0.9,0.9,1.2,1.4c0.4,0.6,0.6,1.2,0.8,1.8c0.3,1.2,0.6,2.3,0.7,3.5c0,0.8,0,1.5-0.1,2.3c0,0.7-0.1,1.3-0.2,2
		c-0.3,1.2-0.7,2.5-1.2,3.6c-0.8,1.8-1.7,3.5-2.7,5.2c-0.3,0.6-0.7,1.1-1.1,1.5c-0.6,0.6-1.4,1-2.3,1.1c-0.6-0.1-1.2-0.4-1.6-0.7
		c-0.1-0.1-0.3-0.3-0.2-0.3c0.3-1,0.2-2,1.2-2.8c0.9-1,1.5-2,2-3.2c0.9-1.6,1.6-3.4,2.3-5.1c0.5-1.2,0.8-2.5,0.8-3.7
		c-0.1-1-0.3-1.9-0.8-2.8c-0.3-0.7-0.7-1.2-1.1-1.8c-0.8-1.3-2.1-1.6-3.6-1.7C388.3,96.9,387.6,96.9,386.8,96.9L386.8,96.9z
		 M383.5,98.2l-1.5,1.2c-0.5,0.3-1,0.7-1.4,1.1c-0.3,0.3-0.5,0.7-0.7,1s-0.9,0.8-1.2,1.2c-0.6,0.7-1.2,1.3-1.7,2
		c-0.5,0.6-1,1.2-1.3,1.7c-0.5,0.8-1,1.5-1.3,2.4c-0.2,0.3-0.3,0.7-0.3,1.1c0,1.1,0.5,2,1.2,2.7c0.1,0.1,0.2,0.2,0.3,0.2
		c0.6,0,1.2-0.1,1.7-0.3c1-0.6,1.7-1.3,2.4-2.2c0.5-0.8,1-1.5,1.3-2.3c0.4-0.7,0.7-1.3,1-2.1c0.4-1.1,0.7-2.1,1-3.1
		c0.4-1.2,0.7-2.6,1-3.8C383.7,98.5,383.6,98.3,383.5,98.2L383.5,98.2z"/>
	<path id="path15" class="st2" d="M563.1,101.6c-0.7,0.1-1.4,0.2-2.1,0.4c-1,0.3-1.8,0.9-2.7,1.2c-1,0.4-1.5-0.2-2.2-0.6
		c-1.2-0.7-1.1-1.7-0.8-2.7c1.2-0.5,2.5-1,3.8-1.3c1.2-0.4,2.4-0.7,3.6-0.8c1.4-0.1,1.5-0.1,1.8-1.5c0.1-0.9,0.3-1.6,0.5-2.5
		c0.2-1.2,0.4-2.4,0.7-3.6c0-0.3,0.1-0.6,0.2-0.8c1-0.3,2,0.1,2.7,0.9c0.6,0.6,0.4,1.4,0.3,2.1c-0.1,1.2-0.3,2.4-0.4,3.6
		c-0.1,0.4-0.2,0.8-0.3,1.2c-0.1,0.4,0,0.7,0.6,0.9c1.6,0.4,3.2,0.9,4.7,1.5c1.3,0.7,2.5,1.7,3.3,3c0.6,1.2,1,2.4,1.1,3.7
		c0.1,0.9,0.1,1.7-0.2,2.6c-0.2,0.7-0.1,1.4-0.2,2.1s-0.4,1.6-0.6,2.4c-0.7,2.2-1.7,4.2-3.2,6c-0.8,1.1-2,1.6-3.3,1.4
		c-1.2,0.1-2.2-0.4-3-1.2c-0.2-0.3-0.3-0.5-0.4-0.8c0-0.1-0.1-0.2-0.1-0.4s-0.3-0.5-0.2-0.6c0.1-0.4,0.6-0.7,1-0.6
		c1.2,0.4,2.2-0.2,3-1.1c0.4-0.5,0.8-1,1.2-1.4c0.3-0.5,0.5-1,0.7-1.5c0.3-0.8,0.6-1.5,0.9-2.3c0.3-0.5,0.5-1.1,0.7-1.6
		c0.3-0.9,0.4-1.7,0.3-2.7c0-0.5,0-1,0.1-1.4c0.2-1.4-0.8-2.7-2.1-3.1c-1.2-0.5-2.4-0.8-3.6-0.8c-0.4,0-0.9-0.1-1.2-0.2
		c-0.4,1.3-0.8,2.7-1.2,4c-0.3,1-0.8,1.8-1.1,2.7c-0.5,1.2-0.9,2.6-1.2,3.9c-0.3,0.8-0.6,1.4-0.9,2.2c-0.5,1.2-1,2.5-1.4,3.6
		c0,0.1-0.1,0.2-0.1,0.2c-0.6,1-1.1,1.8-1.6,2.7c-0.2,0.3-0.5,0.5-0.9,0.5c-0.9,0-1.7-0.5-2.2-1.2c-0.3-0.9-0.1-1.8,0.4-2.7
		c0.9-1.5,1.6-3.2,2.3-4.8c0.5-1.1,0.9-2.2,1.2-3.4c0.6-1.7,1.2-3.6,1.7-5.3C562.6,103.3,562.8,102.6,563.1,101.6L563.1,101.6z"/>
	<path id="path17" class="st2" d="M445,90.6l1.1,0.5l0.3-0.3c0.1,0.1,0.1,0.3,0.2,0.3c0.9,0,1.1,0.7,1.3,1.2
		c0.1,0.4,0.2,0.8,0.2,1.1c0.1,0.6,0.1,1.1,0.2,1.6c0.2,1.1,0.4,2.1,0.6,3.3l2.8-1.2c1.1-0.2,2,0.4,2.3,1.4c0,0,0,0,0,0.1
		c0,0.2,0,0.5,0.1,0.7c0.1,1.2-0.8,1.5-1.4,1.9c-0.7,0.3-1.4,0.6-2.3,0.7c-0.3,0-0.6,0.3-0.6,0.6v0.1c0.1,1,0.2,1.9,0.2,2.9
		c0,1.2-0.1,2.3-0.2,3.5c-0.1,0.7,0.1,0.9,0.7,1.1c1.7,0.6,3.4,1.2,5,2c1.1,0.5,2,1.1,3,1.6l0.1,0.1c0.1,0.7,0.2,1.3,0.1,2
		c-0.1,0.7-1.3,0.7-1.9,0.3c-1.1-0.6-2.1-1.2-3.3-1.6c-1.2-0.5-2.3-1-3.5-1.3c-0.3-0.1-0.6-0.1-0.9-0.1c-0.2,1-0.5,1.9-0.9,2.9
		c-0.9,1.4-1.4,3.3-3.3,3.9c-1.1,0.5-2.2,0.5-3.3,0.1c-0.4-0.2-1-0.2-1.3-0.4c-1.3-0.7-2.3-2-2.6-3.6c-0.2-1.2,0.1-2.5,0.8-3.6
		c0.2-0.6,0.6-1.1,1-1.5c0.9-0.9,1.9-1.4,3.1-1.6c0.8-0.1,1.4-0.2,2.2-0.3c0.5,0,1.1,0.6,1.3-0.2c0.2-0.5,0.2-1.1,0.2-1.6
		c0-1.2,0-2.4,0-3.6c0-0.6-0.2-0.7-0.7-0.6c-1.2,0.1-2.3,0.2-3.5,0.3c-1.4,0-2.5-0.5-2.7-2.3c-0.1-1.2,0-1.2,1.2-1.2
		c1.6-0.2,3.3-0.5,4.8-0.8c0.1,0,0.3-0.4,0.3-0.5c-0.2-1.2-0.6-2.5-0.8-3.7C444.9,93.5,445,92.1,445,90.6L445,90.6z M445.1,112.6
		c-0.8-0.2-1.5-0.1-2.1,0.5c-0.3,0.3-0.6,0.5-0.9,0.7c-1.2,0.6-1.7,2-1.2,3.2c0,0.1,0.1,0.1,0.1,0.2c0.1,0.1,0.2,0.2,0.3,0.2
		c0.5,0,1.1-0.2,1.4-0.5C444.1,115.7,444.9,114.2,445.1,112.6L445.1,112.6z"/>
	<path id="path19" class="st2" d="M477.9,106.2c0.2,0,0.3,0,0.5,0c1.1-0.4,1.9,0.2,2.9,0.4c0.3,0.1,0.6,0.4,0.9,0.6
		c0.4,0.2,0.7,0.4,1,0.6c0.8,0.8,1.4,1.6,2.1,2.4c1.1,1.3,2.2,2.7,3.5,3.8c1.1,1.1,2.6,1.4,3.9,0.9c1.4-0.6,3-1,4.5-1.4
		c1-0.3,1.9-0.6,2.8-0.9c0.5-0.2,1.1,0,1.3,0.5c0.2,0.2,0,0.8-0.1,1.2c-0.5,0.9-1.2,1.4-2.1,1.8c-0.8,0.4-1.4,0.9-2.2,1.2
		c-0.4,0.2-0.8,0.3-1.1,0.5c-0.6,0.2-1.2,0.5-1.6,0.7c-1,0.4-2.1,0.4-3.1,0.1c-1.9-0.3-3.5-1.5-5.1-2.5c-0.5-0.4-1-0.9-1.2-1.4
		c-1.1-1.4-2.1-2.9-3.2-4.3c-0.6-0.8-1.6-1.1-2.5-0.7c-1,0.4-1.8,1-2.5,1.6c-0.6,0.9-1.1,1.8-1.3,2.8c-0.5,1.2-1,2.6-1.5,3.8
		c-0.4,0.7-1.2,1-1.8,0.6c0,0-0.1,0-0.1-0.1c-0.8-0.3-1.3-1-1.4-1.7c-0.1-0.6,0-1.2,0.2-1.8c0.5-1.4,1-2.9,1.5-4.3
		c0.4-1,0.8-1.9,1.2-2.9c0.2-0.5,0.3-1,0.5-1.5c0.3-1.2,0.6-2.2,1-3.4c0.2-0.6,0.4-1.2,0.6-1.7c0.4-1.1,0.7-2.1,1.1-3.3
		c0.3-0.8,0.6-1.5,0.8-2.3c0.4-1.5,0.8-3.2,1.1-4.8c0.2-1.1,0.6-1.3,1.7-0.9c0.8,0.3,1.3,1,1.4,1.8c0.1,0.5,0,1,0,1.3
		c-0.1,1-0.3,1.8-0.5,2.7c-0.5,1.9-1.2,3.9-1.7,5.9c-0.4,1.2-0.8,2.5-1.2,3.7C477.9,105.8,477.9,106,477.9,106.2L477.9,106.2z"/>
	<path id="path21" class="st2" d="M339.8,118.2c0.2-0.7,0.2-1.2,0.4-1.6c0.1-0.2,0.3-0.4,0.5-0.5c0.6-0.1,1.1-0.3,1.5-0.6
		c2-1.2,3.9-2.8,5.7-4.4c0.9-0.9,1.6-1.8,2.5-2.7c0.9-1,1.5-1.9,2.2-3c0.5-0.7,0.8-1.3,1.1-2s0.6-1.2,0.8-1.9
		c0.5-1.2,0.6-2.4,0.3-3.6c-0.4-1-1.3-1.5-2.4-1.4c-0.2,0-0.3,0-0.5,0c-2,0-4,0.5-5.8,1.3c-1.2,0.6-2.4,1-3.6,1.5
		c-0.8,0.5-1.6,1-2.3,1.5c-0.4,0.3-0.8,0.7-1.3,0.3c-0.6-0.4-1.2-0.6-1.3-1.2c-0.1-0.3,0-0.7,0.1-1c0.2-0.5,0.6-0.9,0.9-1.2
		c0.5-0.8,1.3-0.9,2-1.3c0.5-0.4,1-0.7,1.5-1c0.6-0.3,1.3-0.5,1.9-0.7c0.6-0.2,1.5-0.7,2.3-1c1.1-0.4,2-0.7,3.1-0.8
		c1.2-0.1,2.3-0.1,3.4,0c0.7,0.1,1.2,0.3,1.8,0.6c0.5,0.3,1,0.7,1.3,1.1c0.7,0.6,1.2,1.2,1.6,1.9c0.3,0.7,0.5,1.5,0.6,2.3
		c0.1,0.9,0,1.7-0.1,2.6c-0.1,0.6-0.3,1.1-0.5,1.6c-0.2,0.7-0.5,1.4-0.8,2.1c-0.5,1.1-1.1,2.1-1.6,3.2c-1.2,2-2.6,3.7-4.3,5.3
		c-1.3,1.2-2.8,2.5-4.2,3.6c-0.9,0.7-1.8,1.2-2.8,1.6c-1,0.5-2,0.7-2.9-0.4C340.5,118.4,340.1,118.3,339.8,118.2z"/>
	<path id="path23" class="st2" d="M427.2,89.2c0.8,0,1.3,0,1.8,0c0.2,0,0.4,0.1,0.5,0.3c0.3,0.5,0.5,1,0.6,1.5c0,0.5-0.1,1-0.3,1.4
		c-0.5,1.6-1.1,3.2-1.5,4.8c-0.6,1.9-1.1,3.8-1.4,5.8c-0.4,1.8-0.5,3.6-0.7,5.5c-0.1,1.2-0.2,2.5-0.3,3.8c0,1.9,0.3,3.7,0.7,5.6
		c0.2,0.9,0.3,1.7,0.4,2.6c0,0.4-0.3,0.8-0.5,1.1c-0.3,0.1-0.5,0.1-0.8,0.1c-0.2,0-0.4,0-0.6,0c-1.2-0.4-1.9-1.4-1.9-2.7
		c-0.1-0.8-0.4-1.4-0.5-2.1c-0.1-0.5-0.1-1.1-0.1-1.5c-0.1-1.6-0.2-3.3-0.1-4.9c0-1.6,0.1-3.1,0.3-4.6c0.1-0.8,0.3-1.5,0.4-2.4
		c0.1-0.8,0.2-1.6,0.4-2.4c0.4-1.1,0.3-2.3,0.9-3.3c0.2-0.6,0.4-1.2,0.5-1.9c0.6-1.8,1.2-3.6,1.9-5.5
		C426.9,89.9,427.1,89.5,427.2,89.2z"/>
	<path id="path25" class="st2" d="M456.3,89c0,1.2-0.7,1.6-1.9,1.2c-0.6-0.2-1.2-0.2-1.8-0.2c-0.9,0-1.7,0.2-2.6,0.2
		c-1.1,0-2.2,0-3.4,0c-0.9,0-1.7,0.2-2.7,0.3c-1.2,0.3-2.4,0.4-3.6,0.2c-0.8-0.3-1.3-0.9-1.4-1.7c-0.1-0.4-0.1-0.7-0.1-1.1
		c0-0.2,0.3-0.6,0.5-0.6c1.6-0.2,3.3-0.4,4.8-0.6c0.4,0,0.7-0.1,1-0.1c1.7-0.1,3.5-0.1,5.2-0.2c1.2-0.2,2.5,0,3.7,0.4
		c0.3,0.1,0.8,0.1,1.1,0.2C455.8,87.4,456.4,88.2,456.3,89L456.3,89z"/>
	<path id="path27" class="st2" d="M585.9,92.8c1.2,0,2.4,0.7,2.9,1.8c0.9,1.5,1.9,3.1,2.8,4.6c0.9,1.4,1.6,2.8,2.4,4.3
		c1,1.7,1.4,3.6,1.3,5.6c0,0.8-0.7,1.4-1.4,1.4c0,0,0,0-0.1,0c-0.7,0-1.2-0.5-1.3-1.2c-0.2-1.2-0.4-2.2-0.8-3.4
		c-0.4-1-0.8-1.8-1.3-2.6c-0.7-1.1-1.3-2.1-1.9-3.2c-0.6-1.1-1.2-2.1-1.8-3.1c-0.5-1-0.9-2-1-3.1C585.7,93.6,585.8,93.2,585.9,92.8
		L585.9,92.8z"/>
	<path id="path29" class="st2" d="M684.7,107.6c0-1.4,0.2-2.8,0.5-4.1c0.4-1.2,0.8-2.5,1.2-3.7s1-2.4,1.5-3.6s1.1-2.5,1.4-3.7H689
		c-0.4,0.1-0.7,0.3-1,0.5s-0.6,0.5-0.9,0.8c-0.3,0.3-0.5,0.6-0.8,0.8l-0.7,0.8c-0.5-0.4-0.9-1-0.8-1.5c0-1,0.4-1.8,1.1-2.5
		c0.7-0.8,1.5-1.3,2.5-1.7c1-0.4,2-0.8,3.1-1c0.9-0.2,1.8-0.3,2.7-0.3c1.4,0,2.9,0.2,4.2,0.8c1.2,0.5,2.3,1.2,3.2,2
		c0.9,1,1.5,2,2,3.2c0.5,1.3,0.7,2.8,0.7,4.3c0,1.2-0.2,2.6-0.5,3.8c-0.6,2.9-1.7,5.7-3.3,8.2c-0.8,1.2-1.6,2.4-2.7,3.5
		c-1,1-2,1.7-3.3,2.4c-1.2,0.6-2.5,0.9-3.7,0.9c-1.1,0-2.2-0.3-3.1-0.9s-1.4-1.3-1.9-2.3s-0.8-2-1-3.1
		C684.7,109.7,684.6,108.6,684.7,107.6L684.7,107.6z M687.7,108c0,0.7,0,1.4,0.1,2.1c0,0.7,0.2,1.3,0.4,1.9c0.2,0.6,0.6,1.1,1.1,1.4
		c0.6,0.4,1.3,0.6,2.1,0.6c1.1,0,2-0.3,2.9-0.8c1-0.6,1.7-1.2,2.5-2.1c0.8-1,1.4-1.9,2-3s1.1-2.2,1.5-3.5c0.4-1.1,0.8-2.2,1-3.4
		c0.2-1,0.3-1.9,0.3-2.8c0-0.8-0.1-1.4-0.2-2.1c-0.1-0.9-0.4-1.7-0.7-2.6c-0.3-0.8-0.8-1.5-1.3-2.1s-1.3-1-2.1-0.9h-4.7
		c-0.2,0-0.5,0.1-0.7,0.3c-0.2,0.1-0.4,0.3-0.6,0.5c0.3,0.1,0.6,0.3,0.8,0.4c0.3,0.2,0.4,0.5,0.4,0.8c0,0.5-0.1,0.9-0.3,1.2
		s-0.5,0.8-0.8,1.2s-0.6,0.8-0.8,1.1c-0.3,0.4-0.4,0.8-0.5,1.2c0,0,0,0.2,0,0.4c0,0.1,0,0.3,0,0.4c0,0-0.2,0.1-0.4,0.2
		c-0.2,0-0.3,0.1-0.4,0.2c-0.3,0.6-0.6,1.2-0.8,1.9c-0.2,0.9-0.4,1.7-0.5,2.7c-0.1,1-0.2,1.8-0.3,2.7
		C687.7,106.8,687.7,107.5,687.7,108L687.7,108z"/>
	<path id="path31" class="st2" d="M710.7,113.7c0.2-1.2,0.4-2.3,0.7-3.5s0.5-2.3,0.8-3.4s0.5-2.2,0.7-3.4c0.1-0.8,0.2-1.8,0.4-3.1
		c0.2-1.2,0.3-2.5,0.5-3.8c0.2-1.3,0.4-2.6,0.7-3.8c0.2-1,0.5-2,0.8-3c0.2-0.5,0.4-0.7,0.7-0.8s0.7-0.1,1-0.1s0.7,0,1,0.1
		s0.5,0.3,0.7,0.8c-0.1,0.4-0.2,1-0.3,1.8s-0.3,1.8-0.5,2.8c-0.2,1-0.3,1.9-0.5,2.9c-0.2,1-0.2,1.5-0.3,1.8c0,0,0,0.2,0,0.3
		s0,0.2,0,0.3c0,0.2,0.1,0.4,0.3,0.5c0.2,0.2,0.4,0.3,0.6,0.4s0.5,0.2,0.8,0.3c0.2,0.1,0.4,0.1,0.6,0.1h0.2c0.1-0.1,0.2-0.1,0.2-0.2
		c0.1-0.1,0.1-0.1,0.2-0.2c0.2,0,0.5,0,0.9-0.1l1.3-0.1l1.2-0.1c0.4,0,0.7-0.1,0.9-0.1s0.6-0.1,1.2-0.2s1.2-0.3,1.8-0.5
		s1.4-0.4,2.1-0.7c0.7-0.3,1.4-0.5,2.1-0.7c0.7-0.2,1.2-0.4,1.5-0.6c0.4-0.2,0.7-0.4,0.7-0.5c0.1-0.5,0.3-0.9,0.3-1.3
		c0.1-0.6,0.2-1.2,0.4-1.9c0.2-0.7,0.3-1.4,0.5-2.1c0.2-0.7,0.4-1.3,0.7-2c0.2-0.5,0.5-1.1,0.9-1.4c0.3-0.4,0.7-0.6,1.1-0.6
		c0.4,0,0.9,0.2,1.2,0.5c0.3,0.3,0.5,0.7,0.7,1.2c-0.1,0.2-0.2,0.6-0.3,1.2c-0.1,0.6-0.3,1.1-0.5,1.7l-0.6,1.9l-0.5,2
		c-0.2,0.7-0.3,1.2-0.4,1.7l-0.2,1.2c0,0.2-0.1,0.6-0.2,1.2c-0.1,0.6-0.2,1.2-0.3,2c-0.1,0.7-0.2,1.3-0.2,2s-0.1,1-0.1,1.2
		c-0.1,0.6-0.1,1.1-0.1,1.6c0,0.8-0.1,1.6-0.2,2.7s-0.2,2-0.4,3.1c-0.2,1-0.4,2-0.7,3c-0.2,0.8-0.6,1.5-1.1,2.2
		c-0.3,0.6-0.9,0.9-1.5,0.9c-0.5,0.1-1-0.2-1.2-0.6c-0.4-0.8-0.5-1.6-0.2-2.4c0.1-0.3,0.2-0.7,0.4-1c0.1-0.3,0.3-0.7,0.4-1
		c0.1-0.3,0.2-0.7,0.3-1c0-0.1,0-0.4,0.1-0.8c0.1-0.4,0.1-1.1,0.2-1.7s0.2-1.3,0.2-2.2c0.1-0.8,0.2-1.5,0.3-2.3s0.2-1.5,0.2-2.2
		c0.1-0.7,0.1-1.2,0.2-1.7c0-0.1,0-0.1,0-0.2s0-0.1,0-0.2c-0.5,0.1-1.1,0.2-1.5,0.3c-0.9,0.2-1.9,0.4-3.2,0.7l-3.8,1l-3.8,1l-4,1.1
		c-0.5,0.5-0.8,1.2-0.9,1.8c-0.2,0.8-0.3,1.6-0.4,2.5c-0.1,0.9-0.1,1.7-0.1,2.5c0,0.7-0.1,1.2-0.2,1.8c-0.1,0.2-0.2,0.5-0.3,1
		c-0.1,0.5-0.3,1-0.5,1.4c-0.2,0.5-0.3,1-0.5,1.4c-0.2,0.5-0.3,0.8-0.4,0.9c-0.1,0.1-0.3,0.2-0.4,0.2l-0.4,0.2H712
		c-0.5,0.1-1-0.3-1.2-0.8c-0.2-0.5-0.3-1-0.3-1.4C710.5,116,710.6,114.9,710.7,113.7z"/>
	<path id="path33" class="st2" d="M744.9,119.2c0-0.9,0.1-1.8,0.3-2.7c0.2-0.9,0.5-1.8,0.8-2.7c0.3-0.9,0.6-1.8,0.9-2.7
		c0.3-0.9,0.6-1.7,0.8-2.6c0-0.2,0.1-0.5,0.2-1c0.1-0.5,0.3-1.1,0.5-1.7c0.2-0.7,0.4-1.3,0.6-2s0.4-1.3,0.5-1.9l0.5-1.4
		c0-0.2,0.1-0.4,0.2-0.6c0.1-0.3,0.3-0.9,0.6-1.7c0.3-0.9,0.6-1.7,0.9-2.6l0.9-2.6c0.3-0.9,0.5-1.3,0.6-1.7c0.2-0.7,0.5-1.3,0.7-2.1
		s0.5-1.4,0.9-2.2c0.4-0.7,0.8-1.3,1.2-1.9s1.2-1.1,1.9-1.2c0.3,0.4,0.7,0.7,1.2,0.9s0.9,0.4,1.2,0.7c0.9,0.7,1.6,1.6,2,2.7
		c0.5,1.1,0.9,2.1,1.2,3.2c0,0.6,0.1,1.5,0.1,2.8c0.1,1.2,0.1,2.7,0.2,4.3s0.2,3.3,0.2,5s0.2,3.5,0.2,5c0,1.5,0.2,3.1,0.2,4.3
		c0.1,1.2,0.1,2.2,0.1,2.8v1.3c0,0.2,0,0.4,0,0.7c0,0.3-0.1,0.5-0.1,0.8c-0.1,0.2-0.2,0.4-0.3,0.6c-0.2,0.2-0.5,0.3-0.7,0.2
		c-0.3,0-0.6-0.1-0.8-0.4s-0.3-0.5-0.4-0.8c-0.1-0.2-0.1-0.5-0.2-0.9c-0.1-0.4-0.2-0.8-0.3-1.1s-0.2-0.7-0.2-1.1
		c0-0.2-0.1-0.4-0.1-0.6c0-0.3-0.1-0.9-0.1-1.6c0-0.8-0.1-1.6-0.2-2.5s-0.1-1.7-0.1-2.5c0-0.8,0-1.3,0-1.6l-2.2,0.4
		c-0.9,0.1-1.7,0.2-2.6,0.3c-0.9,0.1-1.8,0.2-2.7,0.2c-0.8,0-1.6,0-2.4,0c0,0.1-0.1,0.2-0.2,0.5c-0.1,0.2-0.2,0.5-0.2,0.7
		c0,0.2-0.2,0.5-0.3,0.8c-0.1,0.3-0.1,0.4-0.2,0.5c-0.4,0.8-0.7,1.6-0.9,2.5c-0.3,1-0.5,1.9-0.8,2.9s-0.4,2-0.5,3
		c-0.1,0.9-0.2,1.7-0.2,2.7c-0.1,0.1-0.3,0.3-0.6,0.6c-0.2,0.2-0.4,0.4-0.6,0.6h-0.3c-0.3,0-0.6-0.1-0.8-0.2
		c-0.2-0.2-0.3-0.4-0.4-0.6c-0.1-0.2-0.2-0.5-0.2-0.8C744.9,119.7,744.9,119.5,744.9,119.2L744.9,119.2z M757.1,86.6
		c-0.7,1.2-1.3,2.4-1.8,3.7c-0.6,1.4-1.1,2.9-1.4,4.3c-0.5,1.5-0.9,3-1.2,4.4s-0.7,2.8-1.1,4h8.6l0.4-0.4v-0.2c0-0.1,0-0.3,0-0.5
		s0-0.3,0-0.5v-0.5c0-1.7,0-3.5-0.1-5.1s-0.2-3.4-0.3-5.1c-0.2-0.4-0.5-0.8-0.8-1.2l-1-1.1c-0.3-0.3-0.6-0.7-0.9-1.1
		C757.3,87.4,757.2,87,757.1,86.6L757.1,86.6z"/>
	<path id="path35" class="st2" d="M770.4,119c0.7-2.3,1.4-4.5,2.2-6.7s1.6-4.4,2.5-6.5c0.1-0.3,0.2-0.7,0.3-1
		c0.1-0.4,0.1-0.7,0.2-1.1c0.1-0.3,0.1-0.7,0.2-1s0.3-0.7,0.5-0.9l3.6-10.9c0.3-0.2,0.6-0.5,0.7-0.9c0.2-0.5,0.3-1,0.4-1.4
		c0.1-0.5,0.2-1.1,0.3-1.6c0.1-0.6,0.3-1.1,0.5-1.5c0.2-0.5,0.5-0.9,0.9-1.2c0.4-0.3,1-0.5,1.4-0.5h0.2c0.2,0.1,0.3,0.3,0.4,0.4
		c0.1,0.1,0.3,0.3,0.4,0.4V85l-0.4,1.9v0.7l0.4,1.2c0,0.2,0.1,0.7,0.2,1.2c0.1,0.6,0.2,1.2,0.4,1.9c0.1,0.7,0.3,1.2,0.4,1.9
		c0.1,0.6,0.2,1,0.2,1.2c0.3,1.1,0.6,1.9,0.8,2.7c0.2,0.8,0.5,1.6,0.8,2.6l0.8,2.7l0.7,2.3c0.2,0.7,0.4,1.2,0.5,1.4s0.2,0.6,0.4,1.1
		l0.6,1.5c0.2,0.6,0.5,1.2,0.7,1.7s0.5,1.2,0.8,1.6c0.2,0.4,0.5,0.8,0.7,1.2c0.2,0.3,0.4,0.5,0.6,0.5c0.3,0,0.7-0.4,1.1-1.1
		c0.5-0.9,0.9-1.8,1.2-2.8c0.4-1.2,0.8-2.4,1.2-3.7c0.4-1.3,0.9-2.6,1.2-3.8c0.4-1.2,0.8-2.2,1.2-3.1c0.2-0.6,0.6-1.2,1.1-1.6
		c0-0.1,0.1-0.4,0.1-0.7c0-0.3,0.1-0.7,0.2-1.1s0.2-0.8,0.2-1.1c0-0.2,0.1-0.5,0.2-0.7c0.1-0.3,0.3-0.8,0.5-1.4
		c0.2-0.7,0.5-1.2,0.8-1.8s0.6-1.1,1-1.6c0.4-0.5,0.7-0.7,1-0.7c0.4,0,0.9,0,1.2,0.2c0.2,0.2,0.3,0.6,0.3,1.2c0,0.5,0,1-0.2,1.5
		c-0.1,0.5-0.2,0.9-0.4,1.3c-0.2,0.4-0.3,0.8-0.5,1.2c-0.2,0.5-0.4,0.9-0.6,1.3l-2.3,7c-0.5,0.5-0.8,1.1-1,1.6
		c-0.4,0.9-0.7,2-1.1,3.3c-0.4,1.2-0.8,2.7-1.1,4.1c-0.4,1.4-0.8,2.9-1.2,4.1s-0.7,2.5-1.1,3.6c-0.2,0.8-0.6,1.4-1,2.1h-1
		c-0.3,0-0.7,0-1-0.1c-0.2-0.1-0.4-0.3-0.5-0.5c-0.1-0.3-0.2-0.6-0.2-0.9c0-0.4-0.1-0.8-0.1-1.3c-0.6-0.2-1.1-0.6-1.3-1.1
		c-0.5-0.6-1-1.2-1.2-1.9c-0.4-0.8-0.8-1.6-1.2-2.5s-0.8-1.8-1.1-2.7c-0.3-0.9-0.6-1.7-0.9-2.5c-0.3-0.8-0.5-1.3-0.6-1.8l-0.5-1.3
		c-0.2-0.8-0.5-1.5-0.8-2.3s-0.5-1.6-0.8-2.3c-0.2-0.8-0.4-1.2-0.5-1.3c-0.1-0.3-0.2-0.7-0.3-1c-0.1-0.5-0.3-1.1-0.4-1.6
		c-0.1-0.6-0.3-1.2-0.4-1.6c-0.1-0.5-0.2-0.8-0.2-1s-0.1-0.4-0.2-0.7c0-0.2-0.1-0.4-0.2-0.5c0,0,0,0-0.1-0.1h0.3
		c-0.1,0-0.2,0-0.2,0.1c0,0.2-0.1,0.5-0.2,0.9c-0.1,0.4-0.3,0.9-0.4,1.4c-0.2,0.6-0.3,1.2-0.5,1.7c-0.2,0.6-0.4,1.2-0.5,1.6
		s-0.3,1-0.5,1.2c-0.2,0.3-0.2,0.5-0.2,0.5l-3.6,11.7c-0.2,0.4-0.4,0.9-0.6,1.3c-0.2,0.6-0.4,1.2-0.6,1.9s-0.5,1.4-0.7,2.2
		c-0.2,0.7-0.5,1.4-0.8,2.1c-0.2,0.6-0.5,1.1-0.9,1.5c-0.2,0.4-0.6,0.6-1,0.6c-0.3,0-0.6-0.1-0.8-0.3s-0.4-0.5-0.5-0.8
		c-0.1-0.3-0.2-0.6-0.3-0.9L770.4,119z"/>
	<path id="path37" class="st2" d="M811.9,119.2c0-0.9,0.1-1.8,0.3-2.7c0.2-0.9,0.5-1.8,0.8-2.7c0.3-0.9,0.6-1.8,0.9-2.7
		c0.3-0.9,0.6-1.7,0.8-2.6c0-0.2,0.1-0.5,0.2-1c0.1-0.5,0.3-1.1,0.5-1.7c0.2-0.7,0.4-1.3,0.5-2c0.2-0.7,0.4-1.3,0.6-1.9
		s0.3-1.1,0.5-1.4c0-0.2,0.1-0.4,0.2-0.6c0.1-0.3,0.3-0.9,0.6-1.7c0.3-0.9,0.6-1.7,0.9-2.6l0.9-2.6c0.3-0.9,0.5-1.3,0.6-1.7
		c0.2-0.7,0.5-1.3,0.7-2.1s0.6-1.4,0.9-2.2c0.3-0.7,0.8-1.3,1.2-1.9s1.2-1,1.9-1.2c0.3,0.4,0.7,0.7,1.2,0.9s0.9,0.4,1.2,0.7
		c0.9,0.8,1.6,1.6,2.1,2.7s0.8,2.1,1.2,3.2c0,0.6,0.1,1.5,0.1,2.8c0.1,1.2,0.1,2.7,0.2,4.3s0.2,3.3,0.2,5s0.2,3.5,0.2,5
		c0,1.5,0.2,3.1,0.2,4.3c0.1,1.2,0.1,2.2,0.1,2.8v1.2c0,0.2,0,0.4,0,0.7c0,0.3-0.1,0.5-0.1,0.8c-0.1,0.2-0.2,0.4-0.3,0.6
		c-0.2,0.2-0.5,0.3-0.7,0.2c-0.3,0-0.6-0.1-0.8-0.4c-0.2-0.2-0.3-0.5-0.4-0.8c-0.1-0.2-0.1-0.5-0.2-0.9c-0.1-0.4-0.2-0.8-0.3-1.1
		l-0.2-1.1c0-0.2-0.1-0.4-0.1-0.6c0-0.3-0.1-0.9-0.1-1.6s-0.1-1.6-0.1-2.5s-0.1-1.7-0.1-2.5c0-0.8,0-1.3,0-1.6l-2.2,0.4
		c-0.9,0.1-1.7,0.2-2.6,0.3c-0.9,0.1-1.7,0.2-2.7,0.2c-0.8,0-1.6,0-2.4,0c0,0.1-0.1,0.2-0.1,0.5c-0.1,0.2-0.2,0.5-0.2,0.7l-0.3,0.8
		c-0.1,0.2-0.1,0.4-0.2,0.5c-0.4,0.8-0.7,1.6-0.9,2.5c-0.3,1-0.5,1.9-0.8,2.9s-0.4,2-0.5,3s-0.2,1.8-0.2,2.7
		c-0.2,0.2-0.4,0.4-0.6,0.6c-0.2,0.2-0.4,0.4-0.6,0.6h-0.2c-0.3,0-0.6-0.1-0.8-0.2c-0.2-0.2-0.3-0.4-0.4-0.6
		c-0.1-0.2-0.2-0.5-0.2-0.8C811.9,119.7,811.9,119.5,811.9,119.2L811.9,119.2z M824.1,86.6c-0.7,1.2-1.3,2.4-1.8,3.7
		c-0.6,1.4-1.1,2.9-1.4,4.3c-0.5,1.5-0.9,3-1.2,4.4s-0.7,2.8-1.1,4h8.6l0.4-0.4v-0.2c0-0.1,0-0.3,0-0.5s0-0.3,0-0.5v-0.5
		c0-1.7,0-3.5-0.1-5.1s-0.2-3.4-0.3-5.1c-0.2-0.4-0.5-0.8-0.8-1.2l-1-1.1c-0.3-0.3-0.6-0.7-0.9-1.1C824.4,87.4,824.2,87,824.1,86.6
		L824.1,86.6z"/>
	<path id="path39" class="st3" d="M651,96.7c2.4-0.2,4.8-0.8,7.1-0.5c5.2,0.6,8.4,4,8.4,8.3s-3.8,7.1-9.1,7.4
		c-1.2,0-2.6-0.1-3.8-0.2c1.2,3.4,2.3,6.6,3.3,9.9c0.4,1.3,0.5,2.8,0.3,4.2c-0.7,6-6.3,8.6-11,4.9c-2.3-1.8-3.7-4.8-5.4-7.4
		c-0.6-1.2-1.1-2.5-1.3-3.7c-6.2,5-13,7.6-20.7,6.4c-5.5-0.9-9.3-4.2-9.9-8.5c-0.5-4.1,2.6-8.4,7.9-10.3c2.8-1.1,5.7-1.7,8.4-2.5
		c-3.2-2.9-6.4-5.9-9.7-8.9c-1-1-1.7-2-2.3-3.2c-1.6-2.7-2.7-5.6-0.6-8.4c1.9-2.7,5.4-3.6,8.4-2.4c3.6,1.5,6.9,3.6,10.1,5.8
		c1.3,0.9,2.3,2.4,3.7,4c0.4-2.4,0.7-4.4,1.2-6.4c0.8-3.9,3.2-7.4,6.5-9.5c3.9-2.4,7.5-1.2,9.3,3.1c1.7,4.3,1.7,9,0.2,13.3
		c-0.5,1.3-0.9,2.7-1.2,4.1V97L651,96.7z"/>
</g>
<g>
	<path class="st4" d="M215,62.6c0.1-0.1,0.2-0.2,0.5-0.4c0.3-0.2,0.4-0.4,0.4-0.4c0-0.4-0.1-1-0.4-1.6c-0.2-0.7-0.4-1-0.5-1h-7.9
		c-0.5,0-0.7-0.2-0.8-0.7c-0.1-0.4-0.1-0.8-0.1-1.1c0-0.4,0-0.7,0.1-1c0.1-0.3,0.4-0.6,0.8-0.7l13.2-4.4c0.2-0.8,0.9-2.1,2.1-3.8
		c1.2-1.7,2.7-3.6,4.4-5.7c1.7-2.1,3.6-4.3,5.7-6.5c2-2.2,4-4.2,5.9-6c1.9-1.8,3.6-3.3,5-4.5c1.5-1.2,2.6-1.8,3.2-1.8
		c1.1,0,1.9,0.1,2.6,0.4c0.7,0.3,1,1,1,2.2c0,1.5-0.4,2.9-1.3,4.3c-0.8,1.4-1.9,2.9-3.2,4.3c-1.3,1.4-2.7,2.8-4.3,4.2
		c-1.6,1.4-3,2.8-4.5,4.2c-1.4,1.4-2.7,2.8-3.9,4.3c-1.1,1.4-1.9,2.9-2.3,4.3c1.8,0.4,3.5,0.8,5.3,1.5c1.8,0.6,3.4,1.5,4.8,2.5
		c1.4,1,2.6,2.3,3.5,3.8c0.9,1.5,1.4,3.3,1.4,5.4c0,1.1-0.4,2.2-1.3,3.6c-0.8,1.3-1.9,2.6-3.1,3.7s-2.5,2.2-3.8,2.9
		c-1.3,0.8-2.4,1.2-3.2,1.2h-13.2c-1.2,0-2.2-0.5-3-1.6c-0.8-1.1-1.4-2.3-1.9-3.8c-0.5-1.4-0.8-2.9-1-4.3c-0.2-1.4-0.3-2.5-0.3-3.1
		V62.6z M223.7,66.8c0,0.6,0.3,0.9,1,1.1c0.2,0,0.7,0,1.5,0c0.8,0,1.3,0,1.5,0c0.8,0,1.7-0.1,2.9-0.3c1.1-0.2,2.3-0.5,3.3-1
		c1.1-0.4,2-1,2.8-1.7c0.8-0.7,1.2-1.5,1.2-2.4c0-1-0.4-1.7-1.1-2.2c-0.7-0.5-1.6-0.8-2.5-1.1c-1-0.2-1.9-0.3-2.9-0.3
		c-1,0-1.8,0-2.3,0c-0.2,0-0.5,0-0.9,0c-0.4,0-0.8,0-1.3,0c-0.5,0-0.9,0-1.3,0c-0.4,0-0.7,0-0.9,0c-0.4,1.3-0.7,2.4-0.8,3.2
		c-0.1,0.8-0.2,1.8-0.2,3C223.7,65.7,223.7,66.2,223.7,66.8z"/>
</g>
</svg>
