<?xml version="1.0" encoding="utf-8"?>
<!-- Generator: Adobe Illustrator 25.4.1, SVG Export Plug-In . SVG Version: 6.00 Build 0)  -->
<svg version="1.1" id="レイヤー_1" xmlns="http://www.w3.org/2000/svg" xmlns:xlink="http://www.w3.org/1999/xlink" x="0px"
	 y="0px" viewBox="0 0 320 40" style="enable-background:new 0 0 320 40;" xml:space="preserve">
<style type="text/css">
	.st0{fill-rule:evenodd;clip-rule:evenodd;fill:#FFFFFF;}
	.st1{fill:#FFFFFF;}
</style>
<g id="レイヤー_2_00000074426585338152913350000013662151751807715235_">
	<g id="txt">
		<path class="st0" d="M58.9,11.7c-0.9-0.9-2.1-1.4-3.4-1.5c-1.2,0.1-2.4,0.5-3.3,1.4L37.9,26.4L25.2,12.8L4.6,12.9l0.1,2.2h2.9
			l14.6,16.3c0,0,3,2.6,5.2,0.8c1.2-0.9,1.5-2.6,0.6-3.8c0,0,0,0,0,0L16.4,15h2.2l16,17.9c0.9,0.8,2.1,1.3,3.3,1.5
			c1.1-0.1,2.1-0.5,3-1.2l10.4-10.8l8.8,9.5l17.8,0.3L58.9,11.7z"/>
		<path class="st0" d="M39.9,5.6c1-0.1,2,0.1,2.9,0.4c0.1,0,0.2,0,0.3,0v0.1l0.6,0.2v0.1l0.4,0.1l0.1,0.2h0.2
			c0.1,0.1,0.2,0.3,0.3,0.4c0.1,0,0.1,0,0.2,0c0,0.1,0.1,0.1,0.1,0.2l0.4,0.3v0.2L46,8.2v0.2l0.2,0.1c0,0.1,0.1,0.3,0.1,0.4h0.1
			c0.1,0.2,0.2,0.4,0.2,0.6h0.1v0.3h0.1c0,0.2,0.1,0.5,0.1,0.7h0.1v0.5c0.2,1,0.1,2-0.3,2.9v0.3h-0.1c-0.1,0.2-0.1,0.4-0.2,0.6h-0.1
			c0,0.1-0.1,0.3-0.1,0.4L46,15.6v0.2l-0.4,0.3v0.2l-0.2,0.1l-0.3,0.4h-0.2l-0.3,0.4h-0.2c0,0.1-0.1,0.1-0.1,0.2h-0.2l-0.2,0.2h-0.2
			v0.1h-0.2c0,0,0,0.1,0,0.1h-0.2V18h-0.3v0.1h-0.3c0,0,0,0.1,0,0.1h-0.4v0.1h-0.6v0.1c-1.1,0.1-2.2-0.1-3.3-0.4v-0.1h-0.2v-0.1
			h-0.2v-0.1h-0.2l-0.2-0.2h-0.2l-0.1-0.2H37l-0.3-0.4h-0.2l-0.1-0.2L36,16.3v-0.2l-0.4-0.3c0-0.1,0-0.1,0-0.2l-0.2-0.1
			c0-0.1-0.1-0.3-0.1-0.4h-0.1c-0.1-0.2-0.1-0.4-0.2-0.6h-0.1c-0.1-0.4-0.1-0.7-0.2-1c-0.2-0.7-0.3-1.5-0.2-2.2h0.1v-0.6h0.1v-0.4
			h0.1V9.9h0.1V9.6h0.1V9.4H35V9.2h0.1V9l0.2-0.2V8.6c0.1,0,0.1-0.1,0.2-0.1c0-0.1,0-0.2,0-0.2L36,8V7.7l0.2-0.1l0.3-0.4h0.2
			l0.3-0.4h0.2c0.1-0.1,0.1-0.1,0.1-0.2h0.2l0.2-0.2h0.2V6.2c0.1,0,0.1,0,0.2,0c0,0,0-0.1,0-0.1L39.9,5.6"/>
		<path class="st1" d="M105,22.8h-2.4v9.8h-2.9V9.1h5.3c3.6,0,5.6,1.7,5.6,6.9S108.5,22.8,105,22.8z M104.9,11.7h-2.3v8.6h2.3
			c1.9,0,2.8-1.1,2.8-4.3S106.8,11.7,104.9,11.7z"/>
		<path class="st1" d="M123.4,32.6l-3.2-10.1h-2.5v10.1h-2.8V9.1h5.3c3.6,0,5.5,1.6,5.5,6.7c0,3.3-0.8,5.2-2.8,6.1l3.6,10.7H123.4z
			 M120.1,11.6h-2.5v8.3h2.5c2.2,0,2.7-1.7,2.7-4.2S122.3,11.7,120.1,11.6L120.1,11.6z"/>
		<path class="st1" d="M139.6,31.2c-2.1,2.2-5.7,2.3-7.9,0.2c-0.1-0.1-0.1-0.1-0.2-0.2c-1.5-1.7-1.7-3.8-1.7-10.3s0.2-8.6,1.8-10.3
			c2.1-2.2,5.7-2.3,7.9-0.1c0,0,0.1,0.1,0.1,0.1c1.5,1.7,1.7,3.8,1.7,10.3S141.2,29.5,139.6,31.2z M137.5,12.3
			c-0.5-0.6-1.2-0.9-1.9-0.9c-0.8-0.1-1.5,0.3-2,0.9c-0.8,1.1-0.9,3-0.9,8.6s0.1,7.5,0.9,8.6c0.5,0.6,1.2,0.9,2,0.9
			c0.7,0,1.5-0.3,1.9-0.9c0.8-1.1,1-3,1-8.6S138.4,13.4,137.5,12.3z"/>
		<path class="st1" d="M155.1,31c-1,1.1-2.5,1.7-4,1.6h-5.4V9.1h5.4c1.5-0.1,3,0.5,4,1.7c1.5,1.6,1.7,3.7,1.7,10.1
			S156.6,29.3,155.1,31z M153,12.6c-0.5-0.6-1.2-0.9-2-0.9h-2.5v18.4h2.5c0.8,0,1.5-0.3,2-0.9c0.9-1.1,1-2.9,1-8.3
			S153.9,13.6,153,12.6z"/>
		<path class="st1" d="M170.3,31.3c-1,1-2.5,1.6-3.9,1.5c-1.5,0-2.9-0.5-3.9-1.5c-1-1.1-1.6-2.6-1.5-4.1V9.1h2.8v18.3
			c-0.2,1.4,0.8,2.7,2.3,2.9c1.4,0.2,2.7-0.8,2.9-2.3c0-0.2,0-0.4,0-0.6V9.1h2.8v18.1C171.8,28.8,171.3,30.2,170.3,31.3z"/>
		<path class="st1" d="M185.3,31.6c-1,0.9-2.3,1.3-3.7,1.3c-1.5,0.1-3-0.6-4-1.7c-1.6-1.8-1.7-3.8-1.7-10.3s0.2-8.5,1.7-10.3
			c2.1-2.2,5.5-2.3,7.8-0.3c1.1,1.3,1.8,2.9,1.7,4.6h-2.8c0-0.9-0.2-1.9-0.8-2.7c-0.5-0.6-1.2-0.9-1.9-0.9c-0.8,0-1.5,0.3-1.9,0.9
			c-0.8,1.1-1,3-1,8.6s0.1,7.5,1,8.6c0.5,0.6,1.2,0.9,1.9,0.9c0.7,0,1.4-0.3,1.9-0.8c0.5-0.8,0.8-1.7,0.8-2.7h2.8
			C187.1,28.6,186.5,30.3,185.3,31.6z"/>
		<path class="st1" d="M196.5,11.7v20.9h-2.9v-21h-4V9.1h10.7v2.5H196.5z"/>
		<path class="st1" d="M222.7,32.6V15.9l-3.7,11h-1.8l-3.7-10.7v16.4h-2.8V9.1h2.7l4.8,13.1l4.7-13.1h2.7v23.5H222.7z"/>
		<path class="st1" d="M232.4,32.6V9.1h9.1v2.5h-6.2v7.9h5.4v2.5h-5.4v8h6.2v2.5H232.4z"/>
		<path class="st1" d="M247.6,32.6V9.1h2.8v23.5H247.6z"/>
		<path class="st1" d="M266.2,31.4c-1.2,1-2.6,1.5-4.2,1.4c-1.5,0.1-3-0.4-4.1-1.4c-1.1-1.1-1.5-2.5-1.5-4.9h2.8
			c0,1.5,0.2,2.4,0.8,3.1c0.5,0.5,1.3,0.8,2,0.7c0.7,0,1.5-0.2,2-0.8c0.6-0.7,0.8-1.6,0.8-3.1c0-2.7-0.4-3.5-2.3-4.3l-2.7-1.1
			c-2.4-1-3.2-2.3-3.2-5.9c-0.1-1.8,0.5-3.5,1.8-4.8c1-0.9,2.4-1.4,3.7-1.4c1.4-0.1,2.8,0.4,3.9,1.4c1.1,1.2,1.5,2.7,1.5,4.8h-2.8
			c0.1-1-0.2-2-0.7-2.8c-0.5-0.5-1.2-0.8-1.9-0.8c-0.7,0-1.3,0.2-1.8,0.7c-0.6,0.8-0.9,1.8-0.8,2.8c0,2.3,0.4,3,2.2,3.8l2.6,1.1
			c2.7,1.1,3.3,2.7,3.3,6.4C267.6,28.7,267.3,30.3,266.2,31.4z"/>
		<path class="st1" d="M279.2,11.7v20.9h-2.8v-21h-4V9.1h10.7v2.5H279.2z"/>
		<path class="st1" d="M288.6,32.6V9.1h9v2.5h-6.2v7.9h5.4v2.5h-5.4v8h6.2v2.5H288.6z"/>
		<path class="st1" d="M312.4,32.6l-3.2-10.1h-2.5v10.1h-2.8V9.1h5.3c3.6,0,5.5,1.6,5.5,6.7c0,3.3-0.8,5.2-2.8,6.1l3.6,10.7H312.4z
			 M309.1,11.6h-2.5v8.3h2.5c2.2,0,2.7-1.7,2.7-4.2S311.3,11.7,309.1,11.6L309.1,11.6z"/>
	</g>
</g>
</svg>
