<svg xmlns="http://www.w3.org/2000/svg" viewBox="0 0 373.49 36.66"><defs><style>.cls-1,.cls-2{fill:#fff;}.cls-2{fill-rule:evenodd;}</style></defs><g id="レイヤー_2" data-name="レイヤー 2"><g id="txt"><path class="cls-1" d="M117.84,16.19A9,9,0,0,1,115,11.26c0,1.55.1,4.05.1,5.6,0,.33,0,1-1,1-.65,0-.65-.41-.66-.63,0,0,0-.46,0-.69.07-1.88.08-2.51.1-4.11a12.37,12.37,0,0,1-4.22,3.93l-.07-.09a12.68,12.68,0,0,0,3.39-5.46h-.61a8.25,8.25,0,0,0-1.52.1.76.76,0,0,1,0,.31.8.8,0,0,1-.79.84c-.48,0-.53-.32-.63-1.12a2.8,2.8,0,0,0-.36-1.08c0,1.13,0,6.08.05,7.09,0,.26,0,.89-.94.9-.6,0-.6-.27-.6-.61,0-1.6.13-4.13.13-5.73a10.3,10.3,0,0,1-2.31,3l-.09-.08A18.56,18.56,0,0,0,107.31,8a8.4,8.4,0,0,0-1.67.11l-.26-.55c.85.07,1.76.08,2.08.09a18.31,18.31,0,0,0-.21-3.35l1.86.42c.13,0,.24.07.24.19s-.12.21-.5.48c0,.24,0,.8,0,1.21,0,.15,0,.89,0,1H109l.44-.8c0-.06.12-.19.22-.19s.18.07.28.17l.7.77c.1.11.13.15.13.24s-.1.16-.22.16h-1.74a14.63,14.63,0,0,0,0,1.5,2.93,2.93,0,0,1,1.45.9c.87.07,1.86.08,2.07.08h1.23V7.92h-1.7a13.8,13.8,0,0,1-1.64,2.16l-.1-.07a13.92,13.92,0,0,0,1.07-4.38c0-.25,0-.45,0-.61l1.82.71a.24.24,0,0,1,.18.22c0,.17-.16.25-.52.37a13.18,13.18,0,0,1-.57,1.24h1.51c0-2.43,0-2.59-.34-3.31l2,.4c.1,0,.28.08.28.21s-.08.25-.52.54c0,.33,0,1.85,0,2.15h1l.61-.9a.31.31,0,0,1,.23-.18c.09,0,.16.07.27.14l1.12.91c.11.07.15.14.15.21s-.13.17-.23.17H115c0,.84,0,2.11,0,2.51h1.47l.68-1c.06-.07.14-.18.22-.18a.49.49,0,0,1,.28.15l1.12,1a.32.32,0,0,1,.14.22c0,.15-.13.16-.22.16l-3.54,0a7.54,7.54,0,0,0,4.11,3.8v.1a2.42,2.42,0,0,0-1.39,1.5"/><path class="cls-1" d="M133.2,7.88h-4.74c.15,1.27.56,4.62,2.38,6.87.08.1.47.57.81.57s.47-.34,1.36-2.15l.1,0c-.17.93-.33,2.4-.33,2.61a.94.94,0,0,0,.23.6,1.08,1.08,0,0,1,.22.58.72.72,0,0,1-.77.69,4.83,4.83,0,0,1-2.83-1.9c-1.65-2.23-2.24-4.71-2.71-7.9l-5,0a7.21,7.21,0,0,0-1.6.1L120,7.47c.9.08,2,.09,2.11.09l4.74,0c-.08-.49-.11-.59-.29-2.27a3.71,3.71,0,0,0-.23-1.09l2.18.47c.15,0,.32.08.32.21s-.17.27-.57.45c0,.39,0,.9.12,2.23h2.47l.76-1.06c.11-.17.17-.19.21-.19s.26.14.29.17l1.14,1c.09.09.14.13.14.22s-.13.16-.22.16m-11.75,9c0,.18-.11.39-.28.39s-.25-.17-.31-.31L120,15h.49a19.05,19.05,0,0,0,2.62-.35l0-3.85h-.8a6.73,6.73,0,0,0-1.6.11l-.26-.55c.71.06,1.41.09,2.12.09h2.29l.64-1s.11-.18.22-.18.17.08.26.15l1.11,1c.08.06.16.13.16.22s-.14.16-.23.17h-2.39v3.58c1.62-.34,2.44-.54,3.28-.79l.05.12a31.18,31.18,0,0,1-6.45,3.11m9.32-10c-.45,0-.55-.25-.81-.87a4.58,4.58,0,0,0-.83-1.27l.06-.12c1,.15,2.41.35,2.41,1.44a.84.84,0,0,1-.83.82"/><path class="cls-1" d="M117.3,26.89a9.68,9.68,0,0,1-5.15-5.07,14.66,14.66,0,0,1-7,5.61l0-.11c3.07-2.16,5.17-5.41,5.51-6.86l1.92.61c.12,0,.29.11.29.24s-.16.22-.46.32a9.75,9.75,0,0,0,6.35,3.52v.11a2.48,2.48,0,0,0-1.43,1.63m.4,1.95-6,0a22.06,22.06,0,0,1-2.22,3.08c3.49-.19,4.22-.22,5.2-.37a11.77,11.77,0,0,0-1.58-1.89l.07-.11c.66.21,4.1,1.38,4.1,3.48a1,1,0,0,1-.93,1c-.53,0-.76-.4-.94-.9a6.6,6.6,0,0,0-.56-1.29,66.13,66.13,0,0,1-7.16,1.93c-.07.22-.13.37-.28.37s-.21-.13-.27-.25l-.9-2a6,6,0,0,0,1.33.15l1.31-.07a19.3,19.3,0,0,0,.83-3.12H107.6A6.82,6.82,0,0,0,106,29l-.25-.55c.7.06,1.4.08,2.11.08l7.33,0,.8-1c.09-.12.16-.2.23-.2s.15.06.27.16l1.27,1a.26.26,0,0,1,.15.23c0,.14-.15.15-.22.16m-3.24-2.5h-4.33a8.91,8.91,0,0,0-1.6.09l-.24-.53c.89.07,1.94.08,2.1.08h1.82l.73-1c.08-.11.15-.19.23-.19s.2.1.28.17l1.08.94c.09.07.15.14.15.22s-.13.17-.22.17"/><path class="cls-1" d="M125.64,29.16c-.44,0-.64-.39-.92-.92a8.35,8.35,0,0,0-1-1.42c0,2.62,0,3.27,0,3.46,0,.47.08,2.55.08,3,0,.67-.8.79-1,.79-.57,0-.59-.39-.59-.65s0-1.09.06-1.51c0-.6,0-.93,0-3.84a14.93,14.93,0,0,1-2.69,1.85l-.07-.11A18.16,18.16,0,0,0,123.81,24h-2a7,7,0,0,0-1.59.1l-.24-.54c.87.07,1.86.08,2,.08h.29a8.75,8.75,0,0,0-.36-3l2.1.49c.1,0,.27.06.27.21s-.27.3-.52.46c0,.28,0,.57,0,1.82h.16l.43-.47c.08-.11.13-.16.21-.17a.41.41,0,0,1,.27.14l1,.87a.25.25,0,0,1,.12.19c0,.25-.34.34-.73.42a16.18,16.18,0,0,1-1.5,2c.44.07,2.6.53,2.6,1.84a.8.8,0,0,1-.74.79m7.52,4.1-6.44,0a7,7,0,0,0-1.6.11l-.23-.55c.89.08,1.93.08,2.09.08h1.41c0-2.28,0-4.59,0-6.88h-.89a8.63,8.63,0,0,0-1.59.1l-.25-.54c.9.08,1.95.09,2.11.08h.62c0-4,0-4.09-.46-5.07L130,21c.12,0,.38.09.38.28s-.32.37-.53.49c0,.36,0,3.19,0,3.89h.91l.7-1c.05-.08.13-.18.22-.18a.66.66,0,0,1,.26.16l1.09,1a.3.3,0,0,1,.13.22c0,.14-.12.17-.22.17h-3.09c0,1.1,0,5.92,0,6.89h.94l.85-1.08c.1-.13.16-.19.23-.19a.55.55,0,0,1,.28.15l1,1.08a.39.39,0,0,1,.14.23c0,.14-.14.16-.23.16"/><path class="cls-2" d="M69,7.83A6.78,6.78,0,0,0,64.73,6a6.48,6.48,0,0,0-4.14,1.75L42.31,26.5,26.22,9.16,0,9.24l.14,2.81,3.74,0L22.41,32.84s3.89,3.34,6.69,1a3.51,3.51,0,0,0,.78-4.95L15,12H17.8L38.2,34.8a7.19,7.19,0,0,0,4.15,1.86,6.79,6.79,0,0,0,3.87-1.47L59.42,21.5,70.56,33.64,93.19,34Z"/><path class="cls-2" d="M44.92,0a8.87,8.87,0,0,1,3.74.53h.41V.66l.8.26v.14l.53.13.14.27h.27l.4.53h.26c.05.09.1.18.14.27l.54.39a2.61,2.61,0,0,0,0,.28l.54.4v.26l.26.14.14.53h.13c.09.26.18.52.27.8a.66.66,0,0,1,.14,0v.39h.13c.05.31.09.63.13.94H54v.67a6,6,0,0,1-.39,3.74c0,.14,0,.28,0,.4h-.14c-.09.27-.18.54-.26.81h-.14c0,.17-.09.36-.13.54l-.27.13V13c-.18.13-.36.26-.53.41v.26l-.26.13c-.15.18-.28.36-.41.54h-.26l-.4.54h-.28c0,.09-.08.17-.13.26h-.26l-.27.27h-.27v.12h-.27a.65.65,0,0,1,0,.14h-.25a.65.65,0,0,0,0,.14h-.41v.13H48.3a.53.53,0,0,1,0,.13h-.54v.13c-.22,0-.44,0-.67,0v.14A10.47,10.47,0,0,1,43,15.8v-.13h-.27v-.14h-.27V15.4h-.27l-.27-.27h-.27c0-.09-.08-.18-.13-.27h-.27l-.4-.53h-.27c0-.09-.08-.17-.13-.26l-.53-.41c0-.08,0-.18,0-.26-.17-.14-.36-.27-.54-.4v-.27l-.26-.13c0-.18-.09-.36-.14-.54H38.8l-.27-.8h-.14c-.08-.45-.18-.89-.27-1.34a6.18,6.18,0,0,1-.27-2.8H38V6.45h.12V5.91h.13c0-.14,0-.27,0-.41h.14c0-.14,0-.27,0-.4a.33.33,0,0,1,.14,0V4.84h.13V4.57h.14V4.3L39.05,4c0-.1,0-.18,0-.27l.27-.13c0-.09,0-.18,0-.27L39.84,3V2.69l.27-.13.4-.54h.26c.13-.18.27-.35.4-.54a1.22,1.22,0,0,0,.27,0c.05-.08.09-.17.14-.26h.26L42.1,1h.28V.82h.26V.68L44.92,0"/><path class="cls-1" d="M160.59,15.14a1.76,1.76,0,0,0-.81,1.16c-2.12,6.14-4.5,8.8-6.21,10.34a20.16,20.16,0,0,1-8.83,4.69l0-.2C150.16,28.3,156,21,157.18,13.9a68,68,0,0,0-11,1.86,8.2,8.2,0,0,1-1.39.55A4.76,4.76,0,0,1,142,12.47a2.9,2.9,0,0,1,.4-1.56c1.36,2.14,2.81,2.13,3.51,2.12s10-.6,11.33-1.15a7.62,7.62,0,0,1,1.39-.76c.43,0,1.79,1.52,2.11,1.78.78.67.82.9.82,1.11,0,.49-.12.58-1,1.13m2.75-2.3a2.78,2.78,0,1,1,2.77-2.78,2.78,2.78,0,0,1-2.77,2.78m0-4.34a1.54,1.54,0,1,0,0,3.07,1.54,1.54,0,0,0,0-3.07"/><path class="cls-1" d="M188.3,14.82c-.72.58-.77.64-1.37,3.48-.2.89-1.2,5.44-1.26,5.68a.9.9,0,0,0-.06.31c0,.23.07.27.52.61.82.55,1.11.77,1.11,1.26s-.29.9-1.07.9c-.08,0-.69,0-.84,0-1.21-.09-2.69-.13-4.94-.13a55,55,0,0,0-6.45.31c-.15,1.53-.55,1.76-1,1.77-1,0-2.09-1.85-2.09-3.29,0-.18.05-1,.05-1.19a60.71,60.71,0,0,0-.9-10.15,2.48,2.48,0,0,0-1.91-2,2.76,2.76,0,0,1,1.62-.53,5.87,5.87,0,0,1,2.89.95,1.91,1.91,0,0,0,.93.25c.32,0,9.52-.75,9.89-.81a2.57,2.57,0,0,0,1.73-.81,1.24,1.24,0,0,1,.7-.32c.46,0,1.45.86,1.91,1.29,1.1,1,1.28,1.25,1.28,1.62,0,.2,0,.32-.7.84M183.56,14c-2.17,0-5.67.42-7,.59a20.56,20.56,0,0,1-2.07.27c-.22,0-1.35-.46-1.41-.45s-.14.11-.14.25c0,.87.61,9.92.73,10.59a10.26,10.26,0,0,0,1.35-.07c2.69-.17,5.38-.32,8.1-.51a81.39,81.39,0,0,0,1.09-10c0-.58-.28-.67-.63-.66"/><path class="cls-1" d="M207.92,15.06c-.52.26-.67.46-1,1.19-4.41,8.78-9,13-16.62,15.11l-.09-.2a30,30,0,0,0,9.9-8.74,3.06,3.06,0,0,1-1.51-1.27,12.91,12.91,0,0,0-2.93-2.94A22.16,22.16,0,0,1,190.47,22l-.15-.19c3.38-3.39,7.23-9.91,7.23-11.3,0-.51-.29-.8-1.77-1.44a4.07,4.07,0,0,1,1.85-.58c.89,0,3.56,1.38,3.56,2.3,0,.38-.19.58-.66,1.1a5.35,5.35,0,0,0-.78,1c.73.05,4.42-.24,5.35-.79a6,6,0,0,1,1.07-.64c.47,0,2.64,2.36,2.64,2.79s-.17.38-.89.76m-6.71-.51a5.53,5.53,0,0,1-.73.12A3,3,0,0,1,199,14a23.71,23.71,0,0,1-2.9,3.68,11.38,11.38,0,0,1,3.87.94,2.33,2.33,0,0,1,1.43,1.77A28.11,28.11,0,0,0,204.59,14c-1.13.15-2.26.36-3.38.56m8.55-1.73c-.52,0-.64-.14-1.68-1.4a11,11,0,0,0-2.67-2.37c1,0,5.24.24,5.24,2.67,0,.5-.25,1.1-.89,1.1m2.92-1.19c-.47,0-.55-.12-1.42-1.13a9,9,0,0,0-3-2.48c1.61-.06,5.29.28,5.29,2.45,0,.49-.2,1.15-.86,1.16"/><path class="cls-1" d="M230,15.34c-.63.26-.72.32-1.7,2.15a27.15,27.15,0,0,1-10.72,11.45,19.89,19.89,0,0,1-5.69,2.36l-.09-.2c5.89-3.26,12.26-10.51,14.64-16.73-.69.08-3.52.49-3.64.52a8,8,0,0,1-1.1.27,3.3,3.3,0,0,1-1.27-.52,22.77,22.77,0,0,1-8.08,6.74l-.18-.2c5.81-6.07,7.38-10.44,7.38-10.7,0-.64-1.42-1.44-1.8-1.65a5.19,5.19,0,0,1,1.68-.32c1.27,0,4,1.43,4,2.51,0,.32-.08.37-.83,1a9.68,9.68,0,0,0-1.07,1.22,19.06,19.06,0,0,0,4.89-.57,14.42,14.42,0,0,1,1.59-1c.31,0,1.16.71,1.54,1.06,1.36,1.18,1.5,1.33,1.51,1.62s-.12.49-1.08.9"/><path class="cls-1" d="M246.55,23.13c-.32,0-.67-.14-1.21-.75-3.63-4-4-4.42-5.75-5.19,0,.78,0,4.28.08,7.58,0,.75.21,4.05.21,4.71s-.18,2.11-1.4,2.11-1.91-2.13-1.92-2.88c0-.35.06-.52.23-1.94a85.23,85.23,0,0,0,.23-9.11c0-1.22,0-7-.25-7.87s-1-1-2.47-1.35a3.92,3.92,0,0,1,2.32-.9c1.47,0,3.84.77,3.84,1.69a12.39,12.39,0,0,1-.54,1.59c-.18.61-.26,1-.33,5.76,3.21.26,8.45,1.71,8.46,4.75a1.61,1.61,0,0,1-1.5,1.8"/><path class="cls-1" d="M254.07,22.18a2.71,2.71,0,0,1-2.72-2.71,2.68,2.68,0,0,1,2.7-2.73,2.72,2.72,0,0,1,0,5.44"/><path class="cls-1" d="M283.18,15.85c-.59.17-.73.29-2,1.37-4.5,3.83-5.17,4.4-6.58,5.3,1.21,1,2.78,2.37,2.79,4.16,0,.43-.32,1.94-1.63,1.95-.95,0-1.32-.64-2.22-2.22a22.76,22.76,0,0,0-6.79-6.93A19.76,19.76,0,0,1,273.91,22a83,83,0,0,0,5.62-7.76c-2.55.29-12.61,1.45-14.95,2.65-.57.29-.63.29-.78.28-.89,0-2.69-2.18-2.7-3.72a6,6,0,0,1,.46-2.08c1,2.13,1.37,2.28,3.42,2.27,3,0,13.74-.91,14.54-1.17a3.6,3.6,0,0,0,1.31-.73,1.17,1.17,0,0,1,.69-.32c.46,0,1.44,1.1,2,1.7.4.46,1.13,1.3,1.13,1.77s0,.46-1.47.93"/><path class="cls-1" d="M300.57,11.49c-.69.37-4.14,4.12-4.92,4.87.37.25.78.52,1.15.8.21.15.32.23.32.49,0,.1-.25,1-.28,1.05a6.8,6.8,0,0,0-.14,1.82c0,2.46.19,6.39.2,8.82,0,1.22-.46,2.14-1.27,2.14-1.18,0-1.85-1.84-1.86-2.48,0-.26.25-1.5.29-1.76.11-.66.21-4.37.21-5.62,0-.81,0-3.21-.33-3.7A29.65,29.65,0,0,1,283.8,24l-.11-.19c6-3.86,13.88-13.14,13.87-14.49,0-1-.84-1.54-1.51-2a5.28,5.28,0,0,1,1-.12c2.57,0,4.52,2.59,4.52,3.29,0,.49-.47.72-1,1"/><path class="cls-1" d="M323.28,29.41a1.82,1.82,0,0,1-1.48-1.12c-2.52-4.11-3.49-5.67-5.95-7.65-3.55,4.32-8,8-13.4,9.12l-.06-.23c7.51-3.7,14.11-13.78,15.11-17.46a43,43,0,0,0-7,1.92c-1.21.65-1.35.71-1.58.71-.73,0-2.41-1.7-2.42-3.49a4.11,4.11,0,0,1,.26-1.57c.94,1.51,1.65,2,2.73,2s7.6-.75,8.23-1.3c.15-.12.72-.7.87-.79a.52.52,0,0,1,.38-.11c.35,0,3,2.12,3,2.68,0,.32-.14.43-.69.68a1.78,1.78,0,0,0-1,.88,40.62,40.62,0,0,1-4,6.5,20.13,20.13,0,0,1,7,4.26,4.33,4.33,0,0,1,1.62,3,1.76,1.76,0,0,1-1.58,2"/><path class="cls-1" d="M346.11,14.36c-.63.26-.63.26-1.81,2.49-3.74,7-8.27,11.92-16,13.87l-.08-.2a31.45,31.45,0,0,0,9.83-8.73c-.43-.12-.66-.26-1.22-1a10.69,10.69,0,0,0-3.1-3.2,18.93,18.93,0,0,1-5.17,3.75l-.11-.18c3.72-3.86,7.17-10.14,7.17-11.16,0-.86-1.08-1.24-1.83-1.47a2.85,2.85,0,0,1,1.79-.58c1.42,0,3.62,1.28,3.63,2.3,0,.38-.11.49-.64,1a5.42,5.42,0,0,0-.77,1,19.56,19.56,0,0,0,4.82-.59,11.55,11.55,0,0,1,1.62-.86,8.18,8.18,0,0,1,2.61,2.83c0,.34-.14.4-.78.66M338.48,14c-.38,0-.64-.18-1.37-.61a35.39,35.39,0,0,1-2.91,3.66c1.39,0,4.78.44,5.27,2.69a26.19,26.19,0,0,0,3.17-6.45c-.44.08-3.94.71-4.16.71"/><path class="cls-1" d="M371.65,20.36c-.5,0-1.22-.06-1.34-.06-1.67-.11-5.52-.09-7.61-.09a51.94,51.94,0,0,0-8.09.69,4.76,4.76,0,0,1-1,.23c-1,0-2.76-2.21-2.76-3.7a5.06,5.06,0,0,1,.6-1.9c1,2.25,1.48,2.36,4.73,2.36,1.78,0,11.91-.16,12.6-.39a5.33,5.33,0,0,1,1.16-.29c1.15,0,3.59.48,3.59,2,0,.73-.75,1.17-1.84,1.17"/></g></g></svg>