<svg xmlns="http://www.w3.org/2000/svg" viewBox="0 0 257.38 26.28"><defs><style>.cls-1{fill:none;stroke:#333;stroke-miterlimit:10;}</style></defs><g id="レイヤー_2" data-name="レイヤー 2"><g id="our_story" data-name="our story"><path d="M19.53,23.08,17.78,25a4.35,4.35,0,0,1-3,1.23,2.49,2.49,0,0,1-2.44-1.47,7.25,7.25,0,0,1-.55-3.11c0-.17.1-.88.29-2.13a20.44,20.44,0,0,0,.28-2.85,3.68,3.68,0,0,0-.14-1.15,3.83,3.83,0,0,0-.64-1.08H8.76c-.3,1.06-.6,2.12-.9,3.16a30,30,0,0,1-2.16,5.5q-1.62,3-3.3,2.95a2.11,2.11,0,0,1-1.55-.83A3.52,3.52,0,0,1,0,22.86a16.32,16.32,0,0,1,1.5-6.07,61.17,61.17,0,0,1,2.77-5.55A13.93,13.93,0,0,0,5.77,8.1a2.4,2.4,0,0,0-.32-1.23,1,1,0,0,0-.89-.55A2.16,2.16,0,0,0,2.75,7.58L1,10.88V9.31C1.8,7.65,2.25,6.77,2.33,6.68A3.61,3.61,0,0,1,5.39,5.11a2.61,2.61,0,0,1,1.42.41,2.22,2.22,0,0,0,1,.4A24.08,24.08,0,0,1,11,3.47a6.35,6.35,0,0,1,3.18-1.13h2a3.28,3.28,0,0,1,2.4,1.18,3.59,3.59,0,0,1,1,2.59,6.45,6.45,0,0,1-1.8,4.32l-4.56,3.65a4.57,4.57,0,0,1,1.52,2.52A10,10,0,0,1,15,19.25v1a11.21,11.21,0,0,0,.24,2.59q.38,1.59,1.32,1.59a1.64,1.64,0,0,0,1.06-.64c1.18-1.23,1.82-1.87,1.91-1.92ZM6,14.11V10.9A9.65,9.65,0,0,0,3.7,14.7a37,37,0,0,0-1.56,5.17,18.35,18.35,0,0,0-.57,3.42,2.83,2.83,0,0,0,.21,1.14.66.66,0,0,0,.62.47c.57,0,1.16-.88,1.78-2.65a37.53,37.53,0,0,0,1.3-5.06A22.92,22.92,0,0,0,6,14.11ZM16.35,6.7a2.53,2.53,0,0,0-.71-1.85,2.87,2.87,0,0,0-2.09-.92,5.94,5.94,0,0,0-2.61.94c-1.31.75-2,1.49-2,2.24v6h2.8c.57,0,1.43-.67,2.59-2A6.8,6.8,0,0,0,16.35,6.7Z"/><path d="M31.37,22.75a19.17,19.17,0,0,1-1.8,1.66,6.54,6.54,0,0,1-3.8,1.66H23.68a4,4,0,0,1-2.56-1.19,4.38,4.38,0,0,1-1.59-3.39,5.13,5.13,0,0,1,.76-2.25,8.54,8.54,0,0,1,2.37-2.79,6.75,6.75,0,0,1,4.13-1.38,3.59,3.59,0,0,1,2.5.71,2.37,2.37,0,0,1,.61,1.78,3.75,3.75,0,0,1-1.82,3.08,18.77,18.77,0,0,1-3.4,1.71q-1.83.75-1.83,1.23c0,.31.23.63.67,1a2.67,2.67,0,0,0,1.61.48,5.42,5.42,0,0,0,3-.78c1.07-.84,2.15-1.68,3.22-2.54Zm-4.15-5.18a1.52,1.52,0,0,0-.24-1,1,1,0,0,0-.8-.26,2,2,0,0,0-1.81,1.16c-.44.78-.88,1.57-1.3,2.37v1.88a11.59,11.59,0,0,0,2.06-1A3.86,3.86,0,0,0,27.22,17.57Z"/><path d="M46.11,21.71a6.09,6.09,0,0,1-1.49,2.73,4.13,4.13,0,0,1-3.07,1.63,2,2,0,0,1-1.63-.92A4.69,4.69,0,0,1,39.28,24h-.65a5.29,5.29,0,0,1-1.11,1.28,4.19,4.19,0,0,1-2.61.81,3.17,3.17,0,0,1-2.64-1.3,4.57,4.57,0,0,1-.9-2.84A6.59,6.59,0,0,1,33.79,17a6,6,0,0,1,3.8-1.92,3.21,3.21,0,0,1,1.52.42,3.34,3.34,0,0,1,1.19,1,8.9,8.9,0,0,1,.73-.61,2.58,2.58,0,0,1,1.35-.62c.29,0,.46.08.53.24a2.48,2.48,0,0,1,.09.8c0,.07-.21,1-.63,2.66a18.62,18.62,0,0,0-.63,3.35v2.52a3.2,3.2,0,0,0,2.66-1.58A2.73,2.73,0,0,1,46.11,21.71Zm-6.43-3.53A1.77,1.77,0,0,0,39.29,17,1.64,1.64,0,0,0,38,16.52c-.75,0-1.44.59-2.09,1.78a16.39,16.39,0,0,0-1.23,3.29c-.15.6-.29,1.19-.43,1.78a1.47,1.47,0,0,0,.62,1,5.18,5.18,0,0,0,.64.45q1.61,0,2.94-2.4A8.69,8.69,0,0,0,39.68,18.18Z"/><path d="M60.66,21.63a5.34,5.34,0,0,1-1.35,2.85,3.75,3.75,0,0,1-2.88,1.37,2.22,2.22,0,0,1-1.8-.9,6.53,6.53,0,0,0-1-1,15.23,15.23,0,0,1-1.45,1.36,4.6,4.6,0,0,1-2.78.78,4.55,4.55,0,0,1-1.11-.26,3.81,3.81,0,0,1-2.47-3.95,6.59,6.59,0,0,1,2.06-4.81,6,6,0,0,1,4.3-2,3.55,3.55,0,0,1,1.21.15,5.11,5.11,0,0,1,1.09.68.58.58,0,0,0,.19-.19l0,0a.8.8,0,0,0,.42.21,23.68,23.68,0,0,1,.83-6c.67-2.5,1.44-3.76,2.33-3.76a3.72,3.72,0,0,1,1.14.08c0,.22.08.49.14.8L56.22,23.72a.91.91,0,0,1,.1.4,4.66,4.66,0,0,1-.1.67H57.5a8.38,8.38,0,0,0,1.57-1.71A5,5,0,0,1,60.66,21.63Zm-6.58-1.91V17.64a1.38,1.38,0,0,0-.48-1.07,1.48,1.48,0,0,0-.94-.42c-1.11,0-2,1-2.78,2.89A11,11,0,0,0,49,22.92a3.84,3.84,0,0,0,.14,1.49,2.1,2.1,0,0,1,.71.6,7.7,7.7,0,0,0,2.11-1A5,5,0,0,0,54.08,19.72Z"/><path d="M94.38,22.41a11.79,11.79,0,0,1-2.09,2.75,3.86,3.86,0,0,1-2.61,1.12,2,2,0,0,1-1.47-.84,3.79,3.79,0,0,1-.88-2.58,9.81,9.81,0,0,1,.49-2.74c.32-1.07.66-2.16,1-3.27a.53.53,0,0,0-.23-.49,1.07,1.07,0,0,0-.6-.15c-.71,0-1.51.69-2.38,2.07a34.71,34.71,0,0,0-2.11,4.2c-.9,2-1.41,3.17-1.52,3.37H79.86V23.72a22.42,22.42,0,0,0,.6-3.26c.22-1.56.37-2.7.46-3.39v-.64h-.87A18.32,18.32,0,0,0,76,22c-.32,1.05-.63,2.09-.93,3.11-.24.65-.87,1-1.9,1a.85.85,0,0,1-.62-.25,1.44,1.44,0,0,1-.23-.94v-.52A25.39,25.39,0,0,1,73,18.71q.83-3.57,2.4-3.57a1.2,1.2,0,0,1,.79.25.8.8,0,0,1,.3.63l-.88,3.18v.88a5.46,5.46,0,0,0,1.73-1.75,16.76,16.76,0,0,1,1.62-2.14,3.37,3.37,0,0,1,2.44-1.05,1.53,1.53,0,0,1,1.43.72,3.34,3.34,0,0,1,.35,1.68,10.41,10.41,0,0,1-.07,1.26v1.28q1.71-2.16,2.85-3.49a3.55,3.55,0,0,1,2.7-1.45,2.28,2.28,0,0,1,1.88,1,3.62,3.62,0,0,1,.69,2.2,8.9,8.9,0,0,1-.45,2.54l-1,3.23c0,.57.29.85.88.85a2.08,2.08,0,0,0,1.35-.85,30.81,30.81,0,0,1,2.47-2.56Z"/><path d="M108.29,22.32l-2,2.21a5,5,0,0,1-3.44,1.54H98.75a3.64,3.64,0,0,1-2.4-.95l-2-2.37V20.48c0-1.05.82-2.29,2.45-3.75a6.14,6.14,0,0,1,4.2-1.66,4.3,4.3,0,0,1,4.58,4.55,5.45,5.45,0,0,1-.62,2.51,11.1,11.1,0,0,1-2.09,2.68h.83a11.37,11.37,0,0,0,3.09-2,6.57,6.57,0,0,1,1.47-1.52Zm-5.39-2.27V18.39a2.09,2.09,0,0,0-.59-1.43,1.94,1.94,0,0,0-1.47-.65,2.85,2.85,0,0,0-2.32,1.63,6.16,6.16,0,0,0-1,3.34,6.45,6.45,0,0,0,.36,2.35,1.58,1.58,0,0,0,1.51,1.18,3.09,3.09,0,0,0,2.57-1.68A5.64,5.64,0,0,0,102.9,20.05Z"/><path d="M117.4,20.87l-.69.52a1.66,1.66,0,0,1-.8.14,2.27,2.27,0,0,1-2-1.15l-1.09-1.84a33.37,33.37,0,0,0-2.14,4c-.44,1.18-.88,2.36-1.3,3.53h-2.38V23.91a23.84,23.84,0,0,0,.59-3.49,17,17,0,0,1,.7-3.66c.42-1.13,1.07-1.69,1.94-1.69.13,0,.34.16.64.48s.45.51.45.59L110.5,19v.85A13,13,0,0,0,113,16.64a3,3,0,0,1,2.64-1.57,1.78,1.78,0,0,1,.69.1.75.75,0,0,1,.4.76,6.05,6.05,0,0,1-.64,1.75,5.51,5.51,0,0,0-.64,1.91.88.88,0,0,0,.81.9A4.54,4.54,0,0,1,117.4,20.87Z"/><path d="M128.56,22.75a19.07,19.07,0,0,1-1.81,1.66,6.54,6.54,0,0,1-3.8,1.66h-2.08a4,4,0,0,1-2.57-1.19,4.38,4.38,0,0,1-1.59-3.39,5.27,5.27,0,0,1,.76-2.25,8.57,8.57,0,0,1,2.38-2.79A6.73,6.73,0,0,1,124,15.07a3.56,3.56,0,0,1,2.5.71,2.37,2.37,0,0,1,.61,1.78,3.75,3.75,0,0,1-1.82,3.08,18.77,18.77,0,0,1-3.4,1.71c-1.22.5-1.82.91-1.82,1.23s.22.63.66,1a2.67,2.67,0,0,0,1.61.48,5.4,5.4,0,0,0,3-.78c1.07-.84,2.15-1.68,3.23-2.54Zm-4.16-5.18a1.59,1.59,0,0,0-.23-1,1,1,0,0,0-.81-.26,2,2,0,0,0-1.81,1.16c-.44.78-.87,1.57-1.3,2.37v1.88a11.26,11.26,0,0,0,2.06-1A3.83,3.83,0,0,0,124.4,17.57Z"/><polyline class="cls-1" points="160.41 17.64 255.97 17.64 234.73 0.39"/></g></g></svg>