<svg xmlns="http://www.w3.org/2000/svg" viewBox="0 0 173.75 23.76"><defs><style>.cls-1{isolation:isolate;}.cls-2{fill:#fff;}</style></defs><g id="レイヤー_2" data-name="レイヤー 2"><g id="txt"><g id="_0120-900-258" data-name=" 0120-900-258" class="cls-1"><g class="cls-1"><path class="cls-2" d="M37.57,23.72a5.6,5.6,0,0,1-3.26-.89,5.29,5.29,0,0,1-1.89-2.45,9.5,9.5,0,0,1-.62-3.53v-10a9.74,9.74,0,0,1,.6-3.57A5.08,5.08,0,0,1,34.28.86,5.83,5.83,0,0,1,37.57,0a5.77,5.77,0,0,1,3.28.86,5,5,0,0,1,1.86,2.4,9.74,9.74,0,0,1,.6,3.57v10a9.59,9.59,0,0,1-.61,3.56,5.18,5.18,0,0,1-1.88,2.43A5.64,5.64,0,0,1,37.57,23.72Zm0-2.53a2.08,2.08,0,0,0,1.65-.63A3.5,3.5,0,0,0,40,18.93a9.83,9.83,0,0,0,.21-2.05V6.8A10.21,10.21,0,0,0,40,4.69a3.2,3.2,0,0,0-.76-1.59,2.18,2.18,0,0,0-1.68-.6,2.23,2.23,0,0,0-1.69.6,3.22,3.22,0,0,0-.78,1.59,11,11,0,0,0-.2,2.11V16.88a9.2,9.2,0,0,0,.22,2.05,3.34,3.34,0,0,0,.8,1.63A2.14,2.14,0,0,0,37.57,21.19Z"/><path class="cls-2" d="M47.36,23.46,51.55,2.61H45.32V.2h9.31V1.69L50.32,23.46Z"/><path class="cls-2" d="M58.45,23.46,62.64,2.61H56.41V.2h9.3V1.69L61.4,23.46Z"/><path class="cls-2" d="M74,23.72a6,6,0,0,1-3.35-.84,4.61,4.61,0,0,1-1.83-2.37,10.55,10.55,0,0,1-.56-3.6,9.82,9.82,0,0,1,.2-2.07,5.75,5.75,0,0,1,.59-1.56A5.41,5.41,0,0,1,70,12.1a8,8,0,0,1,1.16-.9,6.06,6.06,0,0,1-1.86-2A6.28,6.28,0,0,1,68.58,6a8.19,8.19,0,0,1,.57-3.19A4.36,4.36,0,0,1,71,.73,5.88,5.88,0,0,1,74,0a5.73,5.73,0,0,1,3.06.73,4.36,4.36,0,0,1,1.77,2.08A8.19,8.19,0,0,1,79.43,6a6.41,6.41,0,0,1-.7,3.19,5.93,5.93,0,0,1-1.88,2,8,8,0,0,1,1.16.9,5.12,5.12,0,0,1,.92,1.18,5.76,5.76,0,0,1,.6,1.56,8.59,8.59,0,0,1,.22,2.07,10.55,10.55,0,0,1-.56,3.6,4.63,4.63,0,0,1-1.81,2.37A5.91,5.91,0,0,1,74,23.72Zm0-2.44a2.43,2.43,0,0,0,1.73-.58,3,3,0,0,0,.82-1.55A10.41,10.41,0,0,0,76.79,17a8.41,8.41,0,0,0-.24-2,3.45,3.45,0,0,0-.85-1.58A2.2,2.2,0,0,0,74,12.72a2.33,2.33,0,0,0-1.68.6,3.35,3.35,0,0,0-.87,1.57A8.06,8.06,0,0,0,71.22,17a9.72,9.72,0,0,0,.23,2.18,3,3,0,0,0,.85,1.55A2.46,2.46,0,0,0,74,21.28ZM74,9.79a1.93,1.93,0,0,0,1.48-.6,3.36,3.36,0,0,0,.71-1.48,8.88,8.88,0,0,0,.2-1.88,5.21,5.21,0,0,0-.52-2.44,1.91,1.91,0,0,0-1.87-1,2,2,0,0,0-1.89,1,5.09,5.09,0,0,0-.55,2.44,8.27,8.27,0,0,0,.21,1.88,3.09,3.09,0,0,0,.73,1.48A2,2,0,0,0,74,9.79Z"/><path class="cls-2" d="M82.59,16V13.64H89V16Z"/><path class="cls-2" d="M97.38,23.69a6,6,0,0,1-3.33-.81,4.34,4.34,0,0,1-1.77-2.32,11.14,11.14,0,0,1-.53-3.62h3.07A12.24,12.24,0,0,0,95,19a3.31,3.31,0,0,0,.74,1.64,2.13,2.13,0,0,0,1.7.65,2.1,2.1,0,0,0,1.81-.74,3.87,3.87,0,0,0,.69-2,23.78,23.78,0,0,0,.15-2.82A17.07,17.07,0,0,0,99.9,13a3.1,3.1,0,0,0-.71-1.69,2.24,2.24,0,0,0-1.73-.59,2.28,2.28,0,0,0-1.6.59,3.57,3.57,0,0,0-1,1.33H92.27V.2h10V3.27H95.05l-.2,6.43a4.05,4.05,0,0,1,1.42-.94,5.12,5.12,0,0,1,1.94-.35,4.55,4.55,0,0,1,3,.89,4.76,4.76,0,0,1,1.52,2.44,12.83,12.83,0,0,1,.45,3.56,20.24,20.24,0,0,1-.26,3.32,8.08,8.08,0,0,1-.9,2.67,4.6,4.6,0,0,1-1.77,1.76A5.63,5.63,0,0,1,97.38,23.69Z"/><path class="cls-2" d="M110.9,23.72a6.31,6.31,0,0,1-3.16-.72,4.52,4.52,0,0,1-1.89-2.07,7.47,7.47,0,0,1-.63-3.19V17h3v.52a8.65,8.65,0,0,0,.24,1.86,2.5,2.5,0,0,0,.78,1.32,2.36,2.36,0,0,0,1.62.49,2.41,2.41,0,0,0,1.69-.53,2.67,2.67,0,0,0,.78-1.51,11.5,11.5,0,0,0,.2-2.24,6,6,0,0,0-.67-3,2.76,2.76,0,0,0-2.37-1.28.72.72,0,0,0-.22,0h-.21V9.5h.4a3.16,3.16,0,0,0,2.35-.86A4,4,0,0,0,113.57,6,5.18,5.18,0,0,0,113,3.45a2.19,2.19,0,0,0-2.11-1,2.12,2.12,0,0,0-2.1,1,6.66,6.66,0,0,0-.57,2.68v.49h-3V5.94a7.33,7.33,0,0,1,.63-3.18,4.49,4.49,0,0,1,1.91-2,7.38,7.38,0,0,1,6.36,0A4.53,4.53,0,0,1,116,2.77a7.46,7.46,0,0,1,.63,3.2,5.67,5.67,0,0,1-.9,3.36,4.45,4.45,0,0,1-2.43,1.72,4.05,4.05,0,0,1,1.8,1.09,5.48,5.48,0,0,1,1.13,2,8.65,8.65,0,0,1,.4,2.77,10.4,10.4,0,0,1-.57,3.61,4.84,4.84,0,0,1-1.84,2.38A5.91,5.91,0,0,1,110.9,23.72Z"/><path class="cls-2" d="M119.17,16V13.64h6.4V16Z"/><path class="cls-2" d="M131.89,23.46V4.22a3.92,3.92,0,0,1-.65.17c-.41.1-.87.19-1.39.29l-1.38.26-.63.11V2.73c.32-.08.7-.18,1.13-.32a11.27,11.27,0,0,0,1.32-.49,7.85,7.85,0,0,0,1.3-.71,4.54,4.54,0,0,0,1-1H135V23.46Z"/><path class="cls-2" d="M139.53,23.46V21.28l5.91-9.22c.44-.69.85-1.33,1.22-1.93a9.64,9.64,0,0,0,.92-1.88A6.65,6.65,0,0,0,147.94,6a5.09,5.09,0,0,0-.52-2.52,1.88,1.88,0,0,0-1.81-.92,2.28,2.28,0,0,0-1.69.6,3.2,3.2,0,0,0-.83,1.58,8.75,8.75,0,0,0-.23,2.09v.78h-3.08v-.8a10.49,10.49,0,0,1,.56-3.61A4.78,4.78,0,0,1,142.15.83,5.93,5.93,0,0,1,145.47,0a5.26,5.26,0,0,1,4.19,1.59A6.53,6.53,0,0,1,151,6a8.48,8.48,0,0,1-.36,2.61,10.47,10.47,0,0,1-.93,2.1c-.39.65-.81,1.32-1.27,2l-5.34,8.15h7.35v2.59Z"/><path class="cls-2" d="M158.91,23.72a6.29,6.29,0,0,1-3.16-.72,4.49,4.49,0,0,1-1.9-2.07,7.47,7.47,0,0,1-.63-3.19V17h3v.52a8,8,0,0,0,.25,1.86,2.49,2.49,0,0,0,.77,1.32,3,3,0,0,0,3.32,0,2.8,2.8,0,0,0,.78-1.51,11.5,11.5,0,0,0,.2-2.24,6,6,0,0,0-.68-3,2.76,2.76,0,0,0-2.37-1.28.65.65,0,0,0-.21,0h-.22V9.5h.4a3.19,3.19,0,0,0,2.36-.86A4,4,0,0,0,161.58,6,5.07,5.07,0,0,0,161,3.45a2.18,2.18,0,0,0-2.11-1,2.09,2.09,0,0,0-2.09,1,6.49,6.49,0,0,0-.58,2.68v.49h-3V5.94a7.33,7.33,0,0,1,.63-3.18,4.54,4.54,0,0,1,1.91-2,7.38,7.38,0,0,1,6.36,0A4.55,4.55,0,0,1,164,2.77a7.46,7.46,0,0,1,.63,3.2,5.6,5.6,0,0,1-.91,3.36,4.46,4.46,0,0,1-2.42,1.72,4,4,0,0,1,1.79,1.09,5.36,5.36,0,0,1,1.14,2,8.94,8.94,0,0,1,.4,2.77,10.16,10.16,0,0,1-.58,3.61,4.82,4.82,0,0,1-1.83,2.38A6,6,0,0,1,158.91,23.72Z"/><path class="cls-2" d="M170.68,23.46V4.22a3.92,3.92,0,0,1-.65.17c-.41.1-.87.19-1.39.29l-1.38.26-.63.11V2.73c.32-.08.7-.18,1.13-.32a11.27,11.27,0,0,0,1.32-.49,7.85,7.85,0,0,0,1.3-.71,4.54,4.54,0,0,0,1-1h2.33V23.46Z"/></g></g><g id="_0120-900-258-2" data-name=" 0120-900-258" class="cls-1"><g class="cls-1"><path class="cls-2" d="M2.69,23.76V9.52H0V7.87H7.51V9.52H4.9V23.76Z"/><path class="cls-2" d="M9,23.76V7.87h6.17V9.52h-4v5.26h3.2v1.56h-3.2v5.83h4v1.59Z"/><path class="cls-2" d="M17,23.76V7.87h2.22v14.3h4.06v1.59Z"/><path class="cls-2" d="M24.54,23.76V21.43h2.1v2.33Z"/></g></g></g></g></svg>