<svg xmlns="http://www.w3.org/2000/svg" viewBox="0 0 560.73 270.32"><defs><style>.cls-1{fill:#fff;}</style></defs><g id="レイヤー_2" data-name="レイヤー 2"><g id="txt"><path class="cls-1" d="M24.29,78h10C60.24,78,68,63.13,68,39.67S60.24,1.35,34.25,1.35H.32V121.53h24Zm0-55h9.28C43.7,23,44,32.07,44,39.67S43.7,56.38,33.57,56.38H24.29Z"/><path class="cls-1" d="M129.11,121.53h25l-17.55-52c11.65-7.26,13.67-18.73,13.67-31.56,0-23-7.26-36.63-33.42-36.63H82.53V121.53h24V74.78h7.94ZM106.49,23h10.13c9.12,0,9.62,8.1,9.62,15s-.5,15.19-9.62,15.19H106.49Z"/><path class="cls-1" d="M199.33,0c-13,0-20.93,5.4-26.33,12.15-8.44,10.3-8.94,26.17-8.94,49.29s.5,39,8.94,49.29c5.4,6.75,13.34,12.15,26.33,12.15s20.93-5.4,26.34-12.15c8.44-10.3,8.94-26.17,8.94-49.29s-.5-39-8.94-49.29C220.26,5.4,212.33,0,199.33,0Zm8.11,96.55c-1.35,2.7-3.72,4.73-8.11,4.73s-6.75-2-8.1-4.73C188.36,91,188,76,188,61.44s.34-29.54,3.21-35.11c1.35-2.7,3.72-4.72,8.1-4.72s6.76,2,8.11,4.72c2.87,5.57,3.2,20.59,3.2,35.11S210.31,91,207.44,96.55Z"/><path class="cls-1" d="M283.56,1.35H249.64V121.53h33.92c13.51,0,20.93-5.4,26.34-11.65,8.44-9.62,8.94-26.5,8.94-48.61s-.5-38.65-8.94-48.27C304.49,6.75,297.07,1.35,283.56,1.35ZM292,94.69a9.52,9.52,0,0,1-8.94,5.24H273.6V23h9.46A9.51,9.51,0,0,1,292,28.19c2.87,5.57,2.87,19.75,2.87,33.08S294.87,89.12,292,94.69Z"/><path class="cls-1" d="M376.91,90.47c0,7.77-4.56,10.81-10,10.81s-10-3-10-10.81V1.35H333V89.29c0,9.62,3.21,17.72,9,23.63,6.41,6.59,14.85,10,25,10s18.57-3.37,25-10c5.74-5.91,8.95-14,8.95-23.63V1.35h-24Z"/><path class="cls-1" d="M450.34,21.61c4.39,0,6.75,1.68,8.1,4.55,1.35,2.53,1.69,5.91,1.86,9.29h24c-.5-11.48-4.55-20.93-10.8-26.84C467.39,2.87,460.3,0,450.34,0c-13,0-20.93,5.4-26.33,12.15-8.44,10.3-8.95,26.17-8.95,49.29s.51,39,8.95,49.29c5.4,6.75,13.33,12.15,26.33,12.15,10,0,17.05-2.87,23.12-8.61,6.25-5.91,10.3-15.53,10.8-27h-24c-.17,3.37-.51,6.75-1.86,9.28-1.35,2.87-3.71,4.73-8.1,4.73s-6.75-2-8.11-4.73C439.37,91,439,76,439,61.44s.34-29.54,3.2-35.11C443.59,23.63,446,21.61,450.34,21.61Z"/><polygon class="cls-1" points="512.96 121.53 536.93 121.53 536.93 22.96 557.19 22.96 557.19 1.35 492.71 1.35 492.71 22.96 512.96 22.96 512.96 121.53"/><polygon class="cls-1" points="43.04 207.7 21.1 148.79 0 148.79 0 268.97 23.97 268.97 23.97 206.52 36.8 247.53 49.12 247.53 62.28 206.35 62.28 268.97 86.25 268.97 86.25 148.79 64.98 148.79 43.04 207.7"/><polygon class="cls-1" points="108.27 268.97 163.63 268.97 163.63 247.37 132.24 247.37 132.24 219.18 159.24 219.18 159.24 197.57 132.24 197.57 132.24 170.4 163.63 170.4 163.63 148.79 108.27 148.79 108.27 268.97"/><rect class="cls-1" x="188.45" y="148.79" width="23.97" height="120.18"/><path class="cls-1" d="M285.51,199.93l-15-6.07c-6.92-2.87-8.27-5.07-8.27-12.66,0-4,.51-6.58,2-8.61a8,8,0,0,1,6.92-3.21c3.54,0,5.57,1.18,6.92,3,2,2.7,2,6.58,2,10.8h24c0-12.15-2.7-21.77-9.28-27.85-5.23-4.89-13-7.59-23.63-7.59-9.12,0-16.37,2.7-22.11,7.59-7.26,6.25-10.81,15.53-10.81,26.67,0,18.74,5.07,25.15,17.22,30.22l15.19,6.24c8.61,3.55,10.47,5.57,10.47,17.05,0,4.9-.68,8.1-2.37,10.13-1.52,2-3.88,3-7.59,3s-6.08-1.35-7.43-2.87c-2.19-2.54-2.53-6.08-2.53-11h-24c0,12.32,2,20.76,7.93,26.66,5.41,5.41,14.18,8.78,26,8.78,11.65,0,20.76-3.71,26.16-8.94,6.25-6.08,7.77-14.52,7.77-26.67C305.09,212.93,300.7,206.18,285.51,199.93Z"/><polygon class="cls-1" points="324.33 170.4 344.58 170.4 344.58 268.97 368.55 268.97 368.55 170.4 388.81 170.4 388.81 148.79 324.33 148.79 324.33 170.4"/><polygon class="cls-1" points="411.6 268.97 466.96 268.97 466.96 247.37 435.57 247.37 435.57 219.18 462.57 219.18 462.57 197.57 435.57 197.57 435.57 170.4 466.96 170.4 466.96 148.79 411.6 148.79 411.6 268.97"/><path class="cls-1" d="M543.18,217c11.64-7.25,13.67-18.73,13.67-31.56,0-23-7.26-36.63-33.42-36.63H489.16V269h24V222.22h7.93L535.75,269h25Zm-19.92-16.37H513.13V170.4h10.13c9.11,0,9.62,8.1,9.62,15S532.37,200.61,523.26,200.61Z"/></g></g></svg>